<svg width="300" height="75" viewBox="0 0 300 75" fill="none" xmlns="http://www.w3.org/2000/svg">
<g id="barra_progresso_3">
<rect width="300" height="75" fill="#40185A"/>
<rect id="contorno" x="8" y="39" width="278" height="22" stroke="#5B3A6F" stroke-width="2"/>
<text id="rot_cat" fill="#F1F1F1" xml:space="preserve" style="white-space: pre" font-family="Montserrat" font-size="15" font-weight="600" letter-spacing="0em"><tspan x="7" y="32.3775">Meta:</tspan></text>
<text id="rot_dados" fill="#F1F1F1" xml:space="preserve" style="white-space: pre" font-family="Montserrat" font-size="17" font-weight="600" letter-spacing="0em"><tspan x="249" y="31.5945">00%</tspan></text>
<path id="barra_fundo" fill-rule="evenodd" clip-rule="evenodd" d="M14.967 43H12V57H14.967V43ZM20.9011 43H17.9341V57H20.9011V43ZM23.8681 43H26.8352V57H23.8681V43ZM32.7692 43H29.8022V57H32.7692V43ZM35.7363 43H38.7033V57H35.7363V43ZM44.6374 43H41.6703V57H44.6374V43ZM47.6044 43H50.5714V57H47.6044V43ZM56.5055 43H53.5385V57H56.5055V43ZM59.4725 43H62.4396V57H59.4725V43ZM68.3736 43H65.4066V57H68.3736V43ZM71.3407 43H74.3077V57H71.3407V43ZM80.2418 43H77.2747V57H80.2418V43ZM83.2088 43H86.1758V57H83.2088V43ZM92.1099 43H89.1429V57H92.1099V43ZM95.0769 43H98.044V57H95.0769V43ZM103.978 43H101.011V57H103.978V43ZM106.945 43H109.912V57H106.945V43ZM115.846 43H112.879V57H115.846V43ZM118.813 43H121.78V57H118.813V43ZM127.714 43H124.747V57H127.714V43ZM130.681 43H133.648V57H130.681V43ZM139.582 43H136.615V57H139.582V43ZM142.549 43H145.516V57H142.549V43ZM151.451 43H148.484V57H151.451V43ZM154.418 43H157.385V57H154.418V43ZM163.319 43H160.352V57H163.319V43ZM166.286 43H169.253V57H166.286V43ZM175.187 43H172.22V57H175.187V43ZM178.154 43H181.121V57H178.154V43ZM187.055 43H184.088V57H187.055V43ZM190.022 43H192.989V57H190.022V43ZM198.923 43H195.956V57H198.923V43ZM201.89 43H204.857V57H201.89V43ZM210.791 43H207.824V57H210.791V43ZM213.758 43H216.725V57H213.758V43ZM222.659 43H219.692V57H222.659V43ZM225.626 43H228.593V57H225.626V43ZM234.527 43H231.56V57H234.527V43ZM237.495 43H240.462V57H237.495V43ZM246.396 43H243.429V57H246.396V43ZM249.363 43H252.33V57H249.363V43ZM258.264 43H255.297V57H258.264V43ZM261.231 43H264.198V57H261.231V43ZM270.132 43H267.165V57H270.132V43ZM273.099 43H276.066V57H273.099V43ZM282 43H279.033V57H282V43Z" fill="#5B3A6F"/>
<path id="barra_progresso" fill-rule="evenodd" clip-rule="evenodd" d="M14.967 43H12V57H14.967V43ZM20.9011 43H17.9341V57H20.9011V43ZM23.8681 43H26.8352V57H23.8681V43ZM32.7692 43H29.8022V57H32.7692V43ZM35.7363 43H38.7033V57H35.7363V43ZM44.6374 43H41.6703V57H44.6374V43ZM47.6044 43H50.5714V57H47.6044V43ZM56.5055 43H53.5385V57H56.5055V43ZM59.4725 43H62.4396V57H59.4725V43ZM68.3736 43H65.4066V57H68.3736V43ZM71.3407 43H74.3077V57H71.3407V43ZM80.2418 43H77.2747V57H80.2418V43ZM83.2088 43H86.1758V57H83.2088V43ZM92.1099 43H89.1429V57H92.1099V43ZM95.0769 43H98.044V57H95.0769V43ZM103.978 43H101.011V57H103.978V43ZM106.945 43H109.912V57H106.945V43ZM115.846 43H112.879V57H115.846V43ZM118.813 43H121.78V57H118.813V43ZM127.714 43H124.747V57H127.714V43ZM130.681 43H133.648V57H130.681V43ZM139.582 43H136.615V57H139.582V43ZM142.549 43H145.516V57H142.549V43ZM151.451 43H148.484V57H151.451V43ZM154.418 43H157.385V57H154.418V43ZM163.319 43H160.352V57H163.319V43ZM166.286 43H169.253V57H166.286V43ZM175.187 43H172.22V57H175.187V43ZM178.154 43H181.121V57H178.154V43ZM187.055 43H184.088V57H187.055V43ZM190.022 43H192.989V57H190.022V43ZM198.923 43H195.956V57H198.923V43ZM201.89 43H204.857V57H201.89V43ZM210.791 43H207.824V57H210.791V43ZM213.758 43H216.725V57H213.758V43ZM222.659 43H219.692V57H222.659V43ZM225.626 43H228.593V57H225.626V43ZM234.527 43H231.56V57H234.527V43ZM237.495 43H240.462V57H237.495V43ZM246.396 43H243.429V57H246.396V43ZM249.363 43H252.33V57H249.363V43ZM258.264 43H255.297V57H258.264V43ZM261.231 43H264.198V57H261.231V43ZM270.132 43H267.165V57H270.132V43ZM273.099 43H276.066V57H273.099V43ZM282 43H279.033V57H282V43Z" fill="#558CA4"/>
<rect id="quadro_recorte" x="12" y="41" width="270" height="18" fill="#D9D9D9"/>
</g>
</svg>
