<svg width="170" height="260" viewBox="0 0 170 260" fill="none" xmlns="http://www.w3.org/2000/svg">
<g id="Bateria">
<path id="estrututura" fill-rule="evenodd" clip-rule="evenodd" d="M60 20C60 17.2386 62.2386 15 65 15H105C107.761 15 110 17.2386 110 20V26H127C129.761 26 132 28.2386 132 31V33H135C137.761 33 140 35.2386 140 38V49H30V38C30 35.2386 32.2386 33 35 33H37V31C37 28.2386 39.2386 26 42 26H60V20ZM133 241C133 243.761 130.761 246 128 246H43C40.2386 246 38 243.761 38 241V239H35C32.2386 239 30 236.761 30 234V223H140V234C140 236.761 137.761 239 135 239H133V241Z" fill="url(#paint0_linear_3780_172)"/>
<rect id="progresso" x="30" y="49" width="110" height="175"  fill="#558CA4"/>
<rect id="vidro" x="30" y="49" width="110" height="174" fill="url(#paint1_linear_3780_172)"/>
<path id="Linhas" fill-rule="evenodd" clip-rule="evenodd" d="M140 50H30V49H140V50ZM140 67H30V66H140V67ZM30 85H140V84H30V85ZM140 102H30V101H140V102ZM30 120H140V119H30V120ZM140 137H30V136H140V137ZM30 154H140V153H30V154ZM140 172H30V171H140V172ZM30 189H140V188H30V189ZM140 207H30V206H140V207ZM30 224H140V223H30V224Z" fill="#95AEB9"/>
</g>
<defs>
<linearGradient id="paint0_linear_3780_172" x1="140" y1="234.5" x2="30" y2="234.5" gradientUnits="userSpaceOnUse">
<stop stop-color="#BDBDBD"/>
<stop offset="0.135417" stop-color="#767676"/>
<stop offset="0.5" stop-color="#BDBDBD"/>
<stop offset="0.864583" stop-color="#767676"/>
<stop offset="1" stop-color="#BDBDBD"/>
</linearGradient>
<linearGradient id="paint1_linear_3780_172" x1="30" y1="128.5" x2="140" y2="129.5" gradientUnits="userSpaceOnUse">
<stop stop-color="#ffffff" stop-opacity="0.4"/>
<stop offset="0.15625" stop-color="#000000" stop-opacity="0.2"/>
<stop offset="0.854167" stop-color="000000" stop-opacity="0.2"/>
<stop offset="1" stop-color="white" stop-opacity="0.4"/>
</linearGradient>
</defs>
</svg>
