<svg width="100" height="146" viewBox="0 0 100 146" fill="none" xmlns="http://www.w3.org/2000/svg">
<g id="Prenchimento" clip-path="url(#clip0_4008_1018)">
<rect width="100" height="146" fill="#40185A"/>
<rect id="recorte" x="100" y="85" width="100" height="74" transform="rotate(-180 100 85)" fill="#D9D9D9"/>
<path id="icone_fundo" fill-rule="evenodd" clip-rule="evenodd" d="M50.0762 11C40.8458 11 32.4368 14.0489 27.4609 16.5399C27.0114 16.7647 26.5924 16.9854 26.2021 17.1979C25.4297 17.6189 24.7717 18.0112 24.2486 18.3566L29.909 26.6899L32.5737 27.7505C42.9874 33.0043 56.9526 33.0043 67.3682 27.7505L70.3926 26.1811L75.7445 18.3566C74.636 17.6333 73.4832 16.9801 72.2931 16.4009C67.3417 13.9365 59.133 11 50.0783 11H50.0762ZM36.9121 20.4328C34.9076 20.0577 32.9279 19.5609 30.9839 18.9451C35.6451 16.875 42.5909 14.6783 50.0762 14.6783C55.2606 14.6783 60.1629 15.7327 64.2172 17.0692C59.4661 17.7374 54.3962 18.8715 49.5654 20.2672C45.7645 21.3666 41.3219 21.2481 36.9121 20.4328ZM69.5262 30.781L69.0235 31.0344C57.5677 36.8134 42.3723 36.8134 30.9165 31.0344L30.4403 30.7933C13.2301 49.6771 0.0904007 84.5595 50.0762 84.5595C100.062 84.5595 86.6016 49.0253 69.5262 30.781ZM47.953 47.7828C46.8691 47.7828 45.8296 48.2134 45.0631 48.9799C44.2967 49.7463 43.8661 50.7859 43.8661 51.8698C43.8661 52.9537 44.2967 53.9933 45.0631 54.7597C45.8296 55.5262 46.8691 55.9568 47.953 55.9568V47.7828ZM52.04 43.6959V41.6524H47.953V43.6959C45.7852 43.6959 43.7061 44.557 42.1732 46.09C40.6403 47.6229 39.7791 49.7019 39.7791 51.8698C39.7791 54.0377 40.6403 56.1168 42.1732 57.6497C43.7061 59.1826 45.7852 60.0438 47.953 60.0438V68.2177C46.1752 68.2177 44.661 67.0836 44.097 65.4938C44.0133 65.2337 43.8783 64.993 43.7 64.786C43.5217 64.5789 43.3036 64.4098 43.0588 64.2885C42.814 64.1672 42.5473 64.0962 42.2745 64.0798C42.0018 64.0634 41.7285 64.1018 41.4709 64.1928C41.2133 64.2838 40.9765 64.4256 40.7747 64.6097C40.5728 64.7939 40.4099 65.0166 40.2956 65.2648C40.1813 65.513 40.1179 65.7815 40.1092 66.0546C40.1005 66.3277 40.1467 66.5998 40.245 66.8547C40.8087 68.4486 41.8526 69.8285 43.233 70.8046C44.6134 71.7806 46.2624 72.3047 47.953 72.3047V74.3482H52.04V72.3047C54.2079 72.3047 56.287 71.4435 57.8199 69.9106C59.3528 68.3777 60.214 66.2986 60.214 64.1308C60.214 61.9629 59.3528 59.8838 57.8199 58.3509C56.287 56.818 54.2079 55.9568 52.04 55.9568V47.7828C53.8179 47.7828 55.3321 48.917 55.8961 50.5068C55.9798 50.7669 56.1148 51.0076 56.2931 51.2146C56.4714 51.4216 56.6894 51.5908 56.9343 51.7121C57.1791 51.8334 57.4458 51.9043 57.7185 51.9208C57.9913 51.9372 58.2645 51.8988 58.5221 51.8077C58.7798 51.7167 59.0165 51.575 59.2184 51.3908C59.4203 51.2067 59.5832 50.984 59.6975 50.7358C59.8118 50.4876 59.8752 50.219 59.8839 49.9459C59.8925 49.6728 59.8464 49.4008 59.7481 49.1458C59.1844 47.552 58.1405 46.172 56.7601 45.196C55.3797 44.22 53.7306 43.6959 52.04 43.6959ZM52.04 60.0438V68.2177C53.124 68.2177 54.1635 67.7872 54.93 67.0207C55.6964 66.2542 56.127 65.2147 56.127 64.1308C56.127 63.0468 55.6964 62.0073 54.93 61.2408C54.1635 60.4744 53.124 60.0438 52.04 60.0438Z" fill="#745584"/>
<path id="icone_progresso" fill-rule="evenodd" clip-rule="evenodd" d="M50.0762 11C40.8458 11 32.4368 14.0489 27.4609 16.5399C27.0114 16.7647 26.5924 16.9854 26.2021 17.1979C25.4297 17.6189 24.7717 18.0112 24.2486 18.3566L29.909 26.6899L32.5737 27.7505C42.9874 33.0043 56.9526 33.0043 67.3682 27.7505L70.3926 26.1811L75.7445 18.3566C74.636 17.6333 73.4832 16.9801 72.2931 16.4009C67.3417 13.9365 59.133 11 50.0783 11H50.0762ZM36.9121 20.4328C34.9076 20.0577 32.9279 19.5609 30.9839 18.9451C35.6451 16.875 42.5909 14.6783 50.0762 14.6783C55.2606 14.6783 60.1629 15.7327 64.2172 17.0692C59.4661 17.7374 54.3962 18.8715 49.5654 20.2672C45.7645 21.3666 41.3219 21.2481 36.9121 20.4328ZM69.5262 30.781L69.0235 31.0344C57.5677 36.8134 42.3723 36.8134 30.9165 31.0344L30.4403 30.7933C13.2301 49.6771 0.0904007 84.5595 50.0762 84.5595C100.062 84.5595 86.6016 49.0253 69.5262 30.781ZM47.953 47.7828C46.8691 47.7828 45.8296 48.2134 45.0631 48.9799C44.2967 49.7463 43.8661 50.7859 43.8661 51.8698C43.8661 52.9537 44.2967 53.9933 45.0631 54.7597C45.8296 55.5262 46.8691 55.9568 47.953 55.9568V47.7828ZM52.04 43.6959V41.6524H47.953V43.6959C45.7852 43.6959 43.7061 44.557 42.1732 46.09C40.6403 47.6229 39.7791 49.7019 39.7791 51.8698C39.7791 54.0377 40.6403 56.1168 42.1732 57.6497C43.7061 59.1826 45.7852 60.0438 47.953 60.0438V68.2177C46.1752 68.2177 44.661 67.0836 44.097 65.4938C44.0133 65.2337 43.8783 64.993 43.7 64.786C43.5217 64.5789 43.3036 64.4098 43.0588 64.2885C42.814 64.1672 42.5473 64.0962 42.2745 64.0798C42.0018 64.0634 41.7285 64.1018 41.4709 64.1928C41.2133 64.2838 40.9765 64.4256 40.7747 64.6097C40.5728 64.7939 40.4099 65.0166 40.2956 65.2648C40.1813 65.513 40.1179 65.7815 40.1092 66.0546C40.1005 66.3277 40.1467 66.5998 40.245 66.8547C40.8087 68.4486 41.8526 69.8285 43.233 70.8046C44.6134 71.7806 46.2624 72.3047 47.953 72.3047V74.3482H52.04V72.3047C54.2079 72.3047 56.287 71.4435 57.8199 69.9106C59.3528 68.3777 60.214 66.2986 60.214 64.1308C60.214 61.9629 59.3528 59.8838 57.8199 58.3509C56.287 56.818 54.2079 55.9568 52.04 55.9568V47.7828C53.8179 47.7828 55.3321 48.917 55.8961 50.5068C55.9798 50.7669 56.1148 51.0076 56.2931 51.2146C56.4714 51.4216 56.6894 51.5908 56.9343 51.7121C57.1791 51.8334 57.4458 51.9043 57.7185 51.9208C57.9913 51.9372 58.2645 51.8988 58.5221 51.8077C58.7798 51.7167 59.0165 51.575 59.2184 51.3908C59.4203 51.2067 59.5832 50.984 59.6975 50.7358C59.8118 50.4876 59.8752 50.219 59.8839 49.9459C59.8925 49.6728 59.8464 49.4008 59.7481 49.1458C59.1844 47.552 58.1405 46.172 56.7601 45.196C55.3797 44.22 53.7306 43.6959 52.04 43.6959ZM52.04 60.0438V68.2177C53.124 68.2177 54.1635 67.7872 54.93 67.0207C55.6964 66.2542 56.127 65.2147 56.127 64.1308C56.127 63.0468 55.6964 62.0073 54.93 61.2408C54.1635 60.4744 53.124 60.0438 52.04 60.0438Z" fill="#897D2E"/>
<text id="rot_dados" fill="white" xml:space="preserve" style="white-space: pre" font-family="Inter" font-size="24" font-weight="500" letter-spacing="0em"><tspan x="24" y="119.227">50%</tspan></text>
<text id="rot_categoria" fill="#F1F1F1" xml:space="preserve" style="white-space: pre" font-family="Inter" font-size="10" font-weight="500" letter-spacing="0em"><tspan x="24" y="132.636">Porc. Meta</tspan></text>
</g>
</svg>
