<svg width="200" height="350" viewBox="0 0 200 350" fill="none" xmlns="http://www.w3.org/2000/svg">
<g id="semaforo">

<path id="circ_fundo" fill-rule="evenodd" clip-rule="evenodd" d="M135 48C135 67.33 119.33 83 100 83C80.67 83 65 67.33 65 48C65 28.67 80.67 13 100 13C119.33 13 135 28.67 135 48ZM135 142C135 161.33 119.33 177 100 177C80.67 177 65 161.33 65 142C65 122.67 80.67 107 100 107C119.33 107 135 122.67 135 142ZM100 271C119.33 271 135 255.33 135 236C135 216.67 119.33 201 100 201C80.67 201 65 216.67 65 236C65 255.33 80.67 271 100 271Z" fill="#431B5C"/>
<circle id="circ_colorido" cx="100" cy="48" r="35" fill="#C54339"/>
<path id="sestrutura" fill-rule="evenodd" clip-rule="evenodd" d="M57.0048 48.2237L57.2774 91.4474L100.361 91.7209L143.444 91.9944V48.4972V5H100.088H56.7322L57.0048 48.2237ZM110.022 19.7432C121.046 22.739 130.128 35.6024 130.128 48.2227C130.128 64.9662 116.788 78.3493 100.1 78.3493C91.74 78.3493 85.1976 75.5851 79.1178 69.4866C72.3133 62.6599 69.8588 55.9118 70.5669 45.9792C71.1351 38.0198 73.1499 33.4019 78.5423 27.7016C86.9 18.8683 97.2098 16.2623 110.022 19.7432ZM20.5076 20.4558C20.7447 20.8875 27.4333 33.2657 35.3722 47.9618C43.311 62.6578 50.1939 75.1293 50.6692 75.6773C51.1444 76.2243 51.5329 63.8471 51.5329 48.1713V19.6699H35.8046C27.1545 19.6699 20.2705 20.024 20.5076 20.4558ZM149.711 47.6128C149.711 62.9806 149.891 75.3588 150.111 75.1188C150.802 74.3623 180 20.6779 180 20.1613C180 19.891 173.185 19.6699 164.856 19.6699H149.711V47.6128ZM92.1881 24.3747C80.0652 28.2779 72.2589 43.4602 76.021 55.8206C76.9036 58.7211 77.03 58.4727 77.6546 52.6257C79.3361 36.8902 90.5504 26.0775 105.322 25.9486C110.205 25.9056 111.174 25.651 109.71 24.7959C106.55 22.9528 97.2965 22.7296 92.1881 24.3747ZM56.7552 142.268V185.23H100.1H143.444V142.268V99.3063H100.1H56.7552V142.268ZM107.68 113.292C130.742 119.294 137.975 148.805 120.293 164.754C107.153 176.607 87.1768 174.742 76.4743 160.664C66.1395 147.069 68.8749 128.248 82.6658 118.073C87.0682 114.825 94.4837 112.156 99.6109 111.974C101.066 111.922 104.696 112.515 107.68 113.292ZM23.0665 119.477C24.7522 122.504 31.1202 134.173 37.2177 145.412C43.3152 156.65 49.0158 166.788 49.8858 167.94C51.3105 169.829 51.4703 167.263 51.4995 142.006L51.5329 113.976H35.767H20L23.0665 119.477ZM149.711 141.919C149.711 157.287 149.891 169.665 150.11 169.425C150.705 168.773 180 114.805 180 114.36C180 114.148 173.185 113.976 164.856 113.976H149.711V141.919ZM92.1463 118.566C79.6954 123.03 72.1837 136.915 75.9229 148.555L77.4373 153.27L77.5407 148.48C77.8843 132.552 90.048 120.367 105.788 120.184L112.633 120.104L108.978 118.691C104.308 116.887 96.98 116.833 92.1463 118.566ZM56.7552 236.55V279.489L75.8163 279.774L94.8775 280.06L95.1887 286.609C95.4927 293.01 95.4394 293.158 92.8387 293.158H90.1775V319.354V345.551H100.64H111.103L110.823 319.616L110.544 293.682L108.194 293.347C106.035 293.04 105.844 292.464 105.844 286.274V279.536H124.644H143.444V236.574V193.613H100.1H56.7552V236.55ZM113.859 209.897C120.526 213.17 127.13 220.872 128.928 227.471C132.943 242.216 126.856 256.727 113.772 263.604C106.594 267.376 94.0284 267.618 87.4452 264.112C80.8485 260.599 77.3057 257.173 74.0324 251.139C66.5134 237.281 70.8134 219.858 83.8179 211.486C93.1051 205.507 103.766 204.943 113.859 209.897ZM23.0863 213.784C24.7836 216.809 31.1484 228.48 37.2313 239.718C43.3142 250.956 49.0054 261.094 49.8785 262.247C51.3125 264.138 51.4692 261.616 51.4995 236.312L51.5329 208.282H35.767H20L23.0863 213.784ZM149.742 236.312C149.761 252.399 150.156 263.673 150.669 262.771C154.238 256.496 180 208.979 180 208.671C180 208.457 173.185 208.282 164.856 208.282H149.711L149.742 236.312ZM92.0147 212.853C83.2079 216.151 77.5177 222.652 75.4936 231.727C74.4899 236.223 74.5536 238.133 75.8487 242.39L77.4269 247.577L77.5355 242.786C77.8979 226.816 90.1054 214.61 105.788 214.538C111.263 214.512 112.238 214.276 110.662 213.357C107.501 211.515 96.3888 211.214 92.0147 212.853Z" fill="black"/>
</g>
</svg>
