<svg width="250" height="206" viewBox="0 0 250 206" fill="none" xmlns="http://www.w3.org/2000/svg">
<g id="Velocimetro">
<g id="marcadores">
<path id="marcador" fill-rule="evenodd" clip-rule="evenodd" d="M159.463 29.1784L158.945 29L153 46.2652L153.518 46.4436L159.463 29.1784ZM92 29.1875L92.5149 29.0001L98.7602 46.1589L98.2453 46.3463L92 29.1875ZM123.671 32.0216L123.123 32.0407L123.442 41.1676L123.99 41.1485L123.671 32.0216ZM118.897 32.2855L118.351 32.3333L119.147 41.4309L119.693 41.3832L118.897 32.2855ZM113.601 32.8737L114.143 32.7975L115.414 41.841L114.872 41.9173L113.601 32.8737ZM109.423 33.5593L108.885 33.6639L110.628 42.6285L111.166 42.524L109.423 33.5593ZM104.217 34.6984L104.749 34.5659L106.958 43.427L106.427 43.5596L104.217 34.6984ZM100.134 35.8153L99.6101 35.9755L102.28 44.7089L102.804 44.5487L100.134 35.8153ZM91.1316 39.0309L90.6272 39.245L94.1955 47.6515L94.6999 47.4374L91.1316 39.0309ZM86.2768 41.2285L86.7693 40.9883L90.7727 49.1964L90.2802 49.4366L86.2768 41.2285ZM82.5149 43.171L82.0357 43.4367L86.4632 51.424L86.9424 51.1584L82.5149 43.171ZM77.9161 45.8625L78.3807 45.5721L83.2202 53.3168L82.7555 53.6072L77.9161 45.8625ZM74.3782 48.188L73.9293 48.5023L79.1675 55.9831L79.6163 55.6688L74.3782 48.188ZM70.0857 51.3455L70.5175 51.0081L76.14 58.2046L75.7082 58.5419L70.0857 51.3455ZM66.81 54.0272L66.3964 54.3866L72.3878 61.279L72.8014 60.9195L66.81 54.0272ZM62.8714 57.6169L63.2656 57.2362L69.6095 63.8056L69.2153 64.1862L62.8714 57.6169ZM59.894 60.6265L59.5203 61.0273L66.1994 67.2556L66.5731 66.8548L59.894 60.6265ZM56.3523 64.6071L56.7045 64.1874L63.7004 70.0576L63.3481 70.4773L56.3523 64.6071ZM53.7056 67.9116L53.3758 68.3493L60.6693 73.8453L60.999 73.4077L53.7056 67.9116ZM43.0001 67.4529L43.3066 66.9986L58.4448 77.2094L58.1384 77.6637L43.0001 67.4529ZM48.3128 75.8044L48.0306 76.2741L55.8586 80.9777L56.1408 80.508L48.3128 75.8044ZM45.6761 80.4354L45.9334 79.9516L53.9968 84.239L53.7396 84.7229L45.6761 80.4354ZM43.7744 84.2179L43.5428 84.7145L51.8196 88.574L52.0512 88.0774L43.7744 84.2179ZM41.6363 89.0988L41.8416 88.5907L50.309 92.0118L50.1038 92.5198L41.6363 89.0988ZM40.1401 93.0595L39.9617 93.5776L48.5965 96.5508L48.7749 96.0327L40.1401 93.0595ZM38.524 98.1384L38.6751 97.6117L47.4537 100.129L47.3027 100.656L38.524 98.1384ZM37.4504 102.233L37.3272 102.767L46.2255 104.821L46.3488 104.288L37.4504 102.233ZM36.3738 107.451L36.469 106.911L45.4626 108.497L45.3675 109.037L36.3738 107.451ZM35.734 111.636L35.6673 112.18L44.7316 113.292L44.7984 112.749L35.734 111.636ZM35.2089 116.94L35.2471 116.394L44.3573 117.031L44.319 117.577L35.2089 116.94ZM35.0097 121.169L35.0002 121.717L44.1312 121.876L44.1408 121.328L35.0097 121.169ZM35.0421 126.497L35.023 125.949L44.1498 125.631L44.1689 126.178L35.0421 126.497ZM26.0002 131.591L26.048 132.136L44.2385 130.545L44.1908 129.999L26.0002 131.591ZM35.8753 136.02L35.799 135.478L44.8426 134.207L44.9188 134.749L35.8753 136.02ZM36.5598 140.198L36.6643 140.736L45.629 138.994L45.5244 138.456L36.5598 140.198ZM37.6991 145.404L37.5665 144.872L46.4277 142.663L46.5602 143.195L37.6991 145.404ZM38.8167 149.487L38.9769 150.011L47.7102 147.341L47.55 146.817L38.8167 149.487ZM40.4939 154.545L40.3065 154.03L48.8881 150.907L49.0755 151.422L40.4939 154.545ZM42.032 158.489L42.2461 158.994L50.6525 155.426L50.4384 154.921L42.032 158.489ZM44.2291 163.344L43.9889 162.852L52.1971 158.848L52.4373 159.341L44.2291 163.344ZM46.171 167.105L46.4366 167.584L54.424 163.157L54.1584 162.677L46.171 167.105ZM48.8633 171.704L48.573 171.24L56.3177 166.4L56.6081 166.865L48.8633 171.704ZM51.188 175.242L51.5023 175.691L58.9831 170.453L58.6688 170.004L51.188 175.242ZM54.3461 179.535L54.0088 179.103L61.2052 173.48L61.5426 173.912L54.3461 179.535ZM49.838 188.537L50.1975 188.951L63.9822 176.968L63.6227 176.554L49.838 188.537ZM198.275 67.0846L198.612 67.5164L191.416 73.1389L191.079 72.7071L198.275 67.0846ZM195.593 63.8095L195.234 63.396L188.342 69.3874L188.701 69.8009L195.593 63.8095ZM192.004 59.8714L192.384 60.2656L185.815 66.6095L185.435 66.2154L192.004 59.8714ZM188.994 56.8936L188.594 56.5199L182.365 63.1989L182.766 63.5726L188.994 56.8936ZM185.013 53.3521L185.432 53.7043L179.562 60.7002L179.143 60.3479L185.013 53.3521ZM181.709 50.7049L181.271 50.3752L175.775 57.6686L176.213 57.9984L181.709 50.7049ZM177.379 47.598L177.833 47.9044L172.726 55.4755L172.272 55.1691L177.379 47.598ZM173.816 45.3117L173.346 45.0295L168.643 52.8575L169.112 53.1397L173.816 45.3117ZM169.185 42.675L169.669 42.9323L165.381 50.9957L164.897 50.7385L169.185 42.675ZM165.403 40.7733L164.906 40.5417L161.046 48.8185L161.543 49.0501L165.403 40.7733ZM160.521 38.635L161.029 38.8403L157.608 47.3077L157.1 47.1024L160.521 38.635ZM151.483 35.5243L152.01 35.6753L149.492 44.4539L148.966 44.3029L151.483 35.5243ZM147.388 34.4489L146.854 34.3256L144.8 43.224L145.334 43.3473L147.388 34.4489ZM142.169 33.3732L142.709 33.4683L141.123 42.462L140.583 42.3668L142.169 33.3732ZM137.984 32.7336L137.44 32.6668L136.327 41.7312L136.871 41.7979L137.984 32.7336ZM132.681 32.2084L133.228 32.2466L132.591 41.3568L132.044 41.3186L132.681 32.2084ZM128.452 32.0093L127.905 31.9997L127.745 41.1308L128.293 41.1403L128.452 32.0093Z" fill="#B7A2C3"/>
<path id="marcador_maximo" fill-rule="evenodd" clip-rule="evenodd" d="M209.638 66.8995L208.852 65.7773L193.891 76.2536L194.677 77.3758L209.638 66.8995ZM203.758 74.9169L204.484 76.0786L196.739 80.9181L196.013 79.7563L203.758 74.9169ZM206.849 80.2353L206.185 79.0372L198.197 83.4647L198.861 84.6628L206.849 80.2353ZM208.392 83.277L208.993 84.5082L200.785 88.5116L200.184 87.2804L208.392 83.277ZM210.911 88.8901L210.375 87.6292L201.969 91.1975L202.504 92.4584L210.911 88.8901ZM212.128 92.0776L212.596 93.3649L204.014 96.4884L203.546 95.2011L212.128 92.0776ZM214.045 97.9218L213.645 96.6117L204.911 99.2818L205.312 100.592L214.045 97.9218ZM214.922 101.219L215.254 102.548L206.392 104.757L206.061 103.428L214.922 101.219ZM216.218 107.232L215.957 105.887L206.992 107.629L207.254 108.974L216.218 107.232ZM216.746 110.601L216.937 111.958L207.893 113.229L207.703 111.872L216.746 110.601ZM217.407 116.717L217.288 115.353L208.19 116.149L208.309 117.513L217.407 116.717ZM217.579 120.124L217.627 121.493L208.5 121.812L208.452 120.443L217.579 120.124ZM217.597 126.276L217.621 124.906L208.49 124.747L208.466 126.116L217.597 126.276ZM217.412 129.683L217.317 131.049L208.207 130.412L208.302 129.046L217.412 129.683ZM216.787 135.801L216.954 134.442L207.89 133.329L207.723 134.688L216.787 135.801ZM216.247 139.17L216.01 140.519L207.016 138.933L207.254 137.584L216.247 139.17ZM214.986 145.191L215.294 143.856L206.396 141.802L206.088 143.136L214.986 145.191ZM214.097 148.485L213.72 149.801L204.941 147.284L205.319 145.967L214.097 148.485ZM212.214 154.339L212.66 153.044L204.025 150.07L203.579 151.366L212.214 154.339ZM210.985 157.522L210.472 158.793L202.005 155.372L202.518 154.101L210.985 157.522ZM208.5 163.148L209.079 161.907L200.802 158.047L200.223 159.289L208.5 163.148ZM206.945 166.186L206.302 167.395L198.239 163.108L198.882 161.898L206.945 166.186ZM203.885 171.521L204.591 170.347L196.763 165.644L196.057 166.818L203.885 171.521ZM202.022 174.38L201.256 175.516L193.685 170.409L194.451 169.273L202.022 174.38ZM198.421 179.366L199.245 178.272L191.952 172.776L191.128 173.87L198.421 179.366ZM201.788 189.408L202.696 188.382L189.017 176.279L188.109 177.305L201.788 189.408Z" fill="#AA700D"/>
</g>
<g id="numeros">
<text id="0" fill="#B7A2C3" xml:space="preserve" style="white-space: pre" font-family="Montserrat" font-size="9.81383" font-weight="600" letter-spacing="0em"><tspan x="63.3794" y="173.979">0</tspan></text>
<text id="20" fill="#B7A2C3" xml:space="preserve" style="white-space: pre" font-family="Montserrat" font-size="9.81383" font-weight="600" letter-spacing="0em"><tspan x="46" y="132.518">20</tspan></text>
<text id="40" fill="#B7A2C3" xml:space="preserve" style="white-space: pre" font-family="Montserrat" font-size="9.81383" font-weight="600" letter-spacing="0em"><tspan x="58" y="83.5183">40</tspan></text>
<text id="60" fill="#B7A2C3" xml:space="preserve" style="white-space: pre" font-family="Montserrat" font-size="9.81383" font-weight="600" letter-spacing="0em"><tspan x="95" y="56.5183">60</tspan></text>
<text id="80" fill="#B7A2C3" xml:space="preserve" style="white-space: pre" font-family="Montserrat" font-size="9.81383" font-weight="600" letter-spacing="0em"><tspan x="145" y="56.5183">80</tspan></text>
<text id="100" fill="#AA700D" xml:space="preserve" style="white-space: pre" font-family="Montserrat" font-size="9.81383" font-weight="600" letter-spacing="0em"><tspan x="177" y="84.5183">100</tspan></text>
<text id="MAX" fill="#AA700D" xml:space="preserve" style="white-space: pre" font-family="Montserrat" font-size="9.81383" font-weight="600" letter-spacing="0em"><tspan x="165" y="175.518">MAX</tspan></text>
</g>
<text id="rot_dados" fill="#AA700D" xml:space="preserve" style="white-space: pre" font-family="Montserrat" font-size="30" font-weight="600" letter-spacing="0em"><tspan x="88" y="141.255">190%</tspan></text>
<text id="rot_catgoria" fill="#B7A2C3" xml:space="preserve" style="white-space: pre" font-family="Montserrat" font-size="13" font-weight="600" letter-spacing="0em"><tspan x="96" y="105.66">Meta (%)</tspan></text>
<path id="Contorno_interno" d="M176.607 123.441C177.545 115.782 176.799 108.01 174.421 100.669C172.043 93.3275 168.091 86.5941 162.841 80.939C157.59 75.284 151.169 70.8436 144.024 67.9282C136.879 65.0128 129.184 63.6927 121.476 64.0601C113.768 64.4276 106.234 66.4737 99.3987 70.0556C92.5638 73.6374 86.5934 78.6686 81.9049 84.7975C77.2163 90.9264 73.9226 98.0052 72.254 105.539C70.5853 113.073 70.582 120.881 72.2442 128.416L73.4596 128.148C71.8365 120.79 71.8397 113.166 73.4692 105.808C75.0986 98.4513 78.315 91.5387 82.8934 85.5538C87.4719 79.5688 93.302 74.6558 99.9765 71.158C106.651 67.6603 114.009 65.6622 121.535 65.3034C129.062 64.9445 136.577 66.2336 143.554 69.0806C150.531 71.9275 156.802 76.2636 161.929 81.7859C167.056 87.3082 170.915 93.8834 173.237 101.052C175.559 108.221 176.287 115.81 175.372 123.29L176.607 123.441Z" fill="url(#paint0_linear_3680_29)"/>
<path id="fundo" d="M44.4254 193.404C30.9351 177.965 22.1644 158.975 19.1573 138.694C16.1501 118.413 19.033 97.6952 27.4629 79.0057C35.8928 60.3163 49.5147 44.4422 66.7077 33.2726C83.9007 22.103 103.941 16.1082 124.443 16.0015C144.945 15.8947 165.047 21.6806 182.355 32.6707C199.664 43.6607 213.45 59.3921 222.074 77.9927C230.698 96.5934 233.796 117.28 231.001 137.591C228.205 157.902 219.632 176.983 206.303 192.561" stroke="#57336E" stroke-width="5"/>
<g id="progresso" filter="url(#filter0_d_3680_29)">
<path d="M44.4254 192.404C30.9351 176.965 22.1644 157.975 19.1573 137.694C16.1501 117.413 19.033 96.6952 27.4629 78.0057C35.8928 59.3163 49.5147 43.4422 66.7077 32.2726C83.9007 21.103 103.941 15.1082 124.443 15.0015C144.945 14.8947 165.047 20.6806 182.355 31.6707C199.664 42.6607 213.45 58.3921 222.074 76.9927C230.698 95.5934 233.796 116.28 231.001 136.591C228.205 156.902 219.632 175.983 206.303 191.561" stroke="#AA700D" stroke-width="5"/>
</g>
</g>
<defs>
<filter id="filter0_d_3680_29" x="8.5" y="5.5" width="233" height="195.551" filterUnits="userSpaceOnUse" color-interpolation-filters="sRGB">
<feFlood flood-opacity="0" result="BackgroundImageFix"/>
<feColorMatrix in="SourceAlpha" type="matrix" values="0 0 0 0 0 0 0 0 0 0 0 0 0 0 0 0 0 0 127 0" result="hardAlpha"/>
<feOffset/>
<feGaussianBlur stdDeviation="3.5"/>
<feComposite in2="hardAlpha" operator="out"/>
<feColorMatrix type="matrix" values="0 0 0 0 1 0 0 0 0 1 0 0 0 0 1 0 0 0 0.3 0"/>
<feBlend mode="normal" in2="BackgroundImageFix" result="effect1_dropShadow_3680_29"/>
<feBlend mode="normal" in="SourceGraphic" in2="effect1_dropShadow_3680_29" result="shape"/>
</filter>
<linearGradient id="paint0_linear_3680_29" x1="124" y1="64" x2="124" y2="166.5" gradientUnits="userSpaceOnUse">
<stop stop-color="#AA700D"/>
<stop offset="0.620269" stop-color="#AA700D" stop-opacity="0"/>
</linearGradient>
</defs>
</svg>
