<svg width="250" height="230" viewBox="0 0 250 230" fill="none" xmlns="http://www.w3.org/2000/svg">
<g id="velocimetro_2">
<g id="marcadores">
<path id="marcador" fill-rule="evenodd" clip-rule="evenodd" d="M127.451 38.1678L127.998 38.1487L127.3 18.1609L126.753 18.18L127.451 38.1678ZM122.906 29.2857L122.36 29.3334L123.156 38.4311L123.702 38.3833L122.906 29.2857ZM117.609 29.8739L118.152 29.7976L119.423 38.8412L118.88 38.9174L117.609 29.8739ZM113.432 30.5595L112.894 30.664L114.636 39.6287L115.174 39.5241L113.432 30.5595ZM108.226 31.6986L108.758 31.566L110.967 40.4272L110.435 40.5597L108.226 31.6986ZM104.143 32.8155L103.619 32.9757L106.289 41.7091L106.813 41.5489L104.143 32.8155ZM102.328 42.8092L101.811 42.9921L95.1349 24.1393L95.6514 23.9564L102.328 42.8092ZM95.1403 36.0311L94.6359 36.2452L98.2042 44.6516L98.7086 44.4375L95.1403 36.0311ZM90.2855 38.2286L90.778 37.9884L94.7814 46.1966L94.2889 46.4368L90.2855 38.2286ZM86.5236 40.1712L86.0444 40.4368L90.4719 48.4242L90.9511 48.1586L86.5236 40.1712ZM81.9248 42.8626L82.3894 42.5722L87.2289 50.317L86.7642 50.6073L81.9248 42.8626ZM78.3869 45.1882L77.938 45.5024L83.1762 52.9833L83.625 52.669L78.3869 45.1882ZM80.1186 55.2315L79.6839 55.5651L67.5087 39.698L67.9434 39.3645L80.1186 55.2315ZM70.8187 51.0273L70.4051 51.3868L76.3965 58.2791L76.8101 57.9196L70.8187 51.0273ZM66.8801 54.617L67.2743 54.2364L73.6182 60.8057L73.224 61.1863L66.8801 54.617ZM63.9027 57.6267L63.529 58.0274L70.2081 64.2557L70.5818 63.855L63.9027 57.6267ZM60.361 61.6073L60.7132 61.1875L67.7091 67.0577L67.3568 67.4775L60.361 61.6073ZM57.7143 64.9118L57.3845 65.3494L64.678 70.8454L65.0077 70.4078L57.7143 64.9118ZM62.7486 73.8579L62.4344 74.3067L46.0513 62.8352L46.3656 62.3864L62.7486 73.8579ZM52.3215 72.8046L52.0393 73.2743L59.8673 77.9778L60.1495 77.5081L52.3215 72.8046ZM49.6848 77.4356L49.9421 76.9518L58.0055 81.2392L57.7483 81.723L49.6848 77.4356ZM47.7831 81.218L47.5515 81.7146L55.8283 85.5742L56.0599 85.0776L47.7831 81.218ZM45.645 86.0989L45.8503 85.5909L54.3177 89.0119L54.1124 89.52L45.645 86.0989ZM44.1488 90.0596L43.9704 90.5777L52.6052 93.5509L52.7836 93.0328L44.1488 90.0596ZM51.4709 97.0905L51.3245 97.6185L32.0519 92.2737L32.1983 91.7457L51.4709 97.0905ZM41.4591 99.2333L41.3359 99.7672L50.2342 101.822L50.3575 101.288L41.4591 99.2333ZM40.3825 104.451L40.4777 103.912L49.4713 105.497L49.3762 106.037L40.3825 104.451ZM39.7427 108.636L39.6759 109.18L48.7403 110.293L48.8071 109.749L39.7427 108.636ZM39.2175 113.94L39.2558 113.394L48.3659 114.031L48.3277 114.577L39.2175 113.94ZM39.0184 118.169L39.0089 118.717L48.1399 118.876L48.1494 118.329L39.0184 118.169ZM39.0508 123.497L39.0316 122.95L48.1585 122.631L48.1776 123.179L39.0508 123.497ZM47.9813 127.585L47.9383 127.039L28 128.608L28.043 129.154L47.9813 127.585ZM39.884 133.02L39.8077 132.478L48.8513 131.207L48.9275 131.749L39.884 133.02ZM40.5685 137.198L40.673 137.736L49.6377 135.994L49.5331 135.456L40.5685 137.198ZM41.7078 142.404L41.5752 141.873L50.4364 139.663L50.5689 140.195L41.7078 142.404ZM42.8253 146.487L42.9856 147.011L51.7189 144.341L51.5587 143.817L42.8253 146.487ZM44.5026 151.546L44.3152 151.031L52.8968 147.907L53.0842 148.422L44.5026 151.546ZM54.6744 152.464L54.4647 151.958L35.9872 159.611L36.1968 160.118L54.6744 152.464ZM48.2378 160.344L47.9976 159.852L56.2058 155.849L56.446 156.341L48.2378 160.344ZM50.1797 164.105L50.4453 164.584L58.4327 160.157L58.1671 159.677L50.1797 164.105ZM52.872 168.705L52.5817 168.24L60.3264 163.4L60.6167 163.865L52.872 168.705ZM55.1967 172.242L55.511 172.691L62.9918 167.453L62.6775 167.004L55.1967 172.242ZM58.3548 176.535L58.0175 176.103L65.2139 170.481L65.5513 170.912L58.3548 176.535ZM53.8106 185.494L54.2425 185.991L71.882 170.657L71.4501 170.16L53.8106 185.494ZM202.284 64.0848L202.621 64.5166L195.425 70.139L195.087 69.7073L202.284 64.0848ZM199.602 60.8097L199.242 60.3961L192.35 66.3875L192.71 66.8011L199.602 60.8097ZM196.012 56.8716L196.393 57.2657L189.824 63.6097L189.443 63.2155L196.012 56.8716ZM193.003 53.8938L192.602 53.5201L186.374 60.1991L186.775 60.5728L193.003 53.8938ZM189.021 50.3523L189.441 50.7045L183.571 57.7003L183.151 57.3481L189.021 50.3523ZM179.784 54.6687L180.221 54.9985L192.257 39.0258L191.82 38.696L179.784 54.6687ZM181.387 44.5981L181.841 44.9045L176.735 52.4756L176.28 52.1692L181.387 44.5981ZM177.824 42.3118L177.355 42.0296L172.651 49.8576L173.121 50.1399L177.824 42.3118ZM173.193 39.6752L173.677 39.9324L169.39 47.9959L168.906 47.7386L173.193 39.6752ZM169.411 37.7735L168.915 37.5419L165.055 45.8187L165.552 46.0503L169.411 37.7735ZM164.53 35.6351L165.038 35.8404L161.617 44.3078L161.109 44.1026L164.53 35.6351ZM156.969 42.5498L157.482 42.7417L164.486 24.0083L163.973 23.8164L156.969 42.5498ZM155.527 32.4447L156.053 32.5957L153.536 41.3761L153.009 41.2251L155.527 32.4447ZM151.397 31.449L150.863 31.3258L148.808 40.2241L149.342 40.3474L151.397 31.449ZM146.178 30.3733L146.717 30.4685L145.132 39.4621L144.592 39.367L146.178 30.3733ZM141.993 29.7337L141.449 29.667L140.336 38.7313L140.88 38.7981L141.993 29.7337ZM136.69 29.2086L137.237 29.2468L136.599 38.357L136.053 38.3187L136.69 29.2086ZM132.461 29.0094L131.913 28.9999L131.754 38.1309L132.302 38.1405L132.461 29.0094Z" fill="#B7A2C3"/>
<path id="marcador_maximo" fill-rule="evenodd" clip-rule="evenodd" d="M214.008 64.4142L212.861 62.7759L197.899 73.2522L199.047 74.8905L214.008 64.4142ZM207.767 71.9154L208.827 73.6115L201.082 78.451L200.022 76.7549L207.767 71.9154ZM211.163 77.785L210.193 76.0357L202.206 80.4632L203.175 82.2125L211.163 77.785ZM212.401 80.2755L213.278 82.0731L205.07 86.0765L204.193 84.2789L212.401 80.2755ZM215.165 86.4687L214.384 84.6277L205.978 88.196L206.759 90.037L215.165 86.4687ZM216.136 89.0762L216.82 90.9556L208.239 94.079L207.555 92.1996L216.136 89.0762ZM218.238 95.5229L217.653 93.6103L208.92 96.2803L209.505 98.193L218.238 95.5229ZM218.931 98.2175L219.415 100.158L210.553 102.367L210.07 100.427L218.931 98.2175ZM220.347 104.849L219.966 102.885L211.001 104.628L211.383 106.591L220.347 104.849ZM220.755 107.6L221.033 109.58L211.99 110.851L211.711 108.871L220.755 107.6ZM221.47 114.344L221.296 112.351L212.198 113.147L212.373 115.14L221.47 114.344ZM221.588 117.123L221.658 119.121L212.531 119.44L212.461 117.441L221.588 117.123ZM221.595 123.904L221.63 121.905L212.499 121.745L212.464 123.745L221.595 123.904ZM221.421 126.681L221.281 128.677L212.171 128.039L212.311 126.044L221.421 126.681ZM220.719 133.425L220.963 131.44L211.898 130.327L211.655 132.312L220.719 133.425ZM220.256 136.169L219.909 138.138L210.915 136.553L211.262 134.583L220.256 136.169ZM218.853 142.803L219.303 140.855L210.405 138.8L209.955 140.749L218.853 142.803ZM218.106 145.483L217.555 147.406L208.776 144.888L209.327 142.966L218.106 145.483ZM216.017 151.933L216.668 150.042L208.033 147.069L207.382 148.96L216.017 151.933ZM214.994 154.521L214.245 156.375L205.777 152.954L206.526 151.1L214.994 154.521ZM212.242 160.718L213.087 158.905L204.81 155.046L203.965 156.858L212.242 160.718ZM210.954 163.184L210.015 164.95L201.952 160.663L202.89 158.897L210.954 163.184ZM207.569 169.06L208.599 167.346L200.771 162.642L199.741 164.356L207.569 169.06ZM206.031 171.379L204.912 173.037L197.341 167.93L198.459 166.272L206.031 171.379ZM202.05 176.868L203.254 175.271L195.961 169.775L194.757 171.372L202.05 176.868ZM205.459 186.789L206.784 185.291L190.709 171.069L189.383 172.567L205.459 186.789Z" fill="#AA9A0D"/>
</g>
<path id="contorno" d="M189.537 172.744C199.797 161.367 206.552 147.269 208.988 132.144C211.425 117.019 209.439 101.513 203.271 87.4896C197.102 73.4666 187.014 61.5245 174.218 53.0999C161.423 44.6754 146.466 40.1272 131.147 40.0026C115.827 39.878 100.798 44.1823 87.8677 52.3976C74.937 60.6129 64.6553 72.3893 58.2596 86.3101C51.8638 100.231 49.6265 115.703 51.8166 130.866C54.0068 146.028 60.5311 160.235 70.6049 171.776L71.9872 170.57C62.146 159.294 55.7722 145.416 53.6326 130.603C51.493 115.791 53.6788 100.676 59.9269 87.0761C66.175 73.4766 76.2194 61.972 88.8517 53.9463C101.484 45.9206 116.166 41.7157 131.132 41.8374C146.097 41.9591 160.709 46.4023 173.209 54.6324C185.709 62.8625 195.565 74.529 201.591 88.2284C207.617 101.928 209.557 117.076 207.177 131.852C204.796 146.628 198.198 160.401 188.174 171.515L189.537 172.744Z" fill="#AA9A0D"/>
<g id="numeros">
<text id="0" fill="#B7A2C3" xml:space="preserve" style="white-space: pre" font-family="Montserrat" font-size="15.015" font-weight="600" letter-spacing="0em"><tspan x="39" y="195.383">0</tspan></text>
<text id="20" fill="#B7A2C3" xml:space="preserve" style="white-space: pre" font-family="Montserrat" font-size="15.015" font-weight="600" letter-spacing="0em"><tspan x="6" y="136.383">20</tspan></text>
<text id="40" fill="#B7A2C3" xml:space="preserve" style="white-space: pre" font-family="Montserrat" font-size="15.015" font-weight="600" letter-spacing="0em"><tspan x="24" y="63.3829">40</tspan></text>
<text id="60" fill="#B7A2C3" xml:space="preserve" style="white-space: pre" font-family="Montserrat" font-size="15.015" font-weight="600" letter-spacing="0em"><tspan x="84" y="20.3829">60</tspan></text>
<text id="80" fill="#B7A2C3" xml:space="preserve" style="white-space: pre" font-family="Montserrat" font-size="15.015" font-weight="600" letter-spacing="0em"><tspan x="156" y="20.3829">80</tspan></text>
<text id="100" fill="#AA9A0D" xml:space="preserve" style="white-space: pre" font-family="Montserrat" font-size="15.015" font-weight="600" letter-spacing="0em"><tspan x="216" y="63.3829">100</tspan></text>
<text id="MAX" fill="#AA9A0D" xml:space="preserve" style="white-space: pre" font-family="Montserrat" font-size="15.015" font-weight="600" letter-spacing="0em"><tspan x="207" y="195.383">MAX</tspan></text>
</g>
<g id="ponteiro">
<circle id="circ_giro" cx="130.5" cy="119.496" r="76.5001" transform="rotate(0.71296 130.5 119.496)" fill="#D9D9D9" fill-opacity="0.2"/>
<circle id="circ_interno" cx="130.5" cy="119.496" r="23.5" transform="rotate(-130.787 130.5 119.496)" fill="#AA9A0D"/>
<path id="seta_1" d="M72.5206 169.403L143.541 87.5393L148.992 103.425L125.142 124.002L72.5206 169.403Z" fill="#7D6A88"/>
<path id="seta_2" d="M72.5206 169.403L163.907 111.144L148.992 103.425L125.142 124.002L72.5206 169.403Z" fill="#A993B5"/>
</g>
<text id="rot_dados" fill="#AA9A0D" xml:space="preserve" style="white-space: pre" font-family="Montserrat" font-size="30" font-weight="600" letter-spacing="0em"><tspan x="125.002" y="214.255">0%</tspan></text>
<text id="rot_catgoria" fill="#B7A2C3" xml:space="preserve" style="white-space: pre" font-family="Montserrat" font-size="13" font-weight="600" letter-spacing="0em"><tspan x="125.271" y="181.66">Meta (%)</tspan></text>
</g>
</svg>
