<svg width="363" height="300" viewBox="0 0 363 300" fill="none" xmlns="http://www.w3.org/2000/svg">
<g id="Novo Velocimetro">
<path id="Zona Excel" d="M286.116 273.12L284.481 275.012L263.979 257.29L265.613 255.398L286.116 273.12ZM278.6 260.999L277.025 262.94L266.502 254.407L268.076 252.466L278.6 260.999ZM281.234 257.654L279.722 259.645L268.936 251.446L270.448 249.456L281.234 257.654ZM283.762 254.227L282.312 256.263L271.273 248.407L272.723 246.37L283.762 254.227ZM286.178 250.729L284.793 252.811L273.514 245.306L274.898 243.225L286.178 250.729ZM288.487 247.149L287.168 249.273L275.658 242.126L276.977 240.002L288.487 247.149ZM290.682 243.502L289.43 245.666L277.701 238.884L278.952 236.72L290.682 243.502ZM292.758 239.787L291.574 241.989L279.639 235.579L280.821 233.377L292.758 239.787ZM294.719 236.014L293.606 238.252L281.475 232.22L282.588 229.981L294.719 236.014ZM296.561 232.174L295.518 234.446L283.203 228.798L284.245 226.525L296.561 232.174ZM298.28 228.284L297.311 230.588L284.824 225.329L285.795 223.025L298.28 228.284ZM299.877 224.336L298.979 226.67L286.334 221.806L287.231 219.473L299.877 224.336ZM301.346 220.347L300.522 222.707L287.73 218.243L288.555 215.883L301.346 220.347ZM302.692 216.301L301.943 218.687L289.018 214.626L289.767 212.241L302.692 216.301ZM303.912 212.223L303.238 214.63L290.191 210.978L290.865 208.57L303.912 212.223ZM305.001 208.111L304.403 210.538L291.248 207.298L291.846 204.87L305.001 208.111ZM305.959 203.968L305.438 206.413L292.188 203.587L292.709 201.142L305.959 203.968ZM306.789 199.793L306.345 202.253L293.012 199.845L293.456 197.385L306.789 199.793ZM307.489 195.587L307.122 198.06L293.719 196.071L294.086 193.599L307.489 195.587ZM308.053 191.373L307.764 193.856L294.307 192.29L294.595 189.807L308.053 191.373ZM308.484 187.137L308.273 189.628L294.773 188.485L294.983 185.994L308.484 187.137ZM308.782 182.895L308.65 185.391L295.121 184.673L295.253 182.177L308.782 182.895ZM308.948 178.646L308.895 181.146L295.35 180.853L295.403 178.354L308.948 178.646ZM309.004 176.884L295.457 177.017L295.432 174.517L308.979 174.384L309.004 176.884ZM308.981 172.63L295.445 173.188L295.342 170.69L308.879 170.133L308.981 172.63ZM308.824 168.377L295.312 169.36L295.131 166.867L308.644 165.884L308.824 168.377ZM308.535 164.125L295.061 165.532L294.801 163.046L308.275 161.639L308.535 164.125ZM308.109 159.89L294.686 161.72L294.348 159.242L307.771 157.413L308.109 159.89ZM307.553 155.673L294.193 157.923L293.777 155.458L307.138 153.207L307.553 155.673ZM306.862 151.473L293.58 154.142L293.087 151.69L306.37 149.021L306.862 151.473ZM306.042 147.291L292.85 150.376L292.28 147.941L305.473 144.856L306.042 147.291ZM305.093 143.144L292.004 146.642L291.358 144.227L304.447 140.729L305.093 143.144ZM304.01 139.023L291.037 142.931L290.315 140.537L303.288 136.63L304.01 139.023ZM302.8 134.946L289.957 139.259L289.161 136.889L302.004 132.576L302.8 134.946ZM301.461 130.904L288.76 135.618L287.89 133.274L300.591 128.561L301.461 130.904ZM299.998 126.906L287.451 132.017L286.508 129.701L299.055 124.591L299.998 126.906ZM310.791 117.448L286.026 128.454L285.011 126.17L309.775 115.164L310.791 117.448Z" fill="#C3C3C3"/>
<path id="Zona Interm" d="M296.697 119.057L284.495 124.945L283.408 122.693L295.61 116.806L296.697 119.057ZM294.861 115.216L282.85 121.484L281.693 119.269L293.705 112.999L294.861 115.216ZM292.91 111.432L281.102 118.074L279.876 115.896L291.684 109.252L292.91 111.432ZM290.838 107.712L279.245 114.723L277.951 112.583L289.544 105.573L290.838 107.712ZM288.651 104.062L277.284 111.434L275.923 109.336L287.292 101.965L288.651 104.062ZM286.348 100.479L275.217 108.203L273.792 106.149L284.922 98.4248L286.348 100.479ZM283.938 96.9727L273.055 105.043L271.566 103.035L282.449 94.9648L283.938 96.9727ZM281.417 93.541L270.793 101.949L269.242 99.9893L279.866 91.5811L281.417 93.541ZM278.789 90.1875L268.434 98.9258L266.822 97.0156L277.176 88.2773L278.789 90.1875ZM276.055 86.9297L265.981 95.9883L264.309 94.1289L274.384 85.0703L276.055 86.9297ZM273.225 83.75L263.44 93.1211L261.71 91.3154L271.496 81.9443L273.225 83.75ZM270.295 80.6582L260.809 90.332L259.024 88.582L268.51 78.9082L270.295 80.6582ZM267.266 77.666L258.088 87.6328L256.25 85.9395L265.426 75.9727L267.266 77.666ZM264.145 74.7734L255.286 85.0234L253.394 83.3887L262.254 73.1387L264.145 74.7734ZM260.938 71.9727L252.405 82.4961L250.463 80.9219L258.997 70.3984L260.938 71.9727ZM257.644 69.2764L249.446 80.0625L247.456 78.5498L255.654 67.7637L257.644 69.2764ZM254.264 66.6885L246.409 77.7266L244.372 76.2773L252.228 65.2383L254.264 66.6885ZM250.808 64.2051L243.303 75.4844L241.222 74.0996L248.727 62.8203L250.808 64.2051ZM247.275 61.8301L240.127 73.3398L238.003 72.0215L245.151 60.5107L247.275 61.8301ZM243.667 59.5723L236.885 71.3008L234.721 70.0498L241.503 58.3203L243.667 59.5723ZM239.991 57.4238L233.581 69.3594L231.378 68.1768L237.789 56.2402L239.991 57.4238ZM236.25 55.3877L230.217 67.5195L227.979 66.4062L234.011 54.2754L236.25 55.3877ZM232.446 53.4785L226.797 65.793L224.525 64.751L230.173 52.4355L232.446 53.4785ZM228.583 51.6934L223.325 64.1797L221.021 63.209L226.28 50.7236L228.583 51.6934ZM224.666 50.0107L219.801 62.6562L217.468 61.7588L222.332 49.1133L224.666 50.0107ZM220.699 48.4697L216.235 61.2617L213.875 60.4375L218.338 47.6465L220.699 48.4697ZM216.686 47.0469L212.625 59.9727L210.241 59.2236L214.3 46.2979L216.686 47.0469ZM212.629 45.7578L208.977 58.8047L206.57 58.1309L210.222 45.084L212.629 45.7578ZM208.536 44.5947L205.295 57.75L202.868 57.1523L206.109 43.9971L208.536 44.5947ZM204.409 43.5586L201.583 56.8086L199.137 56.2871L201.963 43.0371L204.409 43.5586ZM200.249 42.6514L197.84 55.9844L195.38 55.54L197.789 42.207L200.249 42.6514ZM196.063 41.8838L194.075 55.2852L191.602 54.918L193.59 41.5166L196.063 41.8838ZM191.854 41.2373L190.288 54.6953L187.804 54.4062L189.371 40.9492L191.854 41.2373ZM187.629 40.7305L186.487 54.2305L183.996 54.0195L185.138 40.5195L187.629 40.7305ZM183.386 40.3496L182.668 53.8789L180.172 53.7461L180.89 40.2168L183.386 40.3496ZM179.139 40.1074L178.846 53.6523L176.347 53.5986L176.64 40.0527L179.139 40.1074ZM175.015 53.5361L172.515 53.5605L172.25 26.4619L174.75 26.4375L175.015 53.5361Z" fill="#C3C3C3"/>
<path id="Zona M&#195;&#169;dia" d="M63.7939 122.193L62.752 124.466L38.1191 113.168L39.1611 110.896L63.7939 122.193ZM65.5264 118.779L64.4131 121.018L52.2822 114.985L53.3945 112.747L65.5264 118.779ZM67.3584 115.42L66.1758 117.622L54.2393 111.212L55.4229 109.01L67.3584 115.42ZM69.2998 112.115L68.0488 114.279L56.3193 107.497L57.5713 105.333L69.2998 112.115ZM71.3428 108.873L70.0244 110.997L58.5137 103.85L59.833 101.726L71.3428 108.873ZM73.4834 105.701L72.0986 107.782L60.8193 100.277L62.2041 98.1963L73.4834 105.701ZM75.7256 102.592L74.2764 104.629L63.2373 96.7725L64.6875 94.7363L75.7256 102.592ZM78.0654 99.5605L76.5527 101.551L65.7666 93.3525L67.2793 91.3623L78.0654 99.5605ZM80.4971 96.5996L78.9229 98.541L68.3994 90.0078L69.9736 88.0664L80.4971 96.5996ZM83.0205 93.709L81.3857 95.6006L71.1357 86.7402L72.7705 84.8496L83.0205 93.709ZM85.6338 90.9043L83.9404 92.7432L73.9736 83.5664L75.667 81.7266L85.6338 90.9043ZM88.333 88.1934L86.583 89.9785L76.9092 80.4922L78.6592 78.707L88.333 88.1934ZM91.1182 85.5527L89.3125 87.2822L79.9414 77.4971L81.7471 75.7676L91.1182 85.5527ZM93.9834 83.0059L92.124 84.6777L83.0654 74.6025L84.9248 72.9316L93.9834 83.0059ZM96.9287 80.5605L95.0186 82.1729L86.2803 71.8184L88.1904 70.2061L96.9287 80.5605ZM99.9502 78.209L97.9902 79.7607L89.582 69.1367L91.542 67.5859L99.9502 78.209ZM103.042 75.9434L101.034 77.4326L92.9639 66.5498L94.9717 65.0605L103.042 75.9434ZM106.204 73.7793L104.15 75.2051L96.4258 64.0742L98.4795 62.6484L106.204 73.7793ZM109.431 71.7168L107.333 73.0771L99.9619 61.709L102.06 60.3496L109.431 71.7168ZM112.722 69.748L110.582 71.042L103.572 59.4482L105.711 58.1543L112.722 69.748ZM116.073 67.8965L113.895 69.1221L107.251 57.3145L109.431 56.0889L116.073 67.8965ZM119.481 66.1465L117.266 67.3037L110.996 55.292L113.213 54.1357L119.481 66.1465ZM122.942 64.498L120.69 65.585L114.803 53.3828L117.054 52.2959L122.942 64.498ZM126.454 62.9668L124.17 63.9824L118.667 51.6016L120.952 50.5859L126.454 62.9668ZM130.013 61.5449L127.697 62.4883L122.587 49.9404L124.902 48.9971L130.013 61.5449ZM133.612 60.2324L131.269 61.1025L126.555 48.4004L128.898 47.5303L133.612 60.2324ZM137.253 59.0371L134.883 59.833L130.57 46.9893L132.94 46.1934L137.253 59.0371ZM140.931 57.959L138.537 58.6797L134.63 45.707L137.023 44.9863L140.931 57.959ZM144.636 56.9902L142.221 57.6357L138.723 44.5469L141.138 43.9014L144.636 56.9902ZM148.372 56.1465L145.938 56.7158L142.853 43.5234L145.287 42.9541L148.372 56.1465ZM152.134 55.4199L149.683 55.9121L147.014 42.6299L149.465 42.1367L152.134 55.4199ZM155.917 54.8027L153.452 55.2178L151.201 41.8574L153.667 41.4424L155.917 54.8027ZM159.718 54.3105L157.24 54.6484L155.411 41.2236L157.888 40.8867L159.718 54.3105ZM163.53 53.9434L161.044 54.2031L159.637 40.7275L162.123 40.4678L163.53 53.9434ZM167.353 53.6855L164.859 53.8672L163.876 40.3545L166.369 40.1729L167.353 53.6855ZM171.181 51.5605L168.683 51.6631L168.125 38.127L170.622 38.0234L171.181 51.5605Z" fill="#C3C3C3"/>
<path id="Zona Baixa" d="M82.6904 256.878L62.5391 274.997L60.8672 273.139L81.0186 255.019L82.6904 256.878ZM80.1777 253.983L69.8232 262.722L68.2109 260.812L78.5654 252.073L80.1777 253.983ZM77.7578 251.018L67.1338 259.426L65.583 257.466L76.2061 249.058L77.7578 251.018ZM75.4336 247.972L64.5508 256.042L63.0615 254.034L73.9443 245.964L75.4336 247.972ZM73.2061 244.854L62.0752 252.578L60.6494 250.524L71.7803 242.8L73.2061 244.854ZM71.0762 241.663L59.708 249.034L58.3486 246.937L69.7158 239.565L71.0762 241.663ZM69.0508 238.424L57.457 245.434L56.1631 243.295L67.7568 236.284L69.0508 238.424ZM67.125 235.104L55.3174 241.747L54.0918 239.567L65.8994 232.925L67.125 235.104ZM65.3047 231.734L53.293 238.004L52.1367 235.787L64.1475 229.519L65.3047 231.734ZM63.5938 228.31L51.3916 234.197L50.3047 231.946L62.5068 226.058L63.5938 228.31ZM61.9893 224.834L49.6084 230.337L48.5928 228.052L60.9736 222.55L61.9893 224.834ZM60.4932 221.303L47.9453 226.413L47.002 224.098L59.5498 218.987L60.4932 221.303ZM59.1113 217.737L46.4092 222.451L45.5391 220.107L58.2412 215.394L59.1113 217.737ZM57.8418 214.123L44.998 218.436L44.2021 216.065L57.0459 211.753L57.8418 214.123ZM56.6826 210.467L43.71 214.374L42.9893 211.98L55.9619 208.073L56.6826 210.467ZM55.6426 206.777L42.5537 210.275L41.9082 207.86L54.9971 204.362L55.6426 206.777ZM54.7188 203.055L41.5264 206.14L40.957 203.705L54.1494 200.62L54.7188 203.055ZM53.9111 199.313L40.6289 201.982L40.1357 199.531L53.4189 196.862L53.9111 199.313ZM53.2207 195.546L39.8604 197.797L39.4453 195.331L52.8057 193.081L53.2207 195.546ZM52.6533 191.762L39.2285 193.591L38.8916 191.114L52.3154 189.284L52.6533 191.762ZM52.2021 187.966L38.7266 189.373L38.4668 186.887L51.9424 185.479L52.2021 187.966ZM51.8721 184.137L38.3594 185.12L38.1777 182.627L51.6904 181.644L51.8721 184.137ZM51.6582 180.313L38.1221 180.871L38.0186 178.374L51.5557 177.815L51.6582 180.313ZM51.5684 176.479L38.0205 176.612L37.9961 174.112L51.5439 173.979L51.5684 176.479ZM51.6494 170.151L51.5957 172.65L38.0498 172.357L38.1045 169.858L51.6494 170.151ZM51.8799 166.331L51.7471 168.827L38.2178 168.109L38.3506 165.613L51.8799 166.331ZM52.2256 162.519L52.0146 165.01L38.5146 163.867L38.7256 161.376L52.2256 162.519ZM52.6924 158.714L52.4033 161.197L38.9463 159.631L39.2344 157.147L52.6924 158.714ZM53.2803 154.925L52.9131 157.397L39.5117 155.409L39.8789 152.937L53.2803 154.925ZM53.9873 151.159L53.543 153.619L40.21 151.211L40.6543 148.751L53.9873 151.159ZM54.8115 147.425L54.29 149.87L41.04 147.044L41.5615 144.599L54.8115 147.425ZM55.7529 143.706L55.1553 146.134L42 142.893L42.5977 140.466L55.7529 143.706ZM56.8096 140.026L56.1357 142.434L43.0889 138.781L43.7627 136.374L56.8096 140.026ZM57.9814 136.378L57.2324 138.763L44.3066 134.703L45.0557 132.317L57.9814 136.378ZM59.2686 132.769L58.4443 135.129L45.6533 130.665L46.4766 128.305L59.2686 132.769ZM62.1768 127.682L61.2061 129.985L60.4814 129.68L59.7695 131.531L47.124 126.668L48.0215 124.334L48.7637 124.619L49.6895 122.422L62.1768 127.682Z" fill="#C3C3C3"/>
<g id="Ponteiro">
<circle id="circGiro" cx="174.024" cy="174.969" r="120" fill="#B6B7CB" fill-opacity="0.01"/>
<path id="seta" d="M85.998 253.563L94.7 227.368C94.9415 226.641 95.8773 226.444 96.391 227.013L112.892 245.273C113.397 245.833 113.125 246.729 112.394 246.913L85.998 253.563Z" fill="#09093C"/>
</g>
<path id="circInterno" d="M233.267 246.759C233.726 247.305 234.54 247.376 235.08 246.911C249.428 234.524 259.751 218.12 264.705 199.803C269.772 181.07 268.98 161.235 262.436 142.966C255.893 124.697 243.911 108.87 228.104 97.6142C212.296 86.3582 193.421 80.2131 174.016 80.0054C154.612 79.7978 135.609 85.5377 119.565 96.4529C103.52 107.368 91.2025 122.935 84.2696 141.06C77.3367 159.185 76.1207 178.998 80.7852 197.835C85.3462 216.254 95.3158 232.875 109.396 245.566C109.925 246.043 110.741 245.989 111.211 245.453C111.681 244.918 111.627 244.103 111.098 243.626C97.4135 231.282 87.7241 215.122 83.2898 197.215C78.7521 178.89 79.935 159.614 86.6796 141.982C93.4242 124.349 105.407 109.205 121.016 98.5863C136.625 87.9675 155.111 82.3836 173.989 82.5856C192.866 82.7875 211.229 88.7657 226.607 99.716C241.985 110.666 253.641 126.063 260.007 143.836C266.373 161.609 267.143 180.905 262.214 199.129C257.398 216.937 247.365 232.887 233.42 244.935C232.881 245.4 232.809 246.214 233.267 246.759Z" fill="#09093C"/>
<text id="rotulo100" fill="#09093C" xml:space="preserve" style="white-space: pre" font-family="Roboto" font-size="18.0741" font-weight="600" letter-spacing="0em"><tspan x="284" y="290.678">MAX</tspan></text>
<text id="rotulo00" fill="#09093C" xml:space="preserve" style="white-space: pre" font-family="Roboto" font-size="18.0741" font-weight="600" letter-spacing="0em"><tspan x="163" y="21.6777">04</tspan></text>
<text id="rotulo100neg" fill="#09093C" xml:space="preserve" style="white-space: pre" font-family="Roboto" font-size="18.0741" font-weight="600" letter-spacing="0em"><tspan x="40" y="290.678">00</tspan></text>
<text id="rotulo50" fill="#09093C" xml:space="preserve" style="white-space: pre" font-family="Roboto" font-size="18.0741" font-weight="600" letter-spacing="0em"><tspan x="315" y="119.678">06</tspan></text>
<text id="rotulo50_2" fill="#09093C" xml:space="preserve" style="white-space: pre" font-family="Roboto" font-size="18.0741" font-weight="600" letter-spacing="0em"><tspan x="14" y="116.678">02</tspan></text>
<text id="rotCategoria" fill="#09093C" xml:space="preserve" style="white-space: pre" font-family="Roboto" font-size="18.0741" font-weight="600" letter-spacing="0em"><tspan x="174" y="214.678">Zona Excel&#xea;ncia</tspan></text>
<text id="rotDados" fill="#123064" xml:space="preserve" style="white-space: pre" font-family="Sansita One" font-size="40" letter-spacing="0em"><tspan x="174" y="166.48">4</tspan></text>
</g>
</svg>
