<svg width="250" height="215" viewBox="0 0 250 215" fill="none" xmlns="http://www.w3.org/2000/svg">
<g id="Frame 50" clip-path="url(#clip0_19131_226)">
<rect width="250" height="215" fill="#09124F"/>
<g id="Marcadores">
<path id="Marcadores_Maximo" fill-rule="evenodd" clip-rule="evenodd" d="M211.685 56.541L210.41 55L195 67.7485L196.275 69.2895L211.685 56.541ZM205.901 66.2227L207.077 67.8407L198.987 73.7185L197.811 72.1005L205.901 66.2227ZM210.504 73.1066L209.433 71.418L200.989 76.7762L202.061 78.4649L210.504 73.1066ZM212.631 76.8242L213.594 78.5768L204.831 83.3944L203.868 81.6418L212.631 76.8242ZM216.334 84.2315L215.482 82.4219L206.434 86.6797L207.286 88.4893L216.334 84.2315ZM217.978 88.1875L218.714 90.0471L209.416 93.7283L208.68 91.8687L217.978 88.1875ZM220.724 95.9998L220.106 94.0977L210.595 97.1878L211.213 99.0899L220.724 95.9998ZM221.858 100.133L222.356 102.07L212.67 104.557L212.173 102.62L221.858 100.133ZM223.603 108.226L223.229 106.262L213.406 108.136L213.78 110.1L223.603 108.226ZM224.211 112.465L224.462 114.449L214.541 115.702L214.29 113.718L224.211 112.465ZM224.928 120.719L224.803 118.723L214.823 119.351L214.948 121.347L224.928 120.719ZM225 125V127H215V125H225ZM224.677 133.273L224.803 131.277L214.823 130.649L214.697 132.645L224.677 133.273ZM224.211 137.535L223.961 139.519L214.04 138.266L214.29 136.282L224.211 137.535ZM222.854 145.703L223.229 143.738L213.406 141.864L213.031 143.829L222.854 145.703ZM221.858 149.867L221.361 151.804L211.675 149.317L212.173 147.38L221.858 149.867ZM219.488 157.804L220.106 155.902L210.595 152.812L209.977 154.714L219.488 157.804ZM217.978 161.812L217.241 163.672L207.944 159.991L208.68 158.131L217.978 161.812ZM214.631 169.388L215.482 167.578L206.434 163.32L205.583 165.13L214.631 169.388ZM212.631 173.176L211.667 174.928L202.904 170.111L203.868 168.358L212.631 173.176ZM208.361 180.271L209.433 178.582L200.989 173.224L199.918 174.912L208.361 180.271ZM205.901 183.777L204.726 185.395L196.636 179.518L197.811 177.899L205.901 183.777ZM209.685 195.75L208.41 197.291L193 184.543L194.275 183.002L209.685 195.75Z" fill="#08AE08"/>
<path id="Marcadores_Intermediarios" fill-rule="evenodd" clip-rule="evenodd" d="M153.911 21.4974L151.974 21L147 40.3717L148.937 40.869L153.911 21.4974ZM155.902 29.8945L157.804 30.5126L154.713 40.0231L152.811 39.4051L155.902 29.8945ZM163.672 32.7597L161.813 32.0234L158.131 41.3212L159.991 42.0575L163.672 32.7597ZM167.578 34.5156L169.388 35.3672L165.13 44.4155L163.32 43.5639L167.578 34.5156ZM174.928 38.3346L173.175 37.3711L168.358 46.1342L170.111 47.0977L174.928 38.3346ZM178.583 40.5664L180.272 41.6381L174.914 50.0813L173.225 49.0097L178.583 40.5664ZM185.397 45.2732L183.778 44.0977L177.901 52.1878L179.519 53.3634L185.397 45.2732ZM188.742 47.9492L190.283 49.2241L183.909 56.9292L182.368 55.6544L188.742 47.9492ZM194.913 53.4707L193.455 52.1016L186.609 59.3913L188.067 60.7603L194.913 53.4707ZM199.266 58.0048L197.897 56.5469L190.607 63.3923L191.977 64.8503L199.266 58.0048Z" fill="#ECDC4C"/>
<path id="Marcadores_Comuns" fill-rule="evenodd" clip-rule="evenodd" d="M127 25H125V35H127V25ZM120.717 25.0736L118.721 25.1992L119.349 35.1795L121.345 35.0539L120.717 25.0736ZM112.467 25.7891L114.451 25.5384L115.704 35.4595L113.72 35.7102L112.467 25.7891ZM108.226 26.3948L106.262 26.7695L108.136 36.5924L110.1 36.2176L108.226 26.3948ZM100.131 28.1406L102.068 27.6432L104.555 37.3291L102.618 37.8265L100.131 28.1406ZM96.0003 29.2765L94.0981 29.8945L97.1883 39.4051L99.0904 38.7871L96.0003 29.2765ZM88.1875 32.0234L90.0471 31.2872L93.7283 40.585L91.8687 41.3212L88.1875 32.0234ZM84.2315 33.6641L82.4219 34.5156L86.6797 43.5639L88.4893 42.7123L84.2315 33.6641ZM76.8247 37.3711L78.5773 36.4076L83.3949 45.1707L81.6422 46.1342L76.8247 37.3711ZM73.1061 39.4948L71.4175 40.5664L76.7757 49.0097L78.4644 47.938L73.1061 39.4948ZM66.2217 44.0977L67.8397 42.9221L73.7176 51.0123L72.0995 52.1878L66.2217 44.0977ZM62.7988 46.6744L61.2578 47.9492L67.632 55.6544L69.1731 54.3795L62.7988 46.6744ZM56.5454 52.1016L58.0033 50.7325L64.8488 58.0222L63.3909 59.3913L56.5454 52.1016ZM53.4721 55.0889L52.103 56.5469L59.3927 63.3923L60.7618 61.9344L53.4721 55.0889ZM47.9487 61.2578L49.2236 59.7168L56.9287 66.091L55.6539 67.6321L47.9487 61.2578ZM45.2737 64.6046L44.0981 66.2227L52.1883 72.1005L53.3639 70.4825L45.2737 64.6046ZM40.5674 71.418L41.639 69.7293L50.0823 75.0876L49.0107 76.7762L40.5674 71.418ZM38.3326 75.0716L37.3691 76.8242L46.1322 81.6418L47.0957 79.8891L38.3326 75.0716ZM34.5171 82.4219L35.3686 80.6122L44.4169 84.87L43.5654 86.6797L34.5171 82.4219ZM32.7587 86.3279L32.0225 88.1875L41.3202 91.8687L42.0565 90.0092L32.7587 86.3279ZM29.8945 94.0977L30.5126 92.1955L40.0231 95.2857L39.4051 97.1878L29.8945 94.0977ZM28.639 98.1956L28.1416 100.133L37.8274 102.62L38.3248 100.683L28.639 98.1956ZM26.7715 106.262L27.1462 104.297L36.9691 106.171L36.5944 108.136L26.7715 106.262ZM26.0392 110.481L25.7886 112.465L35.7097 113.718L35.9604 111.734L26.0392 110.481ZM25.1973 118.723L25.3228 116.727L35.3031 117.355L35.1775 119.351L25.1973 118.723ZM25 123V125H35V123H25ZM25.1973 131.277L25.0717 129.281L35.052 128.653L35.1775 130.649L25.1973 131.277ZM25.5379 135.551L25.7886 137.535L35.7097 136.282L35.4591 134.298L25.5379 135.551ZM26.7715 143.738L26.3967 141.774L36.2196 139.9L36.5944 141.864L26.7715 143.738ZM27.6442 147.93L28.1416 149.867L37.8274 147.38L37.3301 145.443L27.6442 147.93ZM29.8945 155.902L29.2765 154L38.7871 150.91L39.4051 152.812L29.8945 155.902ZM31.2862 159.953L32.0225 161.812L41.3202 158.131L40.584 156.272L31.2862 159.953ZM34.5171 167.578L33.6655 165.768L42.7138 161.511L43.5654 163.32L34.5171 167.578ZM36.4056 171.423L37.3691 173.176L46.1322 168.358L45.1687 166.606L36.4056 171.423ZM40.5674 178.582L39.4957 176.893L47.939 171.535L49.0107 173.224L40.5674 178.582ZM42.9226 182.159L44.0981 183.777L52.1883 177.899L51.0127 176.281L42.9226 182.159ZM40.2749 195.289L39.0001 193.748L54.4103 181L55.6852 182.541L40.2749 195.289ZM145.703 27.1443L143.738 26.7695L141.864 36.5924L143.829 36.9672L145.703 27.1443ZM137.533 25.7891L139.517 26.0397L138.264 35.9609L136.28 35.7102L137.533 25.7891ZM133.275 25.3248L131.279 25.1992L130.651 35.1795L132.647 35.3051L133.275 25.3248Z" fill="#F20808"/>
</g>
<g id="Ponteiro">
<ellipse id="circ.giro" cx="125.008" cy="122.984" rx="99.9999" ry="99" fill="#2C3577" fill-opacity="0.33"/>
<path id="Polygon 2" d="M60.3682 176.18L68.8576 148.517L75.7854 162.945L88.8801 172.08L60.3682 176.18Z" fill="#EB9C0A"/>
</g>
<text id="Rotulo_Categoria" fill="#F5F5F5" xml:space="preserve" style="white-space: pre" font-family="Inter" font-size="16" font-weight="bold" letter-spacing="0em"><tspan x="89" y="110.318">Meta (%)</tspan></text>
<text id="Rotulo_Dados" fill="#08AE08" xml:space="preserve" style="white-space: pre" font-family="Inter" font-size="24" font-weight="bold" letter-spacing="0em"><tspan x="92" y="137.227">100%</tspan></text>
<text id="MAX" fill="#08AE08" xml:space="preserve" style="white-space: pre" font-family="Inter" font-size="14" font-weight="bold" letter-spacing="0em"><tspan x="211" y="201.591">MAX</tspan></text>
<path id="Ellipse 107" d="M167.2 171.325C177.332 162.504 184.461 150.743 187.595 137.68C190.729 124.616 189.712 110.901 184.685 98.4427C179.658 85.9845 170.872 75.4038 159.55 68.1734C148.228 60.9431 134.933 57.423 121.516 58.1033C108.099 58.7836 95.2282 63.6303 84.6952 71.9688C74.1623 80.3073 66.4914 91.7225 62.7505 104.625C59.0097 117.528 59.385 131.276 63.8243 143.955C68.2636 156.635 76.5459 167.614 87.5181 175.366L90.56 171.06C80.4834 163.941 72.8771 153.857 68.8002 142.213C64.7233 130.569 64.3786 117.943 67.8141 106.093C71.2496 94.2437 78.2944 83.7602 87.9676 76.1024C97.6408 68.4445 109.461 63.9934 121.783 63.3686C134.104 62.7439 146.314 65.9766 156.712 72.6168C167.111 79.257 175.18 88.9741 179.796 100.415C184.413 111.857 185.347 124.453 182.468 136.45C179.59 148.447 173.043 159.248 163.738 167.349L167.2 171.325Z" fill="#EB9C0A"/>
<text id="100" fill="#F5F5F5" xml:space="preserve" style="white-space: pre" font-family="Inter" font-size="12" font-weight="bold" letter-spacing="0em"><tspan x="211" y="53.8636">100</tspan></text>
<text id="0" fill="#F5F5F5" xml:space="preserve" style="white-space: pre" font-family="Inter" font-size="12" font-weight="bold" letter-spacing="0em"><tspan x="28" y="199.864">0</tspan></text>
<text id="20" fill="#F5F5F5" xml:space="preserve" style="white-space: pre" font-family="Inter" font-size="12" font-weight="bold" letter-spacing="0em"><tspan x="7" y="133.864">20</tspan></text>
<text id="80" fill="#F5F5F5" xml:space="preserve" style="white-space: pre" font-family="Inter" font-size="12" font-weight="bold" letter-spacing="0em"><tspan x="144" y="19.8636">80</tspan></text>
<text id="60" fill="#F5F5F5" xml:space="preserve" style="white-space: pre" font-family="Inter" font-size="12" font-weight="bold" letter-spacing="0em"><tspan x="79" y="25.8636">60</tspan></text>
<text id="40" fill="#F5F5F5" xml:space="preserve" style="white-space: pre" font-family="Inter" font-size="12" font-weight="bold" letter-spacing="0em"><tspan x="23" y="69.8636">40</tspan></text>
</g>
<defs>
<clipPath id="clip0_19131_226">
<rect width="250" height="215" fill="white"/>
</clipPath>
</defs>
</svg>
