<svg width="210" height="115" viewBox="0 0 210 115" fill="none" xmlns="http://www.w3.org/2000/svg">
<g id="KPI">
<path id="caminhao" fill-rule="evenodd" clip-rule="evenodd" d="M172.105 63.0623C170.684 63.2429 169.594 63.6105 169.072 64.0855C168.449 64.6518 168.48 63.824 168.568 77.6697L168.649 90.3885L175.307 90.3815C182.868 90.3735 182.122 90.2866 183.762 91.3678C184.813 92.0614 186.883 94.0242 187.72 95.1214L188.282 95.8576L194.383 95.8295L200.484 95.8014L200.571 90.6268C200.664 85.0268 200.614 83.9895 200.156 82.1476C199.864 80.9697 199.488 80.1959 196.95 75.5488C194.04 70.2199 192.013 67.0737 190.516 65.5615C189.481 64.516 188.799 64.085 187.523 63.6684C185.734 63.0846 185.175 63.0424 178.751 63.006C175.485 62.9876 172.495 63.0129 172.105 63.0623ZM188.749 67.1515C189.532 67.3359 190.118 67.6119 190.614 68.029C190.984 68.3404 192.24 70.4049 195.119 75.4297L196.928 78.589L196.963 81.5848C196.997 84.5057 196.992 84.592 196.756 85.0333C196.304 85.8787 195.596 86.2238 194.504 86.1313C193.858 86.0766 191.167 85.3683 187.03 84.1642C185.921 83.8416 183.211 83.0542 181.006 82.4144C176.196 81.0186 175.977 80.9398 175.121 80.2931C174.28 79.6581 173.773 78.7458 173.626 77.6031C173.572 77.1867 173.527 74.6276 173.525 71.9164L173.521 66.9869L180.793 66.9885C186.83 66.9898 188.181 67.0175 188.749 67.1515ZM167.659 92.0385C167.523 92.2222 167.23 92.4862 167.008 92.6253C166.056 93.2207 167.224 93.1826 148.089 93.2413L130.337 93.2958L131.077 93.7286C133.355 95.0607 134.932 97.6943 135.141 100.514L135.207 101.413L145.404 101.385L155.601 101.357L155.63 98.5522L155.659 95.747H162.085H168.51V98.5794V101.412H169.478H170.446L170.524 100.676C170.812 97.9705 172.083 95.4549 173.868 94.0583C177.003 91.605 181.295 91.5482 184.906 93.9124L185.559 94.3406L185.123 93.9453C184.271 93.1723 182.986 92.5647 181.147 92.0653L180.112 91.7842L174.009 91.7444L167.906 91.7046L167.659 92.0385ZM125.232 93.0271C121.038 93.5259 117.744 97.238 117.744 101.466C117.744 106.963 123.032 111.089 128.348 109.74C129.298 109.499 130.866 108.711 131.632 108.09C134.93 105.413 135.739 100.609 133.496 97.0103C131.746 94.2022 128.501 92.6383 125.232 93.0271ZM178.533 93.0243C176.099 93.3162 173.776 94.7534 172.431 96.7994C169.048 101.945 172.047 108.807 178.144 109.87C179.931 110.182 181.55 109.935 183.277 109.087C186.263 107.621 188.01 104.808 188.01 101.466C188.01 98.5356 186.653 96.0175 184.19 94.3802C182.551 93.2903 180.471 92.7919 178.533 93.0243ZM111.046 94.358C111.005 94.9721 110.988 96.4387 111.008 97.6171L111.045 99.7598L111.376 100.232C111.558 100.491 111.972 100.863 112.297 101.058L112.887 101.412H114.514H116.142L116.066 102.883L115.989 104.353H116.594H117.2L117.206 102.746C117.21 101.863 117.25 100.467 117.297 99.6449C117.377 98.2289 117.402 98.1084 117.775 97.354C118.461 95.9645 119.857 94.3339 121.021 93.562L121.503 93.2423L116.311 93.2418L111.12 93.2413L111.046 94.358ZM156.2 99.8802C156.2 101.794 156.243 103.386 156.294 103.418C156.346 103.45 158.994 103.51 162.177 103.551L167.965 103.626V100.013V96.4006H162.083H156.2V99.8802ZM188.694 96.8636C188.724 96.9985 188.922 97.746 189.133 98.5249C189.345 99.3038 189.545 100.068 189.579 100.222C189.629 100.455 189.691 100.497 189.941 100.466C190.108 100.446 191.739 100.258 193.566 100.049C195.394 99.8404 197.048 99.6425 197.243 99.6096L197.597 99.5499V98.1557V96.7614L195.946 96.6899C195.037 96.6506 193.022 96.6185 191.466 96.6185H188.639L188.694 96.8636ZM198.586 96.9055C198.384 97.1615 198.36 97.3409 198.36 98.5669C198.361 99.3227 198.392 100.346 198.431 100.84L198.501 101.739H200.166C201.725 101.739 201.835 101.725 201.899 101.525C202.017 101.152 201.979 98.617 201.84 97.5984L201.706 96.6185H200.259C198.825 96.6185 198.809 96.6212 198.586 96.9055ZM128.041 97.6497C129.727 98.4743 130.735 100.414 130.403 102.195C130.14 103.609 129.29 104.726 127.988 105.367C127.335 105.688 127.198 105.715 126.189 105.714C125.233 105.714 125.02 105.677 124.471 105.421C123.201 104.827 122.234 103.581 121.981 102.213C121.692 100.652 122.444 98.8779 123.766 98.0017C124.674 97.4002 125.17 97.266 126.354 97.3013C127.243 97.3279 127.486 97.3782 128.041 97.6497ZM180.989 97.4827C182.176 97.8999 183.093 98.8051 183.578 100.04C183.891 100.837 183.879 102.229 183.551 103.077C183.211 103.955 182.313 104.902 181.385 105.359C180.714 105.689 180.583 105.715 179.568 105.715C178.552 105.715 178.422 105.689 177.75 105.359C176.824 104.903 175.924 103.956 175.583 103.077C175.265 102.261 175.235 100.949 175.516 100.143C175.942 98.916 176.916 97.9202 178.112 97.4901C178.904 97.2053 180.19 97.202 180.989 97.4827ZM126.172 98.5246C126.135 98.6227 126.154 98.7533 126.216 98.8148C126.393 98.9924 126.732 98.8727 126.732 98.6323C126.732 98.3553 126.271 98.2665 126.172 98.5246ZM179.554 98.5197C179.471 98.7364 179.594 98.9062 179.835 98.9062C180.049 98.9062 180.164 98.7192 180.087 98.4977C180.022 98.3099 179.629 98.3261 179.554 98.5197ZM123.972 99.3605C124.019 99.6885 124.444 99.7209 124.444 99.3964C124.444 99.2512 124.359 99.1666 124.19 99.1426C123.979 99.1127 123.942 99.1493 123.972 99.3605ZM177.353 99.3605C177.377 99.5297 177.461 99.6143 177.607 99.6143C177.931 99.6143 177.899 99.189 177.571 99.1426C177.359 99.1127 177.323 99.1493 177.353 99.3605ZM127.985 99.5054C127.985 99.7412 128.029 99.7867 128.23 99.7581C128.391 99.7352 128.475 99.6484 128.475 99.5054C128.475 99.3623 128.391 99.2755 128.23 99.2526C128.029 99.2241 127.985 99.2695 127.985 99.5054ZM181.335 99.3733C181.248 99.5984 181.417 99.8047 181.65 99.7598C181.94 99.704 181.919 99.2965 181.624 99.2545C181.497 99.2364 181.367 99.2898 181.335 99.3733ZM125.642 99.8325C124.101 100.378 124.2 102.578 125.788 103.053C127.025 103.424 128.217 102.242 127.877 100.982C127.732 100.443 127.227 99.9286 126.7 99.7822C126.198 99.6429 126.176 99.644 125.642 99.8325ZM178.859 99.9077C177.575 100.566 177.6 102.356 178.903 102.947C179.48 103.209 179.775 103.206 180.346 102.929C180.96 102.632 181.3 102.083 181.289 101.404C181.27 100.112 179.994 99.326 178.859 99.9077ZM192.967 101.016C189.261 101.441 189.093 101.47 189.917 101.536C190.609 101.592 194.982 101.65 197.189 101.633L197.597 101.63V101.085C197.597 100.419 198.101 100.426 192.967 101.016ZM123.05 101.154C122.921 101.283 122.965 101.603 123.12 101.662C123.339 101.747 123.545 101.576 123.5 101.346C123.46 101.136 123.185 101.019 123.05 101.154ZM176.43 101.154C176.301 101.283 176.345 101.603 176.5 101.662C176.719 101.747 176.925 101.576 176.881 101.346C176.84 101.136 176.565 101.019 176.43 101.154ZM128.961 101.581C128.845 101.72 128.852 101.781 129.002 101.931C129.171 102.1 129.195 102.1 129.364 101.931C129.514 101.781 129.521 101.72 129.405 101.581C129.328 101.488 129.228 101.412 129.183 101.412C129.138 101.412 129.038 101.488 128.961 101.581ZM182.344 101.577C182.224 101.721 182.23 101.779 182.381 101.93C182.593 102.142 182.825 101.99 182.764 101.678C182.713 101.415 182.518 101.368 182.344 101.577ZM123.736 103.536C123.736 103.772 123.78 103.817 123.981 103.789C124.142 103.766 124.226 103.679 124.226 103.536C124.226 103.393 124.142 103.306 123.981 103.283C123.78 103.255 123.736 103.3 123.736 103.536ZM177.086 103.404C177 103.629 177.168 103.836 177.402 103.791C177.691 103.735 177.67 103.327 177.375 103.285C177.248 103.267 177.118 103.321 177.086 103.404ZM127.98 103.651C127.864 103.79 127.871 103.851 128.021 104.001C128.19 104.17 128.215 104.17 128.384 104.001C128.534 103.851 128.541 103.79 128.425 103.651C128.348 103.558 128.248 103.482 128.203 103.482C128.157 103.482 128.057 103.558 127.98 103.651ZM181.36 103.651C181.245 103.79 181.252 103.851 181.402 104.001C181.571 104.17 181.595 104.17 181.764 104.001C181.914 103.851 181.921 103.79 181.805 103.651C181.728 103.558 181.628 103.482 181.583 103.482C181.538 103.482 181.438 103.558 181.36 103.651ZM125.666 104.385C125.58 104.61 125.749 104.816 125.982 104.771C126.272 104.715 126.25 104.308 125.956 104.266C125.829 104.248 125.698 104.301 125.666 104.385ZM179.033 104.337C178.911 104.534 179.099 104.801 179.336 104.767C179.653 104.722 179.65 104.31 179.333 104.265C179.204 104.247 179.069 104.279 179.033 104.337Z" fill="#02101B"/>
<rect id="barra" x="25" y="49" width="140" height="40" fill="#02101B"/>
<g id="marcador">
<path id="seta" d="M25 45L17.2058 31.5H32.7942L25 45Z" fill="#02101B"/>
<text id="rot_dados" fill="#02101B" xml:space="preserve" style="white-space: pre" font-family="Albert Sans" font-size="20.0215" font-weight="bold" letter-spacing="0.04em"><tspan x="5" y="28.0075">50%</tspan></text>
</g>
<text id="rot_cat" fill="#02101B" xml:space="preserve" style="white-space: pre" font-family="Albert Sans" font-size="15" font-weight="800" letter-spacing="0em"><tspan x="23" y="106.25">OTIF</tspan></text>
</g>
</svg>
