<svg width="381" height="307" viewBox="0 0 381 307" fill="none" xmlns="http://www.w3.org/2000/svg">
<g id="Respostas" clip-path="url(#clip0_15617_218)">
<g id="detrator">
<text id="rot_cagoria" fill="#09093C" xml:space="preserve" style="white-space: pre" font-family="Roboto" font-size="18" font-weight="600" letter-spacing="0em"><tspan x="17" y="296.652">Detratores</tspan></text>
<text id="qtde" fill="#09093C" xml:space="preserve" style="white-space: pre" font-family="Roboto" font-size="40" font-weight="600" letter-spacing="0em"><tspan x="36" y="273.172">50</tspan></text>
<text id="porcentagem" fill="#09093C" xml:space="preserve" style="white-space: pre" font-family="Roboto" font-size="23.2381" font-weight="600" letter-spacing="0em"><tspan x="61" y="158.443">25%</tspan></text>
<path id="iconePessoas" fill-rule="evenodd" clip-rule="evenodd" d="M55.3906 171.229C55.6658 171.192 55.9558 171.118 56.0351 171.065C56.1259 171.003 57.3319 170.984 59.3024 171.014C62.8109 171.067 63.2843 171.128 65.0181 171.751C70.7124 173.796 74.5741 177.654 76.3501 183.071C76.9404 184.871 76.9979 185.303 76.9979 187.933C76.9979 190.539 76.9055 191.22 76.3017 193.063C75.4521 195.657 74.1037 197.822 72.0481 199.892C70.6206 201.33 69.2952 202.273 67.3896 203.207C64.3373 204.703 63.2511 204.925 59.005 204.922C56.4394 204.921 55.9636 204.896 55.1333 204.718C53.3206 204.33 51.5528 203.593 49.5357 202.383C46.3051 200.445 43.6577 197.245 42.3026 193.64C41.3131 191.006 41.09 187.532 41.7116 184.431C42.3704 181.144 44.4302 177.702 47.1366 175.366C48.9122 173.833 49.8303 173.255 51.8824 172.378C53.2465 171.796 54.6909 171.322 55.3906 171.229ZM27.6279 174.393C29.3409 173.35 30.8312 172.779 32.7785 172.418C33.9142 172.207 36.9151 172.281 38.1329 172.551C39.8246 172.924 40.7105 173.285 42.7684 174.44C43.3182 174.748 43.3385 174.774 43.3385 175.168C43.3385 175.499 43.2571 175.679 42.906 176.127C42.0843 177.175 41.2312 178.568 40.5636 179.951C39.8645 181.399 39.8243 181.503 39.4319 182.876C38.2522 187.003 38.5084 191.338 40.1568 195.139C40.3657 195.62 40.6171 196.269 40.7155 196.582C40.8881 197.129 40.8881 197.156 40.7148 197.348C40.4733 197.615 39.7585 197.871 38.3303 198.203C37.2728 198.448 36.9495 198.479 35.4061 198.48C32.0425 198.484 29.8634 197.874 27.325 196.219C24.1733 194.164 21.989 190.798 21.515 187.266C21.3307 185.893 21.4577 183.248 21.7616 182.132C22.3834 179.848 23.3786 178.22 25.3385 176.282C26.3401 175.291 26.8699 174.854 27.6279 174.393ZM74.9689 175.332C74.9689 174.488 78.4948 172.782 81.098 172.366C81.9686 172.226 85.2933 172.325 86.2229 172.517C87.1127 172.701 88.8916 173.329 89.7925 173.777C91.5189 174.635 93.9732 176.786 94.9383 178.285C95.6607 179.407 96.3665 180.956 96.6235 181.983C96.8831 183.021 97.1795 184.918 97.1795 185.542C97.1795 186.125 96.6936 188.826 96.528 189.162C96.45 189.321 96.3863 189.531 96.3863 189.63C96.3863 189.911 95.2464 192.08 94.7511 192.742C94.1034 193.607 92.3943 195.303 91.4798 195.988C90.1958 196.949 88.3911 197.747 86.3221 198.266C85.5292 198.465 85.1975 198.489 83.3474 198.482C81.1576 198.473 80.7614 198.417 78.7662 197.833C77.4639 197.451 77.3904 197.168 78.1334 195.393C79.0949 193.096 79.5647 191.077 79.6902 188.7C79.804 186.544 79.4145 183.839 78.7088 181.886C78.0659 180.107 76.4232 177.201 75.3829 176.003C75.1552 175.741 74.9689 175.439 74.9689 175.332ZM26.401 202.905C27.3252 202.551 28.7465 202.199 29.5856 202.118C30.8225 201.999 38.1017 201.998 39.3303 202.118C42.1534 202.393 44.7415 203.261 46.4123 204.494C47.6475 205.406 48.8558 206.825 49.0426 207.585C49.138 207.973 48.7654 208.298 47.9367 208.551C45.2013 209.385 42.735 210.802 40.7939 212.655C39.6979 213.7 38.8115 214.865 38.0001 216.326C37.1816 217.8 35.648 221.731 34.3532 225.674L33.3241 228.807H17.6774V229C17.1108 228.966 16.9736 228.91 16.749 228.801C16.1744 228.522 15.421 227.868 15.2144 227.469C15.0138 227.081 14.9368 225.854 15.0577 224.967C15.2367 223.653 17.1636 216.865 18.3365 213.415C19.0492 211.319 19.7975 209.427 20.3482 208.329C21.6317 205.77 23.6508 203.96 26.401 202.905ZM101.85 228.807C102.101 228.684 102.584 228.33 102.925 228.022L103.545 227.461L103.502 225.867L103.459 224.273L102.546 221.199C100.703 214.993 99.0793 210.594 97.7382 208.172C96.17 205.341 94.0738 203.686 90.8776 202.756C88.7505 202.137 88.2372 202.092 83.05 202.059C80.4323 202.043 78.0005 202.065 77.646 202.11C76.1664 202.295 74.2354 202.918 72.9858 203.615C71.3184 204.544 69.1859 206.62 68.9554 207.538C68.8615 207.913 69.0042 208.246 69.3303 208.415C69.4997 208.502 70.2922 208.81 71.0916 209.098C74.7552 210.42 76.9621 212.025 78.9349 214.801C80.8227 217.458 82.1317 220.355 84.3295 226.74C84.6491 227.669 84.9373 228.48 85.0626 228.807H101.85ZM82.3591 228.807C81.6728 226.733 80.974 224.759 80.3596 223.198C77.8691 216.872 75.677 213.931 72.143 212.173C70.861 211.536 68.8039 210.847 67.1061 210.487C65.9526 210.242 65.6836 210.226 61.3351 210.141C56.1846 210.04 54.4276 210.043 52.3616 210.153C51.6692 210.189 51.2927 210.209 50.923 210.27C50.472 210.344 50.0312 210.48 49.0399 210.783C46.1094 211.681 44.6391 212.546 42.4609 214.653C41.2686 215.807 40.5911 216.771 39.8102 218.427C38.7396 220.697 38.1896 222.2 36.0324 228.807H82.3591Z" fill="#E11B63"/>
</g>
<g id="neutro">
<text id="rot_cagoria_2" fill="#09093C" xml:space="preserve" style="white-space: pre" font-family="Roboto" font-size="18" font-weight="600" letter-spacing="0em"><tspan x="156" y="296.652">Neutros</tspan></text>
<text id="qtde_2" fill="#09093C" xml:space="preserve" style="white-space: pre" font-family="Roboto" font-size="40" font-weight="600" letter-spacing="0em"><tspan x="165" y="273.172">50</tspan></text>
<text id="porcentagem_2" fill="#09093C" xml:space="preserve" style="white-space: pre" font-family="Roboto" font-size="23.2381" font-weight="600" letter-spacing="0em"><tspan x="190" y="158.443">25%</tspan></text>
<path id="iconePessoas_2" fill-rule="evenodd" clip-rule="evenodd" d="M184.391 171.229C184.666 171.192 184.956 171.118 185.035 171.065C185.126 171.003 186.332 170.984 188.302 171.014C191.811 171.067 192.284 171.128 194.018 171.751C199.712 173.796 203.574 177.654 205.35 183.071C205.94 184.871 205.998 185.303 205.998 187.933C205.998 190.539 205.905 191.22 205.302 193.063C204.452 195.657 203.104 197.822 201.048 199.892C199.621 201.33 198.295 202.273 196.39 203.207C193.337 204.703 192.251 204.925 188.005 204.922C185.439 204.921 184.964 204.896 184.133 204.718C182.321 204.33 180.553 203.593 178.536 202.383C175.305 200.445 172.658 197.245 171.303 193.64C170.313 191.006 170.09 187.532 170.712 184.431C171.37 181.144 173.43 177.702 176.137 175.366C177.912 173.833 178.83 173.255 180.882 172.378C182.247 171.796 183.691 171.322 184.391 171.229ZM156.628 174.393C158.341 173.35 159.831 172.779 161.779 172.418C162.914 172.207 165.915 172.281 167.133 172.551C168.825 172.924 169.711 173.285 171.768 174.44C172.318 174.748 172.339 174.774 172.339 175.168C172.339 175.499 172.257 175.679 171.906 176.127C171.084 177.175 170.231 178.568 169.564 179.951C168.865 181.399 168.824 181.503 168.432 182.876C167.252 187.003 167.508 191.338 169.157 195.139C169.366 195.62 169.617 196.269 169.715 196.582C169.888 197.129 169.888 197.156 169.715 197.348C169.473 197.615 168.759 197.871 167.33 198.203C166.273 198.448 165.949 198.479 164.406 198.48C161.043 198.484 158.863 197.874 156.325 196.219C153.173 194.164 150.989 190.798 150.515 187.266C150.331 185.893 150.458 183.248 150.762 182.132C151.383 179.848 152.379 178.22 154.338 176.282C155.34 175.291 155.87 174.854 156.628 174.393ZM203.969 175.332C203.969 174.488 207.495 172.782 210.098 172.366C210.969 172.226 214.293 172.325 215.223 172.517C216.113 172.701 217.892 173.329 218.792 173.777C220.519 174.635 222.973 176.786 223.938 178.285C224.661 179.407 225.367 180.956 225.623 181.983C225.883 183.021 226.18 184.918 226.18 185.542C226.18 186.125 225.694 188.826 225.528 189.162C225.45 189.321 225.386 189.531 225.386 189.63C225.386 189.911 224.246 192.08 223.751 192.742C223.103 193.607 221.394 195.303 220.48 195.988C219.196 196.949 217.391 197.747 215.322 198.266C214.529 198.465 214.197 198.489 212.347 198.482C210.158 198.473 209.761 198.417 207.766 197.833C206.464 197.451 206.39 197.168 207.133 195.393C208.095 193.096 208.565 191.077 208.69 188.7C208.804 186.544 208.414 183.839 207.709 181.886C207.066 180.107 205.423 177.201 204.383 176.003C204.155 175.741 203.969 175.439 203.969 175.332ZM155.401 202.905C156.325 202.551 157.747 202.199 158.586 202.118C159.823 201.999 167.102 201.998 168.33 202.118C171.153 202.393 173.741 203.261 175.412 204.494C176.647 205.406 177.856 206.825 178.043 207.585C178.138 207.973 177.765 208.298 176.937 208.551C174.201 209.385 171.735 210.802 169.794 212.655C168.698 213.7 167.812 214.865 167 216.326C166.182 217.8 164.648 221.731 163.353 225.674L162.324 228.807H146.677V229C146.111 228.966 145.974 228.91 145.749 228.801C145.174 228.522 144.421 227.868 144.214 227.469C144.014 227.081 143.937 225.854 144.058 224.967C144.237 223.653 146.164 216.865 147.336 213.415C148.049 211.319 148.798 209.427 149.348 208.329C150.632 205.77 152.651 203.96 155.401 202.905ZM230.85 228.807C231.101 228.684 231.584 228.33 231.925 228.022L232.545 227.461L232.502 225.867L232.459 224.273L231.546 221.199C229.703 214.993 228.079 210.594 226.738 208.172C225.17 205.341 223.074 203.686 219.878 202.756C217.75 202.137 217.237 202.092 212.05 202.059C209.432 202.043 207.001 202.065 206.646 202.11C205.166 202.295 203.235 202.918 201.986 203.615C200.318 204.544 198.186 206.62 197.955 207.538C197.862 207.913 198.004 208.246 198.33 208.415C198.5 208.502 199.292 208.81 200.092 209.098C203.755 210.42 205.962 212.025 207.935 214.801C209.823 217.458 211.132 220.355 213.329 226.74C213.649 227.669 213.937 228.48 214.063 228.807H230.85ZM211.359 228.807C210.673 226.733 209.974 224.759 209.36 223.198C206.869 216.872 204.677 213.931 201.143 212.173C199.861 211.536 197.804 210.847 196.106 210.487C194.953 210.242 194.684 210.226 190.335 210.141C185.185 210.04 183.428 210.043 181.362 210.153C180.669 210.189 180.293 210.209 179.923 210.27C179.472 210.344 179.031 210.48 178.04 210.783C175.109 211.681 173.639 212.546 171.461 214.653C170.269 215.807 169.591 216.771 168.81 218.427C167.74 220.697 167.19 222.2 165.032 228.807H211.359Z" fill="#E19E1B"/>
</g>
<g id="promotor">
<text id="rot_cagoria_3" fill="#09093C" xml:space="preserve" style="white-space: pre" font-family="Roboto" font-size="18" font-weight="600" letter-spacing="0em"><tspan x="269" y="296.652">Promotores</tspan></text>
<text id="qtde_3" fill="#09093C" xml:space="preserve" style="white-space: pre" font-family="Roboto" font-size="40" font-weight="600" letter-spacing="0em"><tspan x="294" y="273.172">50</tspan></text>
<text id="porcentagem_3" fill="#09093C" xml:space="preserve" style="white-space: pre" font-family="Roboto" font-size="23.2381" font-weight="600" letter-spacing="0em"><tspan x="319" y="158.443">25%</tspan></text>
<path id="iconePessoas_3" fill-rule="evenodd" clip-rule="evenodd" d="M313.391 171.229C313.666 171.192 313.956 171.118 314.035 171.065C314.126 171.003 315.332 170.984 317.302 171.014C320.811 171.067 321.284 171.128 323.018 171.751C328.712 173.796 332.574 177.654 334.35 183.071C334.94 184.871 334.998 185.303 334.998 187.933C334.998 190.539 334.905 191.22 334.302 193.063C333.452 195.657 332.104 197.822 330.048 199.892C328.621 201.33 327.295 202.273 325.39 203.207C322.337 204.703 321.251 204.925 317.005 204.922C314.439 204.921 313.964 204.896 313.133 204.718C311.321 204.33 309.553 203.593 307.536 202.383C304.305 200.445 301.658 197.245 300.303 193.64C299.313 191.006 299.09 187.532 299.712 184.431C300.37 181.144 302.43 177.702 305.137 175.366C306.912 173.833 307.83 173.255 309.882 172.378C311.247 171.796 312.691 171.322 313.391 171.229ZM285.628 174.393C287.341 173.35 288.831 172.779 290.779 172.418C291.914 172.207 294.915 172.281 296.133 172.551C297.825 172.924 298.711 173.285 300.768 174.44C301.318 174.748 301.339 174.774 301.339 175.168C301.339 175.499 301.257 175.679 300.906 176.127C300.084 177.175 299.231 178.568 298.564 179.951C297.865 181.399 297.824 181.503 297.432 182.876C296.252 187.003 296.508 191.338 298.157 195.139C298.366 195.62 298.617 196.269 298.715 196.582C298.888 197.129 298.888 197.156 298.715 197.348C298.473 197.615 297.759 197.871 296.33 198.203C295.273 198.448 294.949 198.479 293.406 198.48C290.043 198.484 287.863 197.874 285.325 196.219C282.173 194.164 279.989 190.798 279.515 187.266C279.331 185.893 279.458 183.248 279.762 182.132C280.383 179.848 281.379 178.22 283.338 176.282C284.34 175.291 284.87 174.854 285.628 174.393ZM332.969 175.332C332.969 174.488 336.495 172.782 339.098 172.366C339.969 172.226 343.293 172.325 344.223 172.517C345.113 172.701 346.892 173.329 347.792 173.777C349.519 174.635 351.973 176.786 352.938 178.285C353.661 179.407 354.367 180.956 354.623 181.983C354.883 183.021 355.18 184.918 355.18 185.542C355.18 186.125 354.694 188.826 354.528 189.162C354.45 189.321 354.386 189.531 354.386 189.63C354.386 189.911 353.246 192.08 352.751 192.742C352.103 193.607 350.394 195.303 349.48 195.988C348.196 196.949 346.391 197.747 344.322 198.266C343.529 198.465 343.197 198.489 341.347 198.482C339.158 198.473 338.761 198.417 336.766 197.833C335.464 197.451 335.39 197.168 336.133 195.393C337.095 193.096 337.565 191.077 337.69 188.7C337.804 186.544 337.414 183.839 336.709 181.886C336.066 180.107 334.423 177.201 333.383 176.003C333.155 175.741 332.969 175.439 332.969 175.332ZM284.401 202.905C285.325 202.551 286.747 202.199 287.586 202.118C288.823 201.999 296.102 201.998 297.33 202.118C300.153 202.393 302.741 203.261 304.412 204.494C305.647 205.406 306.856 206.825 307.043 207.585C307.138 207.973 306.765 208.298 305.937 208.551C303.201 209.385 300.735 210.802 298.794 212.655C297.698 213.7 296.812 214.865 296 216.326C295.182 217.8 293.648 221.731 292.353 225.674L291.324 228.807H275.677V229C275.111 228.966 274.974 228.91 274.749 228.801C274.174 228.522 273.421 227.868 273.214 227.469C273.014 227.081 272.937 225.854 273.058 224.967C273.237 223.653 275.164 216.865 276.336 213.415C277.049 211.319 277.798 209.427 278.348 208.329C279.632 205.77 281.651 203.96 284.401 202.905ZM359.85 228.807C360.101 228.684 360.584 228.33 360.925 228.022L361.545 227.461L361.502 225.867L361.459 224.273L360.546 221.199C358.703 214.993 357.079 210.594 355.738 208.172C354.17 205.341 352.074 203.686 348.878 202.756C346.75 202.137 346.237 202.092 341.05 202.059C338.432 202.043 336.001 202.065 335.646 202.11C334.166 202.295 332.235 202.918 330.986 203.615C329.318 204.544 327.186 206.62 326.955 207.538C326.862 207.913 327.004 208.246 327.33 208.415C327.5 208.502 328.292 208.81 329.092 209.098C332.755 210.42 334.962 212.025 336.935 214.801C338.823 217.458 340.132 220.355 342.329 226.74C342.649 227.669 342.937 228.48 343.063 228.807H359.85ZM340.359 228.807C339.673 226.733 338.974 224.759 338.36 223.198C335.869 216.872 333.677 213.931 330.143 212.173C328.861 211.536 326.804 210.847 325.106 210.487C323.953 210.242 323.684 210.226 319.335 210.141C314.185 210.04 312.428 210.043 310.362 210.153C309.669 210.189 309.293 210.209 308.923 210.27C308.472 210.344 308.031 210.48 307.04 210.783C304.109 211.681 302.639 212.546 300.461 214.653C299.269 215.807 298.591 216.771 297.81 218.427C296.74 220.697 296.19 222.2 294.032 228.807H340.359Z" fill="#1BE182"/>
</g>
<text id="rot_cagoria_4" fill="#09093C" xml:space="preserve" style="white-space: pre" font-family="Roboto" font-size="18" font-weight="600" letter-spacing="0em"><tspan x="127" y="60.6523">Qtde respostas</tspan></text>
<text id="qtde_4" fill="#09093C" xml:space="preserve" style="white-space: pre" font-family="Roboto" font-size="40" font-weight="600" letter-spacing="0em"><tspan x="149" y="37.1719">150</tspan></text>
<path id="Vector 40" d="M58 120V106.862C58 95.8167 66.9543 86.8624 78 86.8624H168.522C172.422 86.8624 176.237 85.722 179.498 83.5816L186.782 78.7995C187.508 78.323 188.458 78.3693 189.134 78.914L193.507 82.4366C197.062 85.3006 201.489 86.8624 206.054 86.8624H298C309.046 86.8624 318 95.8167 318 106.862V120" stroke="#09093C" stroke-width="1.5"/>
</g>
<defs>
<clipPath id="clip0_15617_218">
<rect width="381" height="307" fill="white"/>
</clipPath>
</defs>
</svg>
