<svg width="363" height="300" viewBox="0 0 363 300" fill="none" xmlns="http://www.w3.org/2000/svg">
<g id="Velocimetro">
<path id="marcZonExce" fill-rule="evenodd" clip-rule="evenodd" d="M294.086 193.598L293.719 196.071L320.525 200.048L320.892 197.575L294.086 193.598ZM293.012 199.84L293.456 197.38L306.789 199.788L306.344 202.248L293.012 199.84ZM292.709 201.137L292.188 203.582L305.438 206.408L305.959 203.963L292.709 201.137ZM291.248 207.293L291.846 204.866L305.001 208.106L304.403 210.534L291.248 207.293ZM290.865 208.569L290.191 210.977L303.238 214.629L303.912 212.221L290.865 208.569ZM289.018 214.625L289.767 212.24L302.692 216.3L301.943 218.685L289.018 214.625ZM288.554 215.878L287.73 218.238L300.522 222.703L301.346 220.342L288.554 215.878ZM286.334 221.805L287.231 219.471L299.877 224.335L298.979 226.669L286.334 221.805ZM285.795 223.02L284.824 225.324L297.31 230.583L298.281 228.279L285.795 223.02ZM283.203 228.797L284.245 226.524L296.56 232.173L295.518 234.445L283.203 228.797ZM282.588 229.98L281.475 232.219L293.606 238.251L294.719 236.013L282.588 229.98ZM279.639 235.578L280.822 233.376L292.757 239.786L291.575 241.988L279.639 235.578ZM278.953 236.719L277.701 238.883L289.43 245.665L290.681 243.501L278.953 236.719ZM275.658 242.125L276.977 240.001L288.487 247.149L287.168 249.272L275.658 242.125ZM274.899 243.219L273.514 245.301L284.793 252.806L286.178 250.725L274.899 243.219ZM271.273 248.406L272.723 246.369L283.761 254.225L282.312 256.262L271.273 248.406ZM270.448 249.451L268.936 251.441L279.722 259.64L281.235 257.65L270.448 249.451ZM266.502 254.402L268.077 252.461L278.6 260.994L277.025 262.936L266.502 254.402ZM263.979 257.289L265.613 255.398L286.116 273.119L284.481 275.011L263.979 257.289Z" fill="#C0C5D5"/>
<path id="marcZonQual" fill-rule="evenodd" clip-rule="evenodd" d="M285.011 126.17L286.027 128.454L310.791 117.449L309.776 115.164L285.011 126.17ZM287.451 132.02L286.508 129.704L299.055 124.594L299.998 126.909L287.451 132.02ZM287.889 133.273L288.759 135.617L301.461 130.903L300.591 128.559L287.889 133.273ZM289.957 139.258L289.161 136.888L302.004 132.575L302.8 134.945L289.957 139.258ZM290.316 140.536L291.037 142.93L304.009 139.023L303.288 136.629L290.316 140.536ZM292.003 146.645L291.358 144.229L304.447 140.732L305.093 143.147L292.003 146.645ZM292.28 147.945L292.849 150.379L306.042 147.294L305.472 144.86L292.28 147.945ZM293.58 154.141L293.087 151.69L306.37 149.021L306.862 151.472L293.58 154.141ZM293.778 155.457L294.193 157.922L307.553 155.671L307.138 153.206L293.778 155.457ZM294.685 161.723L294.347 159.246L307.772 157.416L308.109 159.893L294.685 161.723ZM294.8 163.045L295.06 165.531L308.535 164.124L308.276 161.638L294.8 163.045ZM295.312 169.359L295.131 166.866L308.643 165.883L308.825 168.376L295.312 169.359ZM295.342 170.69L295.445 173.188L308.982 172.629L308.879 170.131L295.342 170.69ZM295.457 177.02L295.432 174.52L308.98 174.387L309.004 176.887L295.457 177.02ZM295.403 178.352L295.349 180.852L308.894 181.144L308.948 178.645L295.403 178.352ZM295.121 184.672L295.253 182.175L308.782 182.894L308.65 185.39L295.121 184.672ZM294.984 185.997L294.773 188.488L308.273 189.631L308.484 187.14L294.984 185.997ZM294.595 189.806L294.306 192.289L307.764 193.855L308.053 191.372L294.595 189.806Z" fill="#C0C5D5"/>
<path id="marcZonAperf" fill-rule="evenodd" clip-rule="evenodd" d="M175.015 53.5401L172.515 53.5646L172.25 26.4659L174.749 26.4414L175.015 53.5401ZM178.846 53.6562L176.347 53.6022L176.64 40.057L179.139 40.111L178.846 53.6562ZM283.408 122.698L284.495 124.949L296.696 119.061L295.61 116.809L283.408 122.698ZM282.85 121.488L281.693 119.272L293.704 113.003L294.861 115.219L282.85 121.488ZM279.876 115.899L281.102 118.078L292.91 111.435L291.684 109.256L279.876 115.899ZM279.245 114.727L277.951 112.587L289.545 105.577L290.838 107.716L279.245 114.727ZM275.924 109.34L277.284 111.438L288.651 104.066L287.291 101.969L275.924 109.34ZM275.217 108.207L273.792 106.153L284.922 98.4285L286.348 100.482L275.217 108.207ZM271.566 103.039L273.055 105.047L283.938 96.9764L282.448 94.9683L271.566 103.039ZM270.793 101.953L269.242 99.9928L279.865 91.5845L281.417 93.5448L270.793 101.953ZM266.822 97.0191L268.434 98.9297L278.788 90.1918L277.176 88.2812L266.822 97.0191ZM265.981 95.9922L264.309 94.1332L274.384 85.0744L276.055 86.9334L265.981 95.9922ZM261.711 91.3194L263.44 93.125L273.225 83.7542L271.496 81.9486L261.711 91.3194ZM260.809 90.3359L259.024 88.5856L268.51 78.912L270.295 80.6624L260.809 90.3359ZM256.249 85.9433L258.088 87.6367L267.266 77.67L265.427 75.9766L256.249 85.9433ZM255.286 85.0273L253.394 83.3925L262.254 73.1425L264.145 74.7773L255.286 85.0273ZM250.463 80.9254L252.405 82.5L260.938 71.9767L258.996 70.4021L250.463 80.9254ZM249.446 80.0664L247.455 78.5536L255.654 67.7674L257.644 69.2803L249.446 80.0664ZM244.372 76.2809L246.409 77.7305L254.264 66.6921L252.228 65.2425L244.372 76.2809ZM243.303 75.4883L241.222 74.1034L248.727 62.8237L250.808 64.2086L243.303 75.4883ZM238.004 72.0249L240.127 73.3438L247.275 61.8339L245.151 60.5151L238.004 72.0249ZM236.885 71.3047L234.721 70.0532L241.503 58.3246L243.667 59.576L236.885 71.3047ZM231.378 68.1804L233.581 69.3633L239.991 57.4274L237.788 56.2445L231.378 68.1804ZM230.217 67.5234L227.979 66.4103L234.011 54.279L236.25 55.3921L230.217 67.5234ZM224.525 64.7546L226.797 65.7969L232.446 53.482L230.173 52.4398L224.525 64.7546ZM223.325 64.1836L221.021 63.2132L226.279 50.7271L228.583 51.6974L223.325 64.1836ZM217.468 61.7627L219.801 62.6602L224.665 50.015L222.332 49.1175L217.468 61.7627ZM216.235 61.2656L213.874 60.4419L218.339 47.6501L220.699 48.4739L216.235 61.2656ZM210.24 59.2273L212.625 59.9766L216.686 47.0509L214.301 46.3017L210.24 59.2273ZM208.977 58.8086L206.57 58.1347L210.222 45.0879L212.629 45.7618L208.977 58.8086ZM202.868 57.1559L205.295 57.7539L208.536 44.5988L206.109 44.0008L202.868 57.1559ZM201.583 56.8125L199.138 56.2911L201.963 43.0407L204.408 43.5621L201.583 56.8125ZM195.38 55.5439L197.84 55.9883L200.249 42.6557L197.788 42.2113L195.38 55.5439ZM194.075 55.2891L191.602 54.9222L193.59 41.5205L196.063 41.8874L194.075 55.2891ZM187.804 54.4102L190.288 54.6992L191.854 41.2417L189.371 40.9527L187.804 54.4102ZM186.487 54.2344L183.996 54.0235L185.139 40.5234L187.63 40.7343L186.487 54.2344ZM180.172 53.7503L182.668 53.8828L183.387 40.3535L180.89 40.221L180.172 53.7503Z" fill="#C0C5D5"/>
<path id="marcZonCrit" fill-rule="evenodd" clip-rule="evenodd" d="M171.181 53.5564L168.683 53.6594L168.124 40.1225L170.622 40.0195L171.181 53.5564ZM167.352 53.6892L164.859 53.8706L163.876 40.358L166.369 40.1766L167.352 53.6892ZM161.044 54.2028L163.53 53.9431L162.123 40.468L159.637 40.7276L161.044 54.2028ZM159.718 54.3142L157.241 54.6518L155.411 41.2276L157.888 40.89L159.718 54.3142ZM153.452 55.2177L155.917 54.8025L153.666 41.4423L151.201 41.8576L153.452 55.2177ZM152.134 55.4197L149.683 55.9122L147.014 42.6293L149.465 42.1368L152.134 55.4197ZM145.938 56.7155L148.372 56.1462L145.287 42.9537L142.853 43.523L145.938 56.7155ZM144.636 56.9939L142.22 57.6393L138.723 44.5502L141.138 43.9048L144.636 56.9939ZM138.537 58.6836L140.931 57.9626L137.023 44.9899L134.63 45.7108L138.537 58.6836ZM137.253 59.0369L134.883 59.8327L130.57 46.989L132.94 46.1932L137.253 59.0369ZM131.268 61.1059L133.612 60.2361L128.898 47.5342L126.554 48.4041L131.268 61.1059ZM130.013 61.5447L127.697 62.4877L122.587 49.9402L124.902 48.9972L130.013 61.5447ZM124.169 63.9818L126.454 62.9666L120.952 50.5858L118.667 51.6011L124.169 63.9818ZM122.942 64.5017L120.691 65.5883L114.802 53.3864L117.054 52.2999L122.942 64.5017ZM117.265 67.3069L119.481 66.1501L113.213 54.1393L110.996 55.296L117.265 67.3069ZM116.073 67.8962L113.894 69.122L107.251 57.314L109.43 56.0882L116.073 67.8962ZM110.582 71.0453L112.722 69.7517L105.711 58.1582L103.572 59.4518L110.582 71.0453ZM109.431 71.7166L107.333 73.0767L99.9617 61.7091L102.059 60.3489L109.431 71.7166ZM104.15 75.2044L106.204 73.7791L98.4793 62.6486L96.4254 64.074L104.15 75.2044ZM103.042 75.947L101.034 77.4362L92.9633 66.5539L94.9713 65.0647L103.042 75.947ZM97.9898 79.7603L99.9501 78.2087L91.5417 67.5853L89.5814 69.1368L97.9898 79.7603ZM96.9286 80.5603L95.018 82.1727L86.2801 71.8186L88.1907 70.2062L96.9286 80.5603ZM92.1243 84.6811L93.9833 83.0095L84.9244 72.935L83.0655 74.6066L92.1243 84.6811ZM91.118 85.5564L89.3125 87.2855L79.9417 77.5005L81.7472 75.7714L91.118 85.5564ZM86.5825 89.9781L88.3329 88.1931L78.6594 78.7073L76.909 80.4923L86.5825 89.9781ZM85.6337 90.9041L83.9402 92.7431L73.9735 83.5658L75.667 81.7267L85.6337 90.9041ZM81.3855 95.6001L83.0204 93.7087L72.7703 84.849L71.1355 86.7404L81.3855 95.6001ZM80.4969 96.5994L78.9223 98.5412L68.399 90.0078L69.9736 88.066L80.4969 96.5994ZM76.5525 101.551L78.0653 99.5603L67.2792 91.3617L65.7663 93.352L76.5525 101.551ZM75.7255 102.592L74.2759 104.628L63.2375 96.7726L64.6871 94.7358L75.7255 102.592ZM72.0984 107.782L73.4833 105.701L62.2036 98.1957L60.8187 100.277L72.0984 107.782ZM71.3426 108.877L70.0238 111.001L58.514 103.853L59.8328 101.73L71.3426 108.877ZM68.0482 114.279L69.2997 112.115L57.571 105.333L56.3196 107.497L68.0482 114.279ZM67.3583 115.424L66.1754 117.626L54.2395 111.216L55.4224 109.013L67.3583 115.424ZM64.4131 121.021L65.5262 118.783L53.3949 112.751L52.2818 114.989L64.4131 121.021ZM63.7938 122.197L62.7516 124.469L50.4367 118.821L51.479 116.549L63.7938 122.197ZM61.2063 127.981L62.1766 125.677L49.6904 120.419L48.7201 122.723L61.2063 127.981ZM60.6669 129.197L59.7694 131.53L47.1242 126.667L48.0217 124.333L60.6669 129.197ZM58.4447 135.124L59.2684 132.763L46.4767 128.299L45.6529 130.66L58.4447 135.124ZM57.9813 136.377L57.2321 138.762L44.3064 134.702L45.0557 132.316L57.9813 136.377ZM56.1355 142.433L56.8094 140.025L43.7626 136.373L43.0887 138.78L56.1355 142.433ZM55.7528 143.705L55.1548 146.132L41.9997 142.892L42.5977 140.464L55.7528 143.705ZM54.29 149.865L54.8114 147.42L41.561 144.594L41.0396 147.039L54.29 149.865ZM53.9872 151.154L53.5428 153.614L40.2102 151.206L40.6546 148.746L53.9872 151.154ZM52.9133 157.393L53.2801 154.92L39.8785 152.931L39.5116 155.404L52.9133 157.393ZM52.6923 158.709L52.4032 161.192L38.9457 159.626L39.2347 157.142L52.6923 158.709ZM52.0146 165.005L52.2255 162.513L38.7254 161.371L38.5145 163.862L52.0146 165.005ZM51.8798 166.326L51.7472 168.822L38.2179 168.104L38.3504 165.608L51.8798 166.326ZM51.5952 172.65L51.6493 170.15L38.1041 169.857L38.05 172.357L51.5952 172.65ZM51.5438 173.978L51.5683 176.478L38.0206 176.611L37.9961 174.111L51.5438 173.978ZM51.6585 180.308L51.5555 177.81L38.0187 178.368L38.1217 180.866L51.6585 180.308ZM51.6903 181.642L51.8717 184.136L38.3591 185.119L38.1776 182.625L51.6903 181.642ZM52.2019 187.961L51.9423 185.474L38.4671 186.881L38.7268 189.368L52.2019 187.961ZM52.3153 189.283L52.6529 191.76L39.2287 193.59L38.891 191.113L52.3153 189.283ZM53.2208 195.545L52.8055 193.08L39.4454 195.33L39.8606 197.796L53.2208 195.545ZM53.4188 196.861L53.9113 199.312L40.6284 201.981L40.1359 199.53L53.4188 196.861ZM54.7185 203.053L54.1493 200.619L40.9568 203.704L41.526 206.138L54.7185 203.053ZM54.9969 204.357L55.6424 206.772L42.5533 210.27L41.9078 207.855L54.9969 204.357ZM56.6827 210.462L55.9618 208.068L42.989 211.975L43.71 214.369L56.6827 210.462ZM57.0458 211.748L57.8416 214.118L44.9979 218.43L44.2021 216.06L57.0458 211.748ZM59.1109 217.732L58.2411 215.388L45.5392 220.102L46.4091 222.446L59.1109 217.732ZM59.5497 218.986L60.4927 221.301L47.9452 226.412L47.0022 224.097L59.5497 218.986ZM61.9888 224.833L60.9735 222.549L48.5927 228.051L49.608 230.335L61.9888 224.833ZM62.5067 226.056L63.5933 228.308L51.3914 234.196L50.3049 231.945L62.5067 226.056ZM65.3041 231.734L64.1473 229.517L52.1365 235.786L53.2932 238.002L65.3041 231.734ZM65.8993 232.924L67.1251 235.102L55.317 241.745L54.0913 239.567L65.8993 232.924ZM69.0503 238.418L67.7567 236.279L56.1632 243.29L57.4568 245.429L69.0503 238.418ZM69.7157 239.564L71.0759 241.662L59.7083 249.033L58.3481 246.935L69.7157 239.564ZM73.2055 244.849L71.7801 242.795L60.6497 250.519L62.0751 252.573L73.2055 244.849ZM73.9442 245.959L75.4334 247.967L64.5511 256.037L63.0619 254.029L73.9442 245.959ZM77.7575 251.013L76.2059 249.052L65.5825 257.461L67.134 259.421L77.7575 251.013ZM78.5653 252.072L80.1776 253.983L69.8235 262.721L68.2112 260.81L78.5653 252.072ZM82.69 256.872L81.0184 255.013L60.8669 273.133L62.5385 274.992L82.69 256.872Z" fill="#C0C5D5"/>
<g id="ponteiro">
<circle id="circGiro" cx="173.023" cy="174.961" r="120" fill="#B6B7CB" fill-opacity="0.8"/>
<path id="seta" d="M173.523 56.9609L187.167 80.9558C187.546 81.6218 187.066 82.4488 186.3 82.4501L161.688 82.4938C160.934 82.4952 160.45 81.6932 160.803 81.0265L173.523 56.9609Z" fill="#09093C"/>
</g>
<path id="circInterno" d="M233.267 246.759C233.726 247.305 234.54 247.376 235.08 246.911C249.428 234.524 259.751 218.12 264.705 199.803C269.772 181.07 268.98 161.235 262.436 142.966C255.893 124.697 243.911 108.87 228.104 97.6142C212.296 86.3582 193.421 80.2131 174.016 80.0054C154.612 79.7978 135.609 85.5377 119.565 96.4529C103.52 107.368 91.2025 122.935 84.2696 141.06C77.3367 159.185 76.1207 178.998 80.7852 197.835C85.3462 216.254 95.3158 232.875 109.396 245.566C109.925 246.043 110.741 245.989 111.211 245.453C111.681 244.918 111.627 244.103 111.098 243.626C97.4135 231.282 87.7241 215.122 83.2898 197.215C78.7521 178.89 79.935 159.614 86.6796 141.982C93.4242 124.349 105.407 109.205 121.016 98.5863C136.625 87.9675 155.111 82.3836 173.989 82.5856C192.866 82.7875 211.229 88.7657 226.607 99.716C241.985 110.666 253.641 126.063 260.007 143.836C266.373 161.609 267.143 180.905 262.214 199.129C257.398 216.937 247.365 232.887 233.42 244.935C232.881 245.4 232.809 246.214 233.267 246.759Z" fill="#09093C"/>
<text id="rotulo100" fill="#09093C" xml:space="preserve" style="white-space: pre" font-family="Roboto" font-size="18.0741" font-weight="600" letter-spacing="0em"><tspan x="284" y="290.678">100</tspan></text>
<text id="rotulo00" fill="#09093C" xml:space="preserve" style="white-space: pre" font-family="Roboto" font-size="18.0741" font-weight="600" letter-spacing="0em"><tspan x="163" y="21.6777">00</tspan></text>
<text id="rotulo100neg" fill="#09093C" xml:space="preserve" style="white-space: pre" font-family="Roboto" font-size="18.0741" font-weight="600" letter-spacing="0em"><tspan x="25" y="290.678">-100</tspan></text>
<text id="rotulo50" fill="#09093C" xml:space="preserve" style="white-space: pre" font-family="Roboto" font-size="18.0741" font-weight="600" letter-spacing="0em"><tspan x="315" y="119.678">50</tspan></text>
<text id="rotulo75" fill="#09093C" xml:space="preserve" style="white-space: pre" font-family="Roboto" font-size="18.0741" font-weight="600" letter-spacing="0em"><tspan x="326" y="203.678">75</tspan></text>
<text id="rotCategoria" fill="#09093C" xml:space="preserve" style="white-space: pre" font-family="Roboto" font-size="18.0741" font-weight="600" letter-spacing="0em"><tspan x="174" y="214.678">Zona Qualidade</tspan></text>
<text id="rotNPS" fill="#09093C" xml:space="preserve" style="white-space: pre" font-family="Roboto" font-size="18.0741" font-weight="600" letter-spacing="0em"><tspan x="174" y="257.678">NPS</tspan></text>
<text id="rotDados" fill="#09093C" xml:space="preserve" style="white-space: pre" font-family="Roboto" font-size="60.2469" font-weight="600" letter-spacing="0em"><tspan x="174" y="186.092">75</tspan></text>
</g>
</svg>
