<svg width="275" height="330" viewBox="0 0 275 330" fill="none" xmlns="http://www.w3.org/2000/svg">
<g id="Genero">
<g id="masculino">
<text id="mascRotDados" fill="#09093C" xml:space="preserve" style="white-space: pre" font-family="Roboto" font-size="25" font-weight="600" letter-spacing="0em"><tspan x="120" y="105.045">40%</tspan></text>
<path id="iconMasc" fill-rule="evenodd" clip-rule="evenodd" d="M56.9994 37.1623C53.3728 37.635 50.7425 38.5276 48.2775 40.123C47.5096 40.6202 46.3448 41.3313 45.6893 41.7036C44.1703 42.5663 42.248 44.618 41.4138 46.2676C39.9725 49.1173 38.8821 54.3735 38.8703 58.5281C38.8661 59.9244 38.7573 60.4106 38.3594 60.8086C37.5029 61.6655 37.2492 62.3817 37.1094 64.3362C36.8682 67.7109 38.3426 72.4963 39.899 73.3899C40.3946 73.6744 41.0167 74.6756 42.0075 76.7836C43.8827 80.7726 45.6223 83.3641 48.2723 86.1168C52.2085 90.2054 55.6498 91.902 59.9986 91.8983C64.1083 91.8949 67.4053 90.3364 71.2204 86.5943C73.8627 84.0025 76.6704 79.8797 78.1664 76.3948C78.7808 74.9635 79.5075 73.7577 80.1057 73.1767C82.5165 70.8349 83.6017 63.5022 81.8466 61.4154C81.322 60.7918 81.1814 60.1358 80.8169 56.6054C79.7456 46.2318 77.7934 43.2143 69.4222 38.9919C66.2989 37.4165 61.0178 36.6388 56.9994 37.1623ZM43.9127 93.9551C40.3331 96.543 36.1735 98.1628 29.4191 99.5991C26.898 100.135 24.2078 100.809 23.4409 101.096C21.4737 101.832 19.3504 103.854 18.3567 105.937C16.9199 108.949 16 114.839 16 121.03C16 123.809 16.0633 124.215 16.6946 125.482C18.9136 129.937 28.4126 133.39 43.5957 135.261C49.2166 135.954 63.7643 136.234 70.2895 135.775C88.0222 134.529 100.606 130.546 103.132 125.381L103.859 123.895L103.697 119.245C103.376 110.044 102.152 105.657 99.1386 102.902C97.3825 101.296 95.9464 100.75 90.4538 99.601C83.7031 98.1886 80.107 96.8162 76.0817 94.1158C75.0883 93.4495 74.2026 92.9072 74.1135 92.9108C74.0241 92.9145 71.9405 97.2439 69.4832 102.532C67.0258 107.82 64.932 112.198 64.8305 112.261C64.6479 112.374 62.5185 106.037 62.5185 105.381C62.5185 105.194 62.6917 104.706 62.9033 104.297C63.1151 103.887 63.6702 102.577 64.1372 101.385C64.8219 99.6367 64.9372 99.0775 64.7335 98.498C64.3073 97.285 63.5527 97.0904 59.5886 97.1701C55.6164 97.2502 54.8969 97.5242 54.8969 98.9581C54.8969 99.6044 55.8624 102.188 56.936 104.412C57.335 105.239 57.3124 105.396 56.3452 108.488C55.7923 110.256 55.2498 111.878 55.1397 112.092C54.9286 112.502 54.4989 111.637 48.84 99.4185C47.1842 95.8434 45.7114 92.9253 45.5669 92.9337C45.4223 92.9424 44.678 93.402 43.9127 93.9551Z" fill="#09093C"/>
<text id="mascRotCat" fill="#09093C" xml:space="preserve" style="white-space: pre" font-family="Roboto" font-size="17" font-weight="600" letter-spacing="0em"><tspan x="120" y="126.811">Qtde clientes: 952</tspan></text>
</g>
<g id="feminino">
<text id="femRotDados" fill="#09093C" xml:space="preserve" style="white-space: pre" font-family="Roboto" font-size="25" font-weight="600" letter-spacing="0em"><tspan x="120" y="256.045">40%</tspan></text>
<text id="femRotCat" fill="#09093C" xml:space="preserve" style="white-space: pre" font-family="Roboto" font-size="17" font-weight="600" letter-spacing="0em"><tspan x="120" y="277.811">Qtde clientes: 350</tspan></text>
<path id="iconFem" fill-rule="evenodd" clip-rule="evenodd" d="M55.7022 179.103C52.8809 179.4 48.252 181.118 45.6891 182.819C44.2145 183.798 42.038 185.998 41.0016 187.558C38.3587 191.535 36.7856 196.851 36.4029 203.097C36.3403 204.12 36.239 207.196 36.1779 209.933C36.0126 217.33 35.8684 219.205 35.232 222.232C34.0883 227.673 32.0108 231.273 29.1773 232.726C28.6065 233.019 28.1178 233.277 28.0913 233.3C28.0647 233.323 28.3108 233.616 28.6381 233.95C29.901 235.241 32.796 236.898 35.303 237.766C38.4708 238.863 41.4897 239.367 45.8821 239.53C46.9853 239.571 47.9111 239.642 47.9393 239.688C47.9676 239.733 48.0455 241.461 48.1127 243.526L48.2348 247.281L51.2918 257.889C56.6835 276.599 59.1817 285.447 59.1228 285.624C59.1028 285.684 58.7134 285.202 58.2576 284.552C55.3546 280.416 47.2452 268.666 44.9227 265.231C44.2367 264.217 43.6157 263.364 43.5429 263.336C43.3984 263.28 41.5988 263.481 38.5292 263.893C35.4104 264.313 35.303 264.322 35.303 264.163C35.303 263.936 36.0352 262.037 39.1502 254.186C40.7697 250.103 42.0795 246.748 42.0611 246.73C42.0426 246.711 41.5357 246.996 40.9346 247.362C39.4094 248.292 37.526 249.086 34.5921 250.037C33.2086 250.486 31.0231 251.195 29.7354 251.614C24.747 253.236 21.3668 254.819 19.4256 256.443C17.9836 257.65 16.5501 260.318 16.152 262.537C16.0476 263.12 16.0042 264.466 16.0024 267.175L16 270.993L17.3124 271.961C22.3882 275.704 27.5929 278.663 32.9885 280.873C39.5788 283.573 45.6716 285.061 53.5669 285.897C55.6893 286.121 58.8811 286.162 59.2183 285.969C59.4665 285.827 59.709 285.123 61.919 278.122C63.7333 272.374 71.3015 247.928 71.4666 247.281C71.5927 246.787 71.6482 245.754 71.6908 243.098C71.7417 239.932 71.7659 239.571 71.926 239.571C72.6445 239.57 76.7644 239.193 78.0101 239.014C82.0884 238.428 86.1786 237.166 88.4919 235.78C89.2664 235.316 90.7866 234.157 91.1886 233.723C91.4594 233.431 91.4599 233.427 91.2432 233.267C91.1229 233.178 90.68 232.924 90.259 232.704C88.6958 231.885 86.7067 229.524 85.6145 227.191C84.0311 223.808 83.5655 219.748 84.0244 213.323C84.7638 202.973 83.9448 196.157 81.281 190.489C80.4901 188.806 79.9081 187.974 78.646 186.72C77.2858 185.369 76.5104 184.783 75.2759 184.175C73.8563 183.476 72.8878 183.259 70.5732 183.122C68.3565 182.991 68.3981 183.005 67.0189 181.989C65.2208 180.665 64.4613 180.256 62.8081 179.718C60.8384 179.078 58.1527 178.845 55.7022 179.103ZM76.8617 246.791C76.8617 246.86 78.0379 249.877 79.4756 253.496C82.8718 262.046 83.6174 264.057 83.4527 264.222C83.4183 264.256 83.213 264.26 82.9967 264.23C82.7803 264.2 81.0466 263.954 79.1438 263.684C77.241 263.414 75.6565 263.194 75.6227 263.194C75.4306 263.194 65.2967 277.705 61.1221 283.958C60.1956 285.346 59.8165 286.001 59.895 286.08C60.0263 286.211 63.5871 286.035 66.1439 285.771C70.9757 285.272 75.6346 284.324 80.088 282.935C87.5925 280.594 95.14 276.735 101.442 272.017L103 270.85V267.674C103 262.978 102.815 261.735 101.8 259.639C100.64 257.242 99.1111 255.813 96.1106 254.324C93.4503 253.003 91.1398 252.129 87.0489 250.896C81.3359 249.174 80.0892 248.659 76.9437 246.717C76.8986 246.689 76.8617 246.723 76.8617 246.791Z" fill="#F62671"/>
</g>
</g>
</svg>
