<svg width="365" height="365" viewBox="0 0 365 365" fill="none" xmlns="http://www.w3.org/2000/svg">
<g id="MapaBrasil">
<path id="Sul" d="M238.502 279.86L242.135 280.667L236.081 286.318V292.371V300.04L232.852 312.551L227.202 319.815V321.833L221.148 333.134L216.305 343.224L210.251 348.067L205.408 360.578L199.354 362.999V357.349L202.583 353.717V348.067L199.354 350.892L188.054 340.802H184.825L173.928 334.345H167.471V331.116L183.614 308.111L192.09 300.847V292.371L189.668 289.143L183.614 286.318V283.089L187.247 279.053V268.963L194.915 258.066H201.776L209.04 260.892H219.13L224.78 265.735L230.027 275.017H233.659L238.502 279.86Z" fill="#1BE182" stroke="#F1F1F1" stroke-width="1.61435"/>
<path id="Sudeste" d="M264.333 185.825L259.894 188.65L253.84 186.229L251.822 191.475L248.19 194.3V199.547L244.961 203.179L248.19 210.04L242.539 216.901H230.028L221.553 220.534L216.306 225.78V231.027L204.602 249.189L194.916 258.067H201.777L209.042 260.893H219.131L224.782 265.736L230.028 275.018H233.661L238.504 279.861L242.136 280.668L261.508 266.139L267.562 263.718L278.862 261.7H294.602L296.62 255.242L303.078 252.014V248.785L305.903 245.96L311.957 234.256L313.571 222.955L316.396 216.901L313.167 213.673V211.251L310.746 209.233L313.167 202.776L315.589 199.951V197.126L308.324 194.3H304.692L298.235 189.457H294.199L287.338 185.825H281.284L276.037 183H266.755L264.333 185.825Z" fill="#1BE182" stroke="#F1F1F1" stroke-width="1.61435"/>
<path id="CentroOeste" d="M244.557 172.508L256.261 174.93L259.49 180.58V189.055L253.032 186.634L251.014 191.88L247.382 194.705V199.952L244.153 203.584L247.382 210.445L241.732 217.306H229.22L220.745 220.939L215.498 226.589V231.432L204.198 248.786L194.108 258.472L186.844 269.369L186.44 272.598H180.386L177.157 269.369L173.929 261.298L171.507 258.069H160.207L156.574 254.437V237.486L160.207 231.432V226.589L156.574 222.553V216.499L152.539 214.078L148.906 208.831V205.602H141.642L128.323 202.777V197.127L125.095 191.88L128.323 189.459L125.095 180.176L131.552 169.279L131.148 157.575H130.745L117.023 155.961L116.619 141.028L118.233 135.782H142.852V130.131L145.678 123.674V119.234L152.135 126.499L156.574 135.378L163.435 138.607L214.691 140.625L211.866 149.504V157.979L214.691 166.454L211.866 174.526L215.498 174.122L221.149 172.508H226.395L235.678 177.755L239.31 174.526L244.557 172.508Z" fill="#1BE182" stroke="#F1F1F1" stroke-width="1.61435"/>
<path id="Nordeste" d="M252.629 66.7696L252.226 57.8906L260.701 61.5229L263.526 64.7516L269.984 67.9803V73.227L273.212 67.9803L278.459 70.8055L284.916 72.4198L294.199 75.6485H312.764L322.047 78.4736L328.504 84.9311H330.926L339.805 89.3705L347.876 92.5992H354.334L356.755 95.4244L359.984 107.936L362.809 114.393V122.465L359.984 130.133L351.105 143.451L345.858 146.277L340.612 156.77L337.383 160.402L330.926 172.106L329.715 172.913L328.504 170.492L325.679 174.931L326.083 193.496L322.854 200.357V209.64L316.396 217.308L313.168 214.079V211.658L310.746 209.64L313.168 203.183L315.589 200.357V197.532L308.325 194.707H304.692L298.235 189.864H294.199L287.338 186.232H281.284L276.038 183.407H266.755L264.333 186.232L259.49 189.057V180.985L255.858 174.528V163.227L253.033 155.155L255.858 149.505L258.683 146.277V142.644H255.454L249.401 137.801L246.979 131.747L252.629 123.676V121.254L249.804 118.429L245.768 120.85L241.732 118.429L240.118 114.393L238.504 109.146L241.329 104.707V101.478L238.504 98.2495H232.854L235.679 95.0208L241.329 92.5992L246.979 86.949L248.19 83.3167L252.629 66.7696Z" fill="#1BE182" stroke="#F1F1F1" stroke-width="1.61435"/>
<path id="Norte" d="M119.444 177.35L123.884 179.368L124.691 179.772L131.148 168.875L130.745 157.171H130.341L116.619 155.557L116.216 140.624L117.83 135.377H142.449V129.727L145.274 123.269V118.83L151.731 126.095L156.171 134.973L163.032 138.202L214.288 140.22L211.462 149.099V157.574L214.288 166.05L211.462 174.122L215.095 173.718L220.745 172.104H225.992L235.274 177.35L238.907 174.122L244.153 172.104L255.857 174.525V163.225L253.032 155.153L255.857 149.503L258.682 146.274V142.642H255.454L249.4 137.799L246.978 131.745L252.629 123.673V121.251L249.803 118.426L245.768 120.848L241.732 118.426L240.117 114.39L238.503 109.144L241.328 104.704V101.476L238.503 98.2469H232.853L235.678 95.0182L241.328 92.5967L246.978 86.9464L248.189 83.3141L252.629 66.767L252.225 57.8881L249.803 55.0629L238.503 53.4486L235.274 58.2916L229.624 63.9419L227.202 67.1706L223.974 78.0675V69.9957L211.462 67.1706L206.619 61.5204V59.5024L208.637 50.6235L217.92 41.3409V38.9194L214.691 36.4979L210.655 28.0225L208.637 21.1615V13.4933H206.619L198.144 24.3902L189.669 30.0404H179.983L171.507 27.2153H163.032L160.207 30.0404L162.225 30.8476L159.4 32.8656H151.731L146.081 34.8835L130.745 38.5158L127.112 34.8835L124.691 24.3902L127.92 16.722L124.691 11.0718H121.462V5.01794L116.216 3V8.24665L104.108 13.8969L100.879 19.9507L99.2649 17.1256L96.8433 16.722L83.5249 13.8969L81.507 17.1256L86.7536 19.9507L87.1572 25.1974L89.9823 30.8476L96.4397 33.6727V36.4979L87.1572 41.3409L81.507 47.7983L69.3993 50.2199L64.1526 46.5876L61.3275 41.3409L58.0988 38.1122L48.4127 38.5158L34.6907 41.3409V44.5696L41.1481 47.3947L40.7445 50.2199H34.6907L31.462 53.8522L34.6907 64.7491L40.7445 70.3993L34.6907 98.2469H31.462L16.5292 104.704L12.8969 108.337L8.86101 115.601V118.426L2 126.095V134.166L11.2825 145.87L14.1077 151.117H16.5292L20.1615 153.942H26.2153L31.462 147.888V155.557L34.6907 158.382H50.027L62.1347 155.557L68.5921 151.117L69.8029 152.731L75.4531 149.099H78.2783L81.507 152.731V160.803L86.35 168.875L102.494 173.718L119.444 177.35Z" fill="#1BE182" stroke="#F1F1F1" stroke-width="1.61435"/>
</g>
</svg>
