<svg width="166" height="44" viewBox="0 0 166 44" fill="none" xmlns="http://www.w3.org/2000/svg">
<rect x="7.72681" width="9.29064" height="33.3251" rx="3.58815" transform="rotate(1.47701 7.72681 0)" fill="url(#paint0_linear_3388_134)"/>
<rect x="13.3684" y="8.42883" width="9.29064" height="25.0443" rx="3.58815" transform="rotate(1.47701 13.3684 8.42883)" fill="url(#paint1_linear_3388_134)"/>
<rect x="21.2937" y="14.4923" width="9.29064" height="19.1872" rx="3.58815" transform="rotate(1.47701 21.2937 14.4923)" fill="url(#paint2_linear_3388_134)"/>
<g filter="url(#filter0_d_3388_134)">
<path d="M30.9069 33.0482L31.5691 31.5251L9.97712 21.3926L9.3143 22.914L30.9069 33.0482Z" fill="url(#paint3_linear_3388_134)"/>
<path d="M27.1214 30.3555C27.3624 29.8025 27.712 29.7164 27.712 29.7164L31.5384 31.5105C31.3615 31.537 31.1158 31.7903 30.9556 32.1547C30.7971 32.5185 30.7769 32.879 30.8745 33.0344L27.0492 31.2378C27.0492 31.2378 26.8805 30.9085 27.1214 30.3555Z" fill="url(#paint4_linear_3388_134)"/>
<path d="M9.38467 22.0324C9.62559 21.4794 9.97524 21.3933 9.97524 21.3933L13.7905 23.1837C13.6136 23.2102 13.379 23.4672 13.2188 23.8316C13.0603 24.1954 13.0293 24.5479 13.1276 24.7051L9.31242 22.9147C9.31414 22.914 9.14439 22.5872 9.38467 22.0324V22.0324Z" fill="url(#paint5_linear_3388_134)"/>
<path d="M30.8847 33.0374C30.7054 32.9532 30.7085 32.5442 30.8916 32.1238C31.0748 31.7034 31.3686 31.4308 31.5479 31.515C31.7272 31.5991 31.7241 32.0082 31.5409 32.4286C31.3578 32.8489 31.064 33.1215 30.8847 33.0374Z" fill="#9E9E9E"/>
<path opacity="0.85" d="M9.98212 21.3945L26.0626 28.942C26.2424 29.0265 26.2397 29.4352 26.0559 29.8537C25.8728 30.274 25.579 30.5461 25.4008 30.461L9.31865 22.9141C9.31865 22.9141 9.12464 22.607 9.38617 22.0296C9.64769 21.4522 9.98212 21.3945 9.98212 21.3945V21.3945Z" fill="url(#paint6_linear_3388_134)"/>
<path opacity="0.22" d="M15.4802 23.9746L23.5205 27.7484L31.5607 31.5222C31.7405 31.6066 31.7378 32.0153 31.554 32.4338C31.3709 32.8541 31.0771 33.1262 30.8989 33.0411L14.8157 25.4967C14.8157 25.4967 14.6217 25.1895 14.8832 24.6122C15.1471 24.0359 15.4802 23.9746 15.4802 23.9746Z" fill="url(#paint7_linear_3388_134)"/>
<path d="M26.5223 22.8214L25.8496 23.5314C25.8328 23.5502 25.8075 23.5561 25.7851 23.5485L24.7361 23.2279C24.6808 23.2109 24.6353 23.2695 24.6582 23.3216L25.1179 24.344C25.128 24.3665 25.1261 24.3938 25.11 24.4143L24.5129 25.219C24.4775 25.2676 24.5168 25.3378 24.5757 25.3269L25.6277 25.1531C25.6537 25.149 25.6791 25.1595 25.6933 25.1824L26.2479 26.0555C26.2807 26.1079 26.3585 26.0896 26.3672 26.0271L26.5016 25.0348C26.5031 25.0224 26.5079 25.0107 26.5154 25.0009C26.523 24.9911 26.5329 24.9837 26.5443 24.9794L27.5809 24.6119C27.6348 24.5928 27.6407 24.5171 27.5925 24.4871L26.6351 23.9267C26.6132 23.915 26.6007 23.8913 26.6008 23.8648L26.6357 22.8687C26.6358 22.8096 26.5631 22.7769 26.5223 22.8214V22.8214Z" fill="url(#paint8_radial_3388_134)"/>
<path d="M14.2038 18.1788L12.7897 17.5182C12.7116 17.4815 12.6312 17.5681 12.6702 17.6486L13.2555 18.8439C13.2782 18.8901 13.2617 18.9475 13.2155 18.9717L11.8103 19.7303C11.7283 19.7746 11.7535 19.9034 11.8478 19.9092L13.6395 20.0203C13.6658 20.0222 13.6907 20.0369 13.7067 20.0592L14.7236 21.4644C14.7721 21.5331 14.8757 21.5047 14.8865 21.421L15.1025 19.8587C15.1051 19.8404 15.1127 19.8233 15.1243 19.8094C15.1359 19.7955 15.1511 19.7852 15.1681 19.7799L16.5249 19.3746C16.543 19.3693 16.559 19.3583 16.5709 19.3431C16.5827 19.328 16.5898 19.3094 16.5911 19.29C16.5924 19.2705 16.5879 19.2511 16.5782 19.2344C16.5685 19.2177 16.554 19.2045 16.5368 19.1967L15.3429 18.6556C15.3081 18.6408 15.2863 18.6024 15.2878 18.5631L15.3516 17.2847C15.3553 17.1976 15.2535 17.1498 15.1943 17.2138L14.3037 18.162C14.2797 18.1878 14.2393 18.1955 14.2038 18.1788V18.1788Z" fill="url(#paint9_radial_3388_134)"/>
<path d="M6.64381 19.6803L4.95253 19.5808C4.86803 19.5752 4.83165 19.6751 4.89539 19.7316L6.10977 20.821C6.13862 20.8464 6.14944 20.887 6.13617 20.9207L5.15176 23.092C5.1235 23.1601 5.19543 23.2338 5.26719 23.2098L7.04523 22.1155C7.0751 22.1059 7.10908 22.1129 7.13492 22.1354L8.82837 23.6465C8.89145 23.7012 8.98511 23.6564 8.97401 23.5772L8.49669 21.6466C8.49477 21.6292 8.49813 21.6117 8.50632 21.5964C8.51451 21.5811 8.52711 21.5689 8.54234 21.5614L10.0185 20.6793C10.0836 20.6476 10.0789 20.5537 10.0085 20.5221L8.31265 19.9883C8.28661 19.9761 8.26658 19.9534 8.2603 19.9252L7.74539 17.7668C7.72376 17.6856 7.61043 17.6709 7.57659 17.7453L6.72628 19.6317C6.71171 19.6618 6.67928 19.6807 6.64381 19.6803V19.6803Z" fill="url(#paint10_radial_3388_134)"/>
<path d="M12.5854 20.3532C13.1286 20.3161 13.6707 20.2557 14.1936 20.1094C14.7183 19.9678 15.214 19.7223 15.6716 19.4166C16.128 19.1077 16.5648 18.7735 17.0166 18.4683C17.4684 18.163 17.9309 17.8792 18.403 17.6136C18.6391 17.4808 18.8799 17.3571 19.1177 17.2291C19.3509 17.1048 19.5949 17.0183 19.8481 16.9942C20.0991 16.9764 20.3572 17.0272 20.5719 17.1922C20.7868 17.3534 20.9532 17.6068 21.0574 17.8938C21.2703 18.4716 21.2909 19.1228 21.2404 19.7378C21.1898 20.3565 21.0461 20.9568 20.9024 21.557C20.6188 22.7597 20.2675 23.9358 19.9237 25.1163C19.7514 25.7076 19.5786 26.2973 19.4139 26.893C19.2454 27.4865 19.0939 28.0898 18.962 28.7019C18.8281 29.313 18.7181 29.9403 18.6785 30.5895C18.6675 30.7477 18.6552 30.9228 18.7009 31.11C18.7275 31.204 18.772 31.3019 18.8463 31.3754C18.9206 31.4488 19.0101 31.4779 19.0899 31.4887C19.2512 31.5024 19.3885 31.4541 19.5158 31.395C19.6426 31.3344 19.761 31.2587 19.8733 31.1744C20.3169 30.8302 20.6895 30.393 21.0335 29.9303C21.2052 29.6982 21.3682 29.4585 21.5244 29.2123C21.6787 28.9651 21.8256 28.7097 21.9674 28.4527C21.6588 28.9472 21.3316 29.4234 20.9756 29.8651C20.6189 30.3053 20.2318 30.7189 19.7921 31.0286C19.6808 31.1033 19.5678 31.1732 19.4496 31.225C19.3315 31.2768 19.2057 31.3115 19.0906 31.298C19.0338 31.2891 18.9819 31.2691 18.9449 31.2287C18.9085 31.1899 18.8817 31.1326 18.8642 31.068C18.8333 30.9336 18.8427 30.7834 18.8582 30.6253C18.9097 30.0007 19.0288 29.39 19.1744 28.7908C19.7567 26.3942 20.5791 24.1013 21.1764 21.6804C21.3178 21.0737 21.4601 20.4575 21.5096 19.8026C21.5568 19.1541 21.539 18.4615 21.2897 17.7955C21.1671 17.4662 20.9626 17.149 20.6864 16.9458C20.4097 16.7374 20.0883 16.6802 19.8011 16.7049C19.5135 16.737 19.2422 16.8342 18.9989 16.9716C18.7627 17.1082 18.5229 17.2388 18.2884 17.3801C17.8195 17.6628 17.3602 17.9636 16.9124 18.2838C16.4651 18.6056 16.0324 18.951 15.591 19.2724C15.1514 19.5948 14.6787 19.8588 14.1667 20.0228C13.6572 20.1896 13.1229 20.2799 12.5854 20.3532V20.3532Z" fill="#E5C046"/>
<path d="M15.395 21.1403C17.4984 20.8499 19.2236 18.6208 21.3592 18.057C22.1801 17.8575 22.8541 18.7022 22.6615 20.5345C22.1439 23.7478 20.557 26.1469 20.1135 27.4234C20.9554 26.3842 22.5543 23.8886 23.5197 21.7513C24.9848 18.5683 23.5235 15.8799 21.3989 16.7227C20.6597 16.9309 19.4091 17.8286 18.9113 18.2744C18.4286 18.7347 16.8097 20.3698 15.395 21.1403V21.1403Z" fill="url(#paint11_radial_3388_134)"/>
</g>
<path d="M47.6395 28V15.7907H52.9767C54.3023 15.7907 55.4651 16.0465 56.4651 16.5581C57.4651 17.0698 58.2442 17.7791 58.8023 18.686C59.3605 19.593 59.6395 20.6628 59.6395 21.8953C59.6395 23.1163 59.3605 24.186 58.8023 25.1047C58.2442 26.0116 57.4651 26.7209 56.4651 27.2326C55.4651 27.7442 54.3023 28 52.9767 28H47.6395ZM49.907 26.0814H52.8721C53.7907 26.0814 54.5814 25.907 55.2442 25.5581C55.9186 25.2093 56.436 24.7209 56.7965 24.093C57.1686 23.4651 57.3547 22.7326 57.3547 21.8953C57.3547 21.0465 57.1686 20.314 56.7965 19.6977C56.436 19.0698 55.9186 18.5814 55.2442 18.2326C54.5814 17.8837 53.7907 17.7093 52.8721 17.7093H49.907V26.0814ZM66.6179 28V26.6437L66.53 26.3549V23.9814C66.53 23.5209 66.3918 23.1651 66.1156 22.914C65.8393 22.6544 65.4207 22.5247 64.8597 22.5247C64.483 22.5247 64.1104 22.5833 63.7421 22.7005C63.3821 22.8177 63.0765 22.9809 62.8253 23.1902L62.21 22.0474C62.57 21.7712 62.997 21.566 63.4909 21.4321C63.9932 21.2898 64.5123 21.2186 65.0481 21.2186C66.0193 21.2186 66.7686 21.453 67.296 21.9219C67.8318 22.3823 68.0997 23.0981 68.0997 24.0693V28H66.6179ZM64.5081 28.0879C64.0058 28.0879 63.5663 28.0042 63.1895 27.8367C62.8128 27.6609 62.5197 27.4223 62.3104 27.1209C62.1095 26.8112 62.009 26.4637 62.009 26.0786C62.009 25.7019 62.097 25.3628 62.2728 25.0614C62.457 24.76 62.7542 24.5214 63.1644 24.3456C63.5746 24.1698 64.1188 24.0819 64.797 24.0819H66.7435V25.1242H64.91C64.3742 25.1242 64.0142 25.2121 63.83 25.3879C63.6458 25.5553 63.5537 25.7647 63.5537 26.0158C63.5537 26.3005 63.6667 26.5265 63.8928 26.694C64.1188 26.8614 64.4328 26.9451 64.8346 26.9451C65.2197 26.9451 65.563 26.8572 65.8644 26.6814C66.1742 26.5056 66.396 26.246 66.53 25.9028L66.7937 26.8447C66.643 27.2381 66.3709 27.5437 65.9774 27.7614C65.5923 27.9791 65.1025 28.0879 64.5081 28.0879ZM73.7182 28.0879C73.0736 28.0879 72.4917 27.9456 71.9727 27.6609C71.462 27.3679 71.0601 26.966 70.7671 26.4553C70.474 25.9447 70.3275 25.3419 70.3275 24.647C70.3275 23.9521 70.474 23.3493 70.7671 22.8386C71.0601 22.3279 71.462 21.9302 71.9727 21.6456C72.4917 21.3609 73.0736 21.2186 73.7182 21.2186C74.2792 21.2186 74.7815 21.3442 75.2252 21.5953C75.6689 21.8381 76.0206 22.2107 76.2801 22.713C76.5396 23.2153 76.6694 23.86 76.6694 24.647C76.6694 25.4256 76.5438 26.0702 76.2927 26.5809C76.0415 27.0833 75.694 27.46 75.2503 27.7112C74.8066 27.9623 74.2959 28.0879 73.7182 28.0879ZM73.9066 26.7442C74.2833 26.7442 74.6182 26.6605 74.9113 26.493C75.2127 26.3256 75.4513 26.0828 75.6271 25.7647C75.8113 25.4465 75.9033 25.074 75.9033 24.647C75.9033 24.2116 75.8113 23.8391 75.6271 23.5293C75.4513 23.2112 75.2127 22.9684 74.9113 22.8009C74.6182 22.6335 74.2833 22.5498 73.9066 22.5498C73.5299 22.5498 73.1908 22.6335 72.8894 22.8009C72.5964 22.9684 72.3578 23.2112 72.1736 23.5293C71.9978 23.8391 71.9099 24.2116 71.9099 24.647C71.9099 25.074 71.9978 25.4465 72.1736 25.7647C72.3578 26.0828 72.5964 26.3256 72.8894 26.493C73.1908 26.6605 73.5299 26.7442 73.9066 26.7442ZM75.941 28V26.4177L76.0038 24.6344L75.8782 22.8512V18.6819H77.4354V28H75.941ZM83.269 28.0879C82.5825 28.0879 81.9713 27.9414 81.4355 27.6484C80.8997 27.347 80.4769 26.9367 80.1671 26.4177C79.8574 25.8986 79.7025 25.3084 79.7025 24.647C79.7025 23.9772 79.8574 23.387 80.1671 22.8763C80.4769 22.3572 80.8997 21.9512 81.4355 21.6581C81.9713 21.3651 82.5825 21.2186 83.269 21.2186C83.9639 21.2186 84.5792 21.3651 85.115 21.6581C85.6592 21.9512 86.082 22.353 86.3834 22.8637C86.6932 23.3744 86.8481 23.9688 86.8481 24.647C86.8481 25.3084 86.6932 25.8986 86.3834 26.4177C86.082 26.9367 85.6592 27.347 85.115 27.6484C84.5792 27.9414 83.9639 28.0879 83.269 28.0879ZM83.269 26.7442C83.6541 26.7442 83.9974 26.6605 84.2988 26.493C84.6002 26.3256 84.8346 26.0828 85.002 25.7647C85.1778 25.4465 85.2657 25.074 85.2657 24.647C85.2657 24.2116 85.1778 23.8391 85.002 23.5293C84.8346 23.2112 84.6002 22.9684 84.2988 22.8009C83.9974 22.6335 83.6583 22.5498 83.2816 22.5498C82.8964 22.5498 82.5532 22.6335 82.2518 22.8009C81.9588 22.9684 81.7243 23.2112 81.5485 23.5293C81.3727 23.8391 81.2848 24.2116 81.2848 24.647C81.2848 25.074 81.3727 25.4465 81.5485 25.7647C81.7243 26.0828 81.9588 26.3256 82.2518 26.493C82.5532 26.6605 82.8922 26.7442 83.269 26.7442ZM91.1747 28.0879C90.6138 28.0879 90.0738 28.0167 89.5547 27.8744C89.044 27.7237 88.638 27.5437 88.3366 27.3344L88.9394 26.1414C89.2408 26.334 89.6008 26.493 90.0194 26.6186C90.438 26.7442 90.8566 26.807 91.2752 26.807C91.7692 26.807 92.125 26.74 92.3426 26.606C92.5687 26.4721 92.6817 26.2921 92.6817 26.066C92.6817 25.8819 92.6064 25.7437 92.4557 25.6516C92.305 25.5512 92.1082 25.4758 91.8654 25.4256C91.6226 25.3753 91.3505 25.3293 91.0492 25.2874C90.7561 25.2456 90.4589 25.1912 90.1575 25.1242C89.8645 25.0488 89.5966 24.9442 89.3538 24.8102C89.111 24.6679 88.9143 24.4795 88.7636 24.2451C88.6129 24.0107 88.5375 23.7009 88.5375 23.3158C88.5375 22.8888 88.6589 22.5205 88.9017 22.2107C89.1445 21.8926 89.4836 21.6498 89.9189 21.4823C90.3626 21.3065 90.8859 21.2186 91.4887 21.2186C91.9408 21.2186 92.3971 21.2688 92.8575 21.3693C93.318 21.4698 93.6989 21.6121 94.0003 21.7963L93.3975 22.9893C93.0794 22.7967 92.7571 22.667 92.4305 22.6C92.1124 22.5247 91.7943 22.487 91.4761 22.487C90.9989 22.487 90.6431 22.5581 90.4087 22.7005C90.1826 22.8428 90.0696 23.0228 90.0696 23.2405C90.0696 23.4414 90.145 23.5921 90.2957 23.6926C90.4464 23.793 90.6431 23.8726 90.8859 23.9312C91.1287 23.9898 91.3966 24.04 91.6896 24.0819C91.991 24.1153 92.2882 24.1698 92.5812 24.2451C92.8743 24.3205 93.1422 24.4251 93.385 24.5591C93.6361 24.6847 93.8371 24.8647 93.9878 25.0991C94.1385 25.3335 94.2138 25.6391 94.2138 26.0158C94.2138 26.4344 94.0882 26.7986 93.8371 27.1084C93.5943 27.4181 93.2468 27.6609 92.7947 27.8367C92.3426 28.0042 91.8026 28.0879 91.1747 28.0879ZM106.804 28.1744C105.874 28.1744 105.008 28.0233 104.205 27.7209C103.415 27.407 102.723 26.9709 102.13 26.4128C101.548 25.843 101.095 25.1744 100.769 24.407C100.444 23.6395 100.281 22.8023 100.281 21.8953C100.281 20.9884 100.444 20.1512 100.769 19.3837C101.095 18.6163 101.554 17.9535 102.147 17.3953C102.74 16.8256 103.432 16.3895 104.223 16.0872C105.014 15.7733 105.88 15.6163 106.822 15.6163C107.822 15.6163 108.734 15.7907 109.56 16.1395C110.386 16.4767 111.083 16.9826 111.653 17.657L110.188 19.0349C109.746 18.5581 109.252 18.2035 108.705 17.9709C108.159 17.7267 107.566 17.6047 106.926 17.6047C106.287 17.6047 105.7 17.7093 105.165 17.9186C104.641 18.1279 104.182 18.4244 103.787 18.8081C103.403 19.1919 103.101 19.6453 102.88 20.1686C102.671 20.6919 102.566 21.2674 102.566 21.8953C102.566 22.5233 102.671 23.0988 102.88 23.6221C103.101 24.1453 103.403 24.5988 103.787 24.9826C104.182 25.3663 104.641 25.6628 105.165 25.8721C105.7 26.0814 106.287 26.186 106.926 26.186C107.566 26.186 108.159 26.0698 108.705 25.8372C109.252 25.593 109.746 25.2267 110.188 24.7384L111.653 26.1337C111.083 26.7965 110.386 27.3023 109.56 27.6512C108.734 28 107.816 28.1744 106.804 28.1744ZM114.262 28V21.294H115.757V23.14L115.581 22.6C115.782 22.1479 116.096 21.8047 116.523 21.5702C116.958 21.3358 117.498 21.2186 118.143 21.2186V22.713C118.076 22.6963 118.013 22.6879 117.955 22.6879C117.896 22.6795 117.837 22.6753 117.779 22.6753C117.184 22.6753 116.711 22.8512 116.36 23.2028C116.008 23.546 115.832 24.0609 115.832 24.7474V28H114.262ZM120.228 28V21.294H121.798V28H120.228ZM121.019 20.1888C120.726 20.1888 120.483 20.0967 120.291 19.9126C120.107 19.7284 120.015 19.5065 120.015 19.247C120.015 18.9791 120.107 18.7572 120.291 18.5814C120.483 18.3972 120.726 18.3051 121.019 18.3051C121.312 18.3051 121.551 18.393 121.735 18.5688C121.928 18.7363 122.024 18.9498 122.024 19.2093C122.024 19.4856 121.932 19.72 121.748 19.9126C121.563 20.0967 121.321 20.1888 121.019 20.1888ZM128.743 28V26.6437L128.655 26.3549V23.9814C128.655 23.5209 128.517 23.1651 128.241 22.914C127.965 22.6544 127.546 22.5247 126.985 22.5247C126.608 22.5247 126.236 22.5833 125.867 22.7005C125.507 22.8177 125.202 22.9809 124.951 23.1902L124.335 22.0474C124.695 21.7712 125.122 21.566 125.616 21.4321C126.119 21.2898 126.638 21.2186 127.173 21.2186C128.145 21.2186 128.894 21.453 129.421 21.9219C129.957 22.3823 130.225 23.0981 130.225 24.0693V28H128.743ZM126.633 28.0879C126.131 28.0879 125.692 28.0042 125.315 27.8367C124.938 27.6609 124.645 27.4223 124.436 27.1209C124.235 26.8112 124.134 26.4637 124.134 26.0786C124.134 25.7019 124.222 25.3628 124.398 25.0614C124.582 24.76 124.88 24.5214 125.29 24.3456C125.7 24.1698 126.244 24.0819 126.922 24.0819H128.869V25.1242H127.035C126.5 25.1242 126.14 25.2121 125.955 25.3879C125.771 25.5553 125.679 25.7647 125.679 26.0158C125.679 26.3005 125.792 26.5265 126.018 26.694C126.244 26.8614 126.558 26.9451 126.96 26.9451C127.345 26.9451 127.688 26.8572 127.99 26.6814C128.3 26.5056 128.521 26.246 128.655 25.9028L128.919 26.8447C128.768 27.2381 128.496 27.5437 128.103 27.7614C127.718 27.9791 127.228 28.0879 126.633 28.0879ZM135.517 28.0879C134.781 28.0879 134.211 27.8995 133.809 27.5228C133.408 27.1377 133.207 26.5726 133.207 25.8274V19.8121H134.776V25.7898C134.776 26.1079 134.856 26.3549 135.015 26.5307C135.182 26.7065 135.413 26.7944 135.706 26.7944C136.057 26.7944 136.35 26.7023 136.585 26.5181L137.024 27.6358C136.84 27.7865 136.614 27.8995 136.346 27.9749C136.078 28.0502 135.802 28.0879 135.517 28.0879ZM132.102 22.6V21.3442H136.572V22.6H132.102ZM139.069 28V21.294H140.639V28H139.069ZM139.86 20.1888C139.567 20.1888 139.324 20.0967 139.132 19.9126C138.948 19.7284 138.856 19.5065 138.856 19.247C138.856 18.9791 138.948 18.7572 139.132 18.5814C139.324 18.3972 139.567 18.3051 139.86 18.3051C140.153 18.3051 140.392 18.393 140.576 18.5688C140.769 18.7363 140.865 18.9498 140.865 19.2093C140.865 19.4856 140.773 19.72 140.589 19.9126C140.404 20.0967 140.162 20.1888 139.86 20.1888ZM145.236 28L142.36 21.294H143.993L146.467 27.2088H145.663L148.225 21.294H149.732L146.856 28H145.236ZM154.296 28.0879C153.61 28.0879 152.999 27.9414 152.463 27.6484C151.927 27.347 151.504 26.9367 151.195 26.4177C150.885 25.8986 150.73 25.3084 150.73 24.647C150.73 23.9772 150.885 23.387 151.195 22.8763C151.504 22.3572 151.927 21.9512 152.463 21.6581C152.999 21.3651 153.61 21.2186 154.296 21.2186C154.991 21.2186 155.607 21.3651 156.142 21.6581C156.687 21.9512 157.109 22.353 157.411 22.8637C157.721 23.3744 157.875 23.9688 157.875 24.647C157.875 25.3084 157.721 25.8986 157.411 26.4177C157.109 26.9367 156.687 27.347 156.142 27.6484C155.607 27.9414 154.991 28.0879 154.296 28.0879ZM154.296 26.7442C154.682 26.7442 155.025 26.6605 155.326 26.493C155.628 26.3256 155.862 26.0828 156.029 25.7647C156.205 25.4465 156.293 25.074 156.293 24.647C156.293 24.2116 156.205 23.8391 156.029 23.5293C155.862 23.2112 155.628 22.9684 155.326 22.8009C155.025 22.6335 154.686 22.5498 154.309 22.5498C153.924 22.5498 153.581 22.6335 153.279 22.8009C152.986 22.9684 152.752 23.2112 152.576 23.5293C152.4 23.8391 152.312 24.2116 152.312 24.647C152.312 25.074 152.4 25.4465 152.576 25.7647C152.752 26.0828 152.986 26.3256 153.279 26.493C153.581 26.6605 153.92 26.7442 154.296 26.7442ZM162.202 28.0879C161.641 28.0879 161.101 28.0167 160.582 27.8744C160.071 27.7237 159.665 27.5437 159.364 27.3344L159.967 26.1414C160.268 26.334 160.628 26.493 161.047 26.6186C161.465 26.7442 161.884 26.807 162.303 26.807C162.797 26.807 163.152 26.74 163.37 26.606C163.596 26.4721 163.709 26.2921 163.709 26.066C163.709 25.8819 163.634 25.7437 163.483 25.6516C163.332 25.5512 163.136 25.4758 162.893 25.4256C162.65 25.3753 162.378 25.3293 162.077 25.2874C161.784 25.2456 161.486 25.1912 161.185 25.1242C160.892 25.0488 160.624 24.9442 160.381 24.8102C160.138 24.6679 159.942 24.4795 159.791 24.2451C159.64 24.0107 159.565 23.7009 159.565 23.3158C159.565 22.8888 159.686 22.5205 159.929 22.2107C160.172 21.8926 160.511 21.6498 160.946 21.4823C161.39 21.3065 161.913 21.2186 162.516 21.2186C162.968 21.2186 163.424 21.2688 163.885 21.3693C164.345 21.4698 164.726 21.6121 165.028 21.7963L164.425 22.9893C164.107 22.7967 163.784 22.667 163.458 22.6C163.14 22.5247 162.822 22.487 162.504 22.487C162.026 22.487 161.67 22.5581 161.436 22.7005C161.21 22.8428 161.097 23.0228 161.097 23.2405C161.097 23.4414 161.172 23.5921 161.323 23.6926C161.474 23.793 161.67 23.8726 161.913 23.9312C162.156 23.9898 162.424 24.04 162.717 24.0819C163.018 24.1153 163.316 24.1698 163.609 24.2451C163.902 24.3205 164.17 24.4251 164.412 24.5591C164.664 24.6847 164.864 24.8647 165.015 25.0991C165.166 25.3335 165.241 25.6391 165.241 26.0158C165.241 26.4344 165.116 26.7986 164.864 27.1084C164.622 27.4181 164.274 27.6609 163.822 27.8367C163.37 28.0042 162.83 28.0879 162.202 28.0879Z" fill="white" fill-opacity="0.7"/>
<defs>
<filter id="filter0_d_3388_134" x="4.86304" y="16.5663" width="28.3359" height="17.9954" filterUnits="userSpaceOnUse" color-interpolation-filters="sRGB">
<feFlood flood-opacity="0" result="BackgroundImageFix"/>
<feColorMatrix in="SourceAlpha" type="matrix" values="0 0 0 0 0 0 0 0 0 0 0 0 0 0 0 0 0 0 127 0" result="hardAlpha"/>
<feOffset dx="0.752527" dy="0.752527"/>
<feGaussianBlur stdDeviation="0.376263"/>
<feColorMatrix type="matrix" values="0 0 0 0 0 0 0 0 0 0 0 0 0 0 0 0 0 0 0.25 0"/>
<feBlend mode="normal" in2="BackgroundImageFix" result="effect1_dropShadow_3388_134"/>
<feBlend mode="normal" in="SourceGraphic" in2="effect1_dropShadow_3388_134" result="shape"/>
</filter>
<linearGradient id="paint0_linear_3388_134" x1="7.72681" y1="0" x2="12.1139" y2="33.9586" gradientUnits="userSpaceOnUse">
<stop stop-color="#755387"/>
<stop offset="1" stop-color="#2C0C3C"/>
</linearGradient>
<linearGradient id="paint1_linear_3388_134" x1="13.3684" y1="8.42883" x2="15.864" y2="34.1329" gradientUnits="userSpaceOnUse">
<stop stop-color="#755387"/>
<stop offset="1" stop-color="#2C0C3C"/>
</linearGradient>
<linearGradient id="paint2_linear_3388_134" x1="21.2937" y1="14.4923" x2="22.7642" y2="34.2612" gradientUnits="userSpaceOnUse">
<stop stop-color="#755387"/>
<stop offset="1" stop-color="#2C0C3C"/>
</linearGradient>
<linearGradient id="paint3_linear_3388_134" x1="13.4311" y1="24.5615" x2="24.4805" y2="33.6907" gradientUnits="userSpaceOnUse">
<stop stop-color="#719898"/>
<stop offset="1" stop-color="#3E1B50"/>
</linearGradient>
<linearGradient id="paint4_linear_3388_134" x1="29.4379" y1="30.686" x2="28.6635" y2="32.336" gradientUnits="userSpaceOnUse">
<stop offset="0.262" stop-color="#F5F5F5"/>
<stop offset="0.466" stop-color="#EAEAEA"/>
<stop offset="0.822" stop-color="#CDCDCD"/>
<stop offset="0.989" stop-color="#BDBDBD"/>
</linearGradient>
<linearGradient id="paint5_linear_3388_134" x1="11.6954" y1="22.3616" x2="10.923" y2="24.0078" gradientUnits="userSpaceOnUse">
<stop offset="0.262" stop-color="#F5F5F5"/>
<stop offset="0.466" stop-color="#EAEAEA"/>
<stop offset="0.822" stop-color="#CDCDCD"/>
<stop offset="0.989" stop-color="#BDBDBD"/>
</linearGradient>
<linearGradient id="paint6_linear_3388_134" x1="16.8764" y1="25.5464" x2="8.58711" y2="21.9351" gradientUnits="userSpaceOnUse">
<stop stop-color="#FADA80" stop-opacity="0"/>
<stop offset="1" stop-color="#FADA80"/>
</linearGradient>
<linearGradient id="paint7_linear_3388_134" x1="33.6559" y1="33.4206" x2="27.9192" y2="30.9213" gradientUnits="userSpaceOnUse">
<stop stop-color="#53256E"/>
<stop offset="0.186" stop-color="#1D2A87" stop-opacity="0.814"/>
<stop offset="0.49" stop-color="#243DA0" stop-opacity="0.51"/>
<stop offset="0.873" stop-color="#2F5CC7" stop-opacity="0.127"/>
<stop offset="1" stop-color="#3367D6" stop-opacity="0"/>
</linearGradient>
<radialGradient id="paint8_radial_3388_134" cx="0" cy="0" r="1" gradientUnits="userSpaceOnUse" gradientTransform="translate(23.355 26.8656) rotate(128.251) scale(6.14727 3.60552)">
<stop stop-color="#E8AD17" stop-opacity="0"/>
<stop offset="1" stop-color="#E3B512"/>
</radialGradient>
<radialGradient id="paint9_radial_3388_134" cx="0" cy="0" r="1" gradientUnits="userSpaceOnUse" gradientTransform="translate(10.2678 22.7608) rotate(130.061) scale(8.95065 5.05868)">
<stop stop-color="#E8AD17" stop-opacity="0"/>
<stop offset="1" stop-color="#E3B512"/>
</radialGradient>
<radialGradient id="paint10_radial_3388_134" cx="0" cy="0" r="1" gradientUnits="userSpaceOnUse" gradientTransform="translate(2.96219 25.2962) rotate(126.408) scale(10.8064 6.54637)">
<stop stop-color="#E8AD17" stop-opacity="0"/>
<stop offset="1" stop-color="#E3B512"/>
</radialGradient>
<radialGradient id="paint11_radial_3388_134" cx="0" cy="0" r="1" gradientUnits="userSpaceOnUse" gradientTransform="translate(13.3333 28.9694) rotate(127.592) scale(17.6257 10.4645)">
<stop stop-color="#E8AD17" stop-opacity="0"/>
<stop offset="1" stop-color="#E3B512"/>
</radialGradient>
</defs>
</svg>
