<svg width="586" height="642" viewBox="0 0 586 642" fill="none" xmlns="http://www.w3.org/2000/svg">
<g id="Gr&#195;&#161;fico Preenchimento">
<rect width="586" height="642" fill="black" fill-opacity="0.4"/>
<text id="50%" fill="#F62671" xml:space="preserve" style="white-space: pre" font-family="Segoe UI" font-size="89.2754" font-weight="600" letter-spacing="0em"><tspan x="99" y="512.466">50%</tspan></text>
<text id="952" opacity="0.9" fill="#2F8BA5" xml:space="preserve" style="white-space: pre" font-family="Segoe UI" font-size="50" font-weight="600" letter-spacing="0em"><tspan x="423" y="249.203">952</tspan></text>
<text id="952_2" opacity="0.9" fill="#F62671" xml:space="preserve" style="white-space: pre" font-family="Segoe UI" font-size="50" font-weight="600" letter-spacing="0em"><tspan x="105" y="583.203">952</tspan></text>
<rect id="Rectangle 144" x="231" y="195" width="275" height="6" fill="#2F8BA5"/>
<rect id="Rectangle 145" x="105" y="529" width="281" height="6" fill="#F62671"/>
<path id="image 40 (Traced)" fill-rule="evenodd" clip-rule="evenodd" d="M434.92 331.247C428.175 331.957 417.108 336.064 410.981 340.13C407.455 342.47 402.252 347.73 399.774 351.46C393.455 360.97 389.694 373.679 388.779 388.612C388.63 391.057 388.388 398.411 388.241 404.954C387.846 422.638 387.501 427.121 385.98 434.359C383.246 447.367 378.279 455.975 371.504 459.449C370.14 460.148 368.971 460.766 368.908 460.821C368.844 460.876 369.433 461.576 370.215 462.375C373.235 465.46 380.156 469.423 386.15 471.498C393.723 474.121 400.941 475.325 411.442 475.715C414.08 475.814 416.293 475.983 416.361 476.092C416.428 476.201 416.615 480.331 416.775 485.269L417.067 494.246L424.376 519.609C437.266 564.341 443.239 585.494 443.098 585.917C443.05 586.061 442.119 584.908 441.03 583.355C434.089 573.465 414.701 545.373 409.149 537.162C407.508 534.737 406.024 532.697 405.85 532.631C405.504 532.498 401.202 532.976 393.863 533.963C386.406 534.966 386.15 534.987 386.15 534.608C386.15 534.066 387.9 529.526 395.348 510.754C399.219 500.994 402.351 492.973 402.307 492.929C402.263 492.885 401.051 493.565 399.614 494.441C395.967 496.663 391.465 498.562 384.45 500.836C381.142 501.909 375.917 503.605 372.839 504.606C360.912 508.483 352.831 512.268 348.19 516.152C344.742 519.036 341.315 525.417 340.363 530.722C340.114 532.113 340.01 535.332 340.006 541.81L340 550.938L343.138 553.251C355.273 562.199 367.716 569.274 380.616 574.559C396.372 581.014 410.939 584.57 429.815 586.569C434.889 587.106 442.52 587.204 443.326 586.743C443.92 586.403 444.5 584.719 449.783 567.981C454.121 554.24 472.215 495.792 472.61 494.246C472.911 493.065 473.044 490.595 473.146 484.245C473.267 476.678 473.325 475.813 473.708 475.812C475.426 475.811 485.276 474.911 488.254 474.483C498.004 473.081 507.783 470.064 513.314 466.751C515.166 465.642 518.8 462.869 519.761 461.833C520.409 461.135 520.41 461.125 519.892 460.741C519.604 460.528 518.545 459.922 517.539 459.395C513.801 457.438 509.046 451.792 506.435 446.215C502.649 438.128 501.536 428.42 502.633 413.06C504.401 388.315 502.443 372.018 496.074 358.467C494.183 354.445 492.792 352.454 489.774 349.457C486.522 346.226 484.669 344.826 481.717 343.372C478.323 341.7 476.008 341.182 470.474 340.856C465.174 340.543 465.274 340.575 461.976 338.147C457.677 334.982 455.862 334.003 451.909 332.717C447.2 331.186 440.779 330.63 434.92 331.247ZM485.508 493.075C485.508 493.239 488.321 500.453 491.758 509.106C499.877 529.547 501.66 534.355 501.266 534.748C501.184 534.831 500.693 534.839 500.176 534.768C499.659 534.695 495.514 534.109 490.965 533.464C486.415 532.818 482.627 532.29 482.546 532.29C482.087 532.29 457.859 566.984 447.878 581.934C445.663 585.252 444.757 586.819 444.944 587.006C445.258 587.32 453.771 586.899 459.884 586.268C471.436 585.075 482.575 582.809 493.222 579.488C511.164 573.891 529.208 564.665 544.274 553.385L548 550.596V543.002C548 531.774 547.557 528.803 545.132 523.793C542.359 518.061 538.702 514.646 531.529 511.085C525.169 507.927 519.645 505.838 509.864 502.89C496.205 498.773 493.225 497.541 485.705 492.898C485.597 492.832 485.508 492.911 485.508 493.075Z" fill="#F62671"/>
<path id="image 38 (Traced)" fill-rule="evenodd" clip-rule="evenodd" d="M135.604 22.418C126.263 23.6357 119.488 25.9348 113.139 30.0441C111.161 31.3247 108.161 33.1565 106.473 34.1154C102.56 36.3373 97.6085 41.6222 95.4599 45.871C91.7475 53.2113 88.9388 66.75 88.9083 77.4512C88.8975 81.0478 88.6173 82.3 87.5923 83.3253C85.3862 85.5323 84.7329 87.377 84.3728 92.4113C83.7513 101.104 87.549 113.43 91.5579 115.732C92.8347 116.464 94.437 119.043 96.9891 124.473C101.819 134.748 106.3 141.423 113.126 148.513C123.264 159.044 132.128 163.414 143.33 163.405C153.915 163.396 162.408 159.382 172.234 149.743C179.04 143.067 186.272 132.448 190.125 123.471C191.708 119.785 193.58 116.679 195.121 115.182C201.33 109.15 204.126 90.2632 199.605 84.8882C198.254 83.2819 197.891 81.5923 196.953 72.4988C194.193 45.7789 189.165 38.0066 167.603 27.1307C159.558 23.0729 145.955 21.0697 135.604 22.418ZM101.896 168.703C92.6762 175.368 81.9621 179.541 64.5645 183.24C58.0705 184.621 51.1412 186.355 49.1659 187.095C44.0989 188.992 38.6298 194.199 36.0702 199.564C32.3693 207.322 30 222.495 30 238.441C30 245.599 30.1631 246.645 31.7892 249.909C37.5047 261.384 61.9718 270.277 101.08 275.097C115.558 276.881 153.029 277.603 169.837 276.422C215.512 273.211 247.924 262.953 254.431 249.648L256.302 245.821L255.885 233.843C255.059 210.144 251.907 198.844 244.145 191.747C239.621 187.611 235.923 186.205 221.775 183.245C204.387 179.607 195.124 176.072 184.756 169.116C182.197 167.4 179.916 166.003 179.686 166.013C179.456 166.022 174.089 177.174 167.76 190.794C161.43 204.414 156.037 215.691 155.776 215.854C155.305 216.146 149.82 199.824 149.82 198.132C149.82 197.65 150.267 196.394 150.812 195.34C151.357 194.285 152.787 190.91 153.99 187.839C155.753 183.337 156.05 181.897 155.526 180.404C154.428 177.279 152.484 176.778 142.274 176.983C132.042 177.19 130.189 177.896 130.189 181.589C130.189 183.254 132.676 189.907 135.441 195.638C136.469 197.768 136.411 198.172 133.92 206.134C132.495 210.689 131.098 214.867 130.814 215.418C130.271 216.475 129.164 214.248 114.588 182.775C110.323 173.566 106.529 166.05 106.157 166.072C105.785 166.094 103.868 167.278 101.896 168.703Z" fill="#2F8BA5"/>
<text id="50%_2" fill="#2F8BA5" xml:space="preserve" style="white-space: pre" font-family="Segoe UI" font-size="89.2754" font-weight="600" letter-spacing="0em"><tspan x="343" y="178.466">50%</tspan></text>
</g>
</svg>
