<svg width="67" height="66" viewBox="0 0 67 66" fill="none" xmlns="http://www.w3.org/2000/svg">
<path fill-rule="evenodd" clip-rule="evenodd" d="M39.8551 28.3491V30.0168L39.0289 31.6533L37.6711 32.4714L36.8155 33.8561L35.1335 35.4923L34.2778 37.8839V39.2687L35.9892 40.0867L39.0289 42.5414H40.7108L42.4222 40.9048L44.665 40.0867H48.0584L49.475 38.4191V37.8839L48.6487 36.3107L49.475 35.4923V33.8561L50.3307 33.2895L51.098 31.6533L52.8094 32.4714V30.0168L51.9537 28.3491L48.6487 27.814L47.2321 28.3491L46.3764 29.1987L44.665 28.3491L43.8388 27.814H42.4222L40.7108 28.3491H39.8551Z" fill="#4AC4FB" stroke="white" stroke-width="0.40717" stroke-miterlimit="10" stroke-linecap="round" stroke-linejoin="round"/>
<path fill-rule="evenodd" clip-rule="evenodd" d="M34.2735 38.2201H33.7126L32.8569 37.6677H32.0008L31.1451 38.2201L29.4628 39.097L27.1901 38.2201H25.567L24.7109 39.097V41.6301L25.567 42.4748V43.9037L24.7109 45.5925V50.3673L25.567 51.2115H28.8725L29.4628 52.0562L30.2891 54.3297L31.1451 55.1744H32.8569V54.3297L34.2735 52.0562L35.1296 51.2115L37.6677 48.7107L38.996 46.4695L40.7077 43.9037V42.4748H38.996L35.9559 39.9412L34.2735 39.097V38.2201Z" fill="#4AC4FB" stroke="white" stroke-width="0.40717" stroke-miterlimit="10" stroke-linecap="round" stroke-linejoin="round"/>
<path fill-rule="evenodd" clip-rule="evenodd" d="M40.7076 19.1244L26.3992 18.563L24.7831 17.7519L24.2251 16.9412L23.3731 15.3198L21.6985 13.1366V14.5086L20.8465 16.1305V17.7519H14.353L13.7949 19.1244V23.2094L17.732 23.7397V26.9519L16.0574 29.9454L16.9094 32.3779L16.0574 33.1886L16.9094 34.5611V36.1825L20.8465 36.9311H22.5211V37.7418L23.3731 39.1138L24.7831 39.925V39.1138L25.6355 38.3031H27.2513L29.5137 39.1138L31.1883 38.3031L32.0403 37.7418H32.8923L33.7443 38.3031H34.3028V37.7418L35.1548 35.3718L36.8294 33.75L37.6814 32.3779L39.0036 31.5672L39.8556 29.9454V28.2929L40.7076 26.1097L39.8556 23.7397V21.5565L40.7076 19.1244Z" fill="#4AC4FB" stroke="white" stroke-width="0.40717" stroke-miterlimit="10" stroke-linecap="round" stroke-linejoin="round"/>
<path fill-rule="evenodd" clip-rule="evenodd" d="M46.1251 34.1602L48.3892 34.15C48.4591 34.1905 48.3692 34.271 48.4391 34.3115L48.7282 34.3217C48.7948 34.3553 48.7249 34.5204 48.7085 34.5642C48.6918 34.6079 48.7699 34.6615 48.7384 34.7154C48.7069 34.7694 48.6603 34.7894 48.6484 34.8769C48.637 34.9644 48.5969 35.0674 48.6088 35.1398C48.6202 35.2122 48.5687 35.1938 48.5887 35.2608C48.6088 35.3279 48.8978 35.5719 48.8181 35.6218L46.4044 35.5715C45.9555 35.5548 46.1002 35.6022 46.0552 35.5437C46.0102 35.4853 46.0683 35.3029 46.065 35.2101C46.0617 35.1177 45.8823 34.9546 46.1051 34.9681C46.1067 34.8136 45.9387 34.7796 45.9755 34.6852C46.007 34.5041 46.155 34.6112 46.155 34.5237L46.1251 34.1602Z" stroke="white" stroke-width="0.40717" stroke-miterlimit="10" stroke-linecap="round" stroke-linejoin="round"/>
<circle cx="33.4998" cy="32.8416" r="31.5279" stroke="#4AC4FB" stroke-width="2.62733"/>
</svg>
