<svg width="67" height="66" viewBox="0 0 67 66" fill="none" xmlns="http://www.w3.org/2000/svg">
<path fill-rule="evenodd" clip-rule="evenodd" d="M24.0108 48.4116L25.2818 47.6848L26.0233 46.9305H28.3274L29.5985 47.6848H31.1082L32.644 48.4116H33.8358L35.3719 49.6136H36.1399L38.1528 50.3683V51.0947L37.4113 51.8215L36.8813 53.2189L37.4113 53.722V54.4488L38.1528 55.1756L38.9207 54.4488L39.6886 53.2189V51.0947L40.4568 49.6136V44.7502L41.1983 43.5206V44.247H41.7279L43.2376 41.3403L44.0056 40.6697L41.7279 40.1666V39.4398L41.1983 38.713V37.9866H41.7279L42.4694 37.2319V36.0299L41.7279 34.5488H41.1983V33.822L38.1528 33.0952L36.8813 34.5488H35.3719V33.822L34.604 33.0952L33.1475 34.5488L30.3403 35.3031L28.8305 34.5488L28.3274 35.3031V36.0299L28.8305 36.5051V37.2319L27.5595 38.713H26.0233L24.5139 37.9866H24.0108L23.2425 38.713L22.4746 40.1666L23.2425 42.0671V44.7502L24.0108 46.2037V48.4116Z" fill="#0070C0" stroke="white" stroke-width="0.360767" stroke-miterlimit="10" stroke-linecap="round" stroke-linejoin="round"/>
<path fill-rule="evenodd" clip-rule="evenodd" d="M43.9951 40.5593L45.438 37.9258L44.677 37.2126L43.2345 36.033H42.5V37.2126L41.7391 37.9258H41.2407V38.6665L41.7391 39.3797V40.0929L43.9951 40.5593Z" fill="#0070C0" stroke="white" stroke-width="0.360767" stroke-miterlimit="10" stroke-linecap="round" stroke-linejoin="round"/>
<path fill-rule="evenodd" clip-rule="evenodd" d="M45.4334 37.8787L46.6982 37.1607L47.4621 35.9463L48.9638 33.7931H46.6982L45.934 34.5107H45.4334L43.9847 33.7931H42.4826L41.7188 34.5107L42.4826 35.9463H43.2204L44.6696 37.1607L45.4334 37.8787Z" fill="#0070C0" stroke="white" stroke-width="0.360767" stroke-miterlimit="10" stroke-linecap="round" stroke-linejoin="round"/>
<path fill-rule="evenodd" clip-rule="evenodd" d="M49.5886 29.8264H48.8284L47.334 31.1929H45.8136H45.3156L44.5815 31.9036H43.1136L43.8738 30.4823H43.1136L41.6193 31.1929L41.1213 31.9036L38.8672 31.1929H38.107L37.3468 30.4823H36.0886L35.3544 31.1929V32.3681L34.5942 33.0788L35.3544 33.7894V34.5H36.8488L38.107 33.0788L41.1213 33.7894V34.5H41.6193L42.3795 33.7894H43.8738L45.3156 34.5H45.8136L46.5738 33.7894H48.8284L49.5886 31.9036V29.8264Z" fill="#0070C0" stroke="white" stroke-width="0.360767" stroke-miterlimit="10" stroke-linecap="round" stroke-linejoin="round"/>
<path fill-rule="evenodd" clip-rule="evenodd" d="M49.5882 29.6676L48.8294 28.1465H46.5804L45.8217 27.6492H45.3248V28.1465V28.9071H42.3953L43.8863 27.6492L43.154 26.8887L42.3953 27.6492L41.14 28.1465H40.3817L39.649 30.3694L38.8906 31.13L41.14 31.8906L41.6369 31.13L43.154 30.3694H43.8863L43.154 31.8906H44.5925L45.3248 31.13H47.3388L48.8294 29.6676H49.5882Z" fill="#0070C0" stroke="white" stroke-width="0.360767" stroke-miterlimit="10" stroke-linecap="round" stroke-linejoin="round"/>
<path fill-rule="evenodd" clip-rule="evenodd" d="M48.9635 28.3128L48.1978 25.4118L47.4582 24.6261H45.9264L43.9719 23.8405H43.2062L42.4666 24.6261L41.7008 26.1974L40.4331 28.3128H41.1988L42.4666 27.7689L43.2062 26.9834L43.9719 27.7689L42.4666 29.0987H45.4247V27.7689H45.9264L46.6925 28.3128H48.9635Z" fill="#0070C0" stroke="white" stroke-width="0.360767" stroke-miterlimit="10" stroke-linecap="round" stroke-linejoin="round"/>
<path fill-rule="evenodd" clip-rule="evenodd" d="M44.0057 23.9728L41.7273 22.7483H41.2241L39.6876 21.2391L37.4092 20.4987H33.8594V21.9794V23.4887L34.6277 26.2226V27.7033L36.1378 29.6964V30.3798H37.4092L38.1775 31.1202H38.9193L39.6876 30.3798L40.4559 28.1873L41.7273 26.2226L42.4956 24.7131L43.2374 23.9728H44.0057Z" fill="#0070C0" stroke="white" stroke-width="0.360767" stroke-miterlimit="10" stroke-linecap="round" stroke-linejoin="round"/>
<path fill-rule="evenodd" clip-rule="evenodd" d="M33.1394 20.4987L32.6355 21.2329H31.8661L31.0971 21.9672L30.3545 23.464V24.6783L29.5851 26.9093V28.1521L28.8161 28.8862L26.8003 29.6203L25.2619 30.2983L24.0151 31.7669L23.2461 34.5062L24.0151 37.2172V37.9517H24.5193L26.0309 38.6858H27.5429L28.8161 37.2172V36.4548L28.3119 35.9748V35.2403L28.8161 34.5062L30.3545 35.2403L33.1394 34.5062L34.5981 33.0093L35.3406 32.2752V31.0324L36.11 30.2983V29.6203L34.5981 27.6438V26.1752L33.829 23.464V21.9672V20.4987H33.1394Z" fill="#0070C0" stroke="white" stroke-width="0.360767" stroke-miterlimit="10" stroke-linecap="round" stroke-linejoin="round"/>
<path fill-rule="evenodd" clip-rule="evenodd" d="M22.4365 16.4216V18.6185L21.7447 21.2661L20.9727 23.4912L19.6954 24.7023L18.1787 25.4628L17.4067 26.1952H18.9238L19.6954 26.9275V27.6598L18.9238 28.8988L19.6954 31.0395L20.9727 31.7718L21.7447 31.0395L22.4365 31.7718V32.279L21.7447 33.0113L20.9727 34.4759L21.7447 35.9404L23.2085 37.1795H23.9536L23.2085 34.4759L23.9536 31.7718L25.2309 30.3072L26.7745 29.6311L28.7973 28.8988L29.5688 28.1386V26.9275L30.3408 24.7023V23.4912L31.0859 21.9984L31.8575 21.2661H32.6295L33.1352 20.5338H32.6295L31.0859 19.8015L28.7973 19.2945L27.5196 18.6185L26.7745 19.8015V18.6185L25.2309 17.8862L24.4858 17.1539L22.4365 16.4216Z" fill="#0070C0" stroke="white" stroke-width="0.360767" stroke-miterlimit="10" stroke-linecap="round" stroke-linejoin="round"/>
<circle cx="33.1707" cy="32.8416" r="31.5279" stroke="#0070C0" stroke-width="2.62733"/>
</svg>
