<svg width="66" height="66" viewBox="0 0 66 66" fill="none" xmlns="http://www.w3.org/2000/svg">
<path fill-rule="evenodd" clip-rule="evenodd" d="M51.953 34.142L52.5373 34.6969V35.2518L50.8043 36.746L50.4213 37.8132V39.3074L49.837 40.4389L48.6883 41.9115L48.104 43.5979V45.0921L48.6883 46.7142L48.104 48.2084H48.6883L49.837 47.824H50.8043L51.3886 48.2084L52.5373 48.7633L53.1219 48.2084L54.0892 47.824L56.3461 48.2084V46.1592L55.7817 44.7077L56.3461 43.5979L56.9304 43.0429V42.4664H56.3461L55.2376 41.5487L54.6735 40.4389L55.2376 39.3074L55.7817 38.7525V38.3897L55.2376 37.8132L54.6735 38.3897L53.7062 37.8132L53.1219 36.1911L53.7062 35.2518V34.6969L53.1219 34.142H51.953Z" fill="#92D050" stroke="white" stroke-width="0.335806" stroke-miterlimit="10" stroke-linecap="round" stroke-linejoin="round"/>
<path fill-rule="evenodd" clip-rule="evenodd" d="M33.1562 22.9666L33.7359 24.6341V25.7672L34.6957 27.8195L35.2553 28.3753H36.4148L37.5543 28.8884V29.8076L37.934 30.3848L35.8349 36.1568V37.7817L36.9744 39.2781L37.5543 40.3899L37.934 40.9457L39.0336 41.5228L48.749 41.8863L49.8886 40.3899L50.4682 39.2781V37.7817L50.8481 36.7129L52.5672 35.2164V34.6604L51.9876 34.1046L52.5672 33.5488L53.7068 32.993L54.6663 32.0523L55.2462 30.3848L55.7659 28.3753V26.6864L55.2462 26.1306L53.1271 25.7672L52.5672 26.6864L51.4077 27.8195L50.8481 28.8884L50.4682 30.3848V28.8884L48.1694 28.3753L47.2099 27.2422H46.1103L44.9708 26.1306L44.3912 24.6341L43.4316 22.9666L42.2921 22.5818H41.7122L40.7527 22.026V20.9143H39.0336L38.5139 21.4701H39.0336L38.5139 22.026H36.9744L35.2553 22.5818L33.7359 22.9666H33.1562Z" fill="#92D050" stroke="white" stroke-width="0.335806" stroke-miterlimit="10" stroke-linecap="round" stroke-linejoin="round"/>
<path fill-rule="evenodd" clip-rule="evenodd" d="M47.2342 27.2993H46.1357L44.977 26.1884L44.4177 24.693L43.459 23.0053L42.3203 22.6422H41.7409L40.7822 22.0653V20.9544L42.3203 21.5099H44.0383L45.5563 20.399L46.6948 18.9463L47.2342 18.3909H47.6138V19.8863L48.1929 21.5099L48.7522 22.6422L49.3316 23.0053V23.5608L48.7522 24.1376L47.6138 25.2485L47.2342 26.7439V27.2993Z" fill="#92D050" stroke="white" stroke-width="0.335806" stroke-miterlimit="10" stroke-linecap="round" stroke-linejoin="round"/>
<path fill-rule="evenodd" clip-rule="evenodd" d="M30.8514 41.002H29.9265L29.3636 41.5527H28.7806V40.4301L28.1974 39.8794H27.6142L26.6694 39.3286L25.5032 39.8794V40.4301L24.92 41.002L23.9552 41.5527V41.913L22.2261 42.4638L21.1201 43.5864L21.7031 44.1371L22.809 43.5864H23.3919L23.9552 44.1371V45.5565L24.92 47.2298L27.2323 47.7806L28.1974 48.1619L30.8514 48.7127L31.9973 49.2635L33.1634 47.2298V45.0479L30.4693 44.6879V41.913L30.8514 41.002Z" fill="#92D050" stroke="white" stroke-width="0.335806" stroke-miterlimit="10" stroke-linecap="round" stroke-linejoin="round"/>
<path fill-rule="evenodd" clip-rule="evenodd" d="M33.6906 25.7684H31.9682L31.3872 26.1491V26.6989L30.8265 27.2487H30.446L29.9052 26.6989H29.3444L28.7634 27.7985L27.6217 27.2487L27.2212 26.6989L27.6217 26.1491V24.6688L27.2212 23.5692V22.6387L26.6605 22.0889L25.4988 21.5391L24.938 20.4183V19.5513L23.9766 19.0015L24.3571 18.4517L26.6605 19.0015H27.2212L27.6217 19.5513L28.1827 18.4517L30.446 17.3521V16.4216L31.3872 16.7811V17.9019H31.9682L32.5489 19.0015L31.9682 20.4183L32.5489 22.6387L33.1097 22.9982L33.6906 24.6688V25.7684Z" fill="#92D050" stroke="white" stroke-width="0.335806" stroke-miterlimit="10" stroke-linecap="round" stroke-linejoin="round"/>
<path fill-rule="evenodd" clip-rule="evenodd" d="M26.7106 22.0509L27.2916 22.606V23.5454L27.6721 24.6556V26.15L27.2916 26.7051L27.6721 27.2602L28.8341 27.8153L29.4151 26.7051H29.9761L30.5169 27.2602H30.8977L31.4584 26.7051V26.15L32.0394 25.7657H33.7624L34.7239 27.8153L35.3049 28.3704H36.4466L37.6086 28.8827V29.8221L37.9894 30.3772L35.8859 36.1417V38.7036L35.3049 39.8351V40.9452H30.8977H29.9761L29.4151 41.5004H28.8341V40.39L28.2531 39.8351H27.6721L26.7106 39.2586L25.5686 39.8351V40.39L24.9876 40.9452L24.0261 41.5004V41.8845L22.3034 42.4397L21.2016 43.5499L19.0981 42.9947L17.5553 41.8845L15.2516 40.9452L13.7291 40.39H12.0463L10.5038 39.8351L9.36182 39.2586L9.94281 38.3406L10.5038 37.7854V37.2305L11.0846 36.1417L12.0463 35.2235L14.6906 34.1134H15.2516L15.8326 32.0638L16.4136 28.8827L15.2516 27.8153L14.6906 25.7657L15.2516 25.2106H16.4136V24.6556L15.2516 24.1005V23.5454L17.9361 22.9903H19.6788L20.2398 23.5454L20.8208 24.6556L21.7823 25.2106L24.0261 24.6556L24.9876 23.5454L26.7106 22.606V22.0509Z" fill="#92D050" stroke="white" stroke-width="0.335806" stroke-miterlimit="10" stroke-linecap="round" stroke-linejoin="round"/>
<path fill-rule="evenodd" clip-rule="evenodd" d="M9.19531 39.1632L10.3459 39.7065L11.9 40.2498H13.5956L15.1298 40.8138L17.451 41.7121L19.0054 42.8194L21.1247 43.3627L21.7101 43.906L20.156 44.8253L17.8345 45.3267H15.1298L14.5646 44.8253V43.3627L13.5956 44.449H12.4855L11.9 43.906H11.3149L10.9314 42.8194L9.78075 41.7121L9.19531 40.8138V39.1632Z" fill="#92D050" stroke="white" stroke-width="0.335806" stroke-miterlimit="10" stroke-linecap="round" stroke-linejoin="round"/>
<circle cx="32.8416" cy="32.8416" r="31.5279" stroke="#92D050" stroke-width="2.62733"/>
</svg>
