<svg width="66" height="66" viewBox="0 0 66 66" fill="none" xmlns="http://www.w3.org/2000/svg">
<path fill-rule="evenodd" clip-rule="evenodd" d="M31.0016 55.1437L33.4026 53.9926L35.2651 49.3419L37.6661 47.4378L40.0255 42.1231L42.0122 38.6242L41.2258 37.4725V35.5678H40.0255L38.8253 34.3722L36.4659 33.2205L35.2651 32.0694L32.2024 30.9177H28.6427L25.4552 33.2205L18.708 42.8755V44.0272H21.0674L25.4552 46.3745H26.6554L31.0016 50.4936L32.2024 49.3419V51.6892L31.0016 52.8409V55.1437Z" fill="#FDB934" stroke="white" stroke-width="0.462294" stroke-miterlimit="10" stroke-linecap="round" stroke-linejoin="round"/>
<path fill-rule="evenodd" clip-rule="evenodd" d="M41.6239 38.6167L43.988 35.4436L45.1905 30.7294V27.647H43.988L41.6239 26.4688H39.6326L37.227 27.647L36.0244 28.8259L31.7522 27.647H28.1851V30.7294H31.7522L34.8629 31.9082L36.0244 33.0865L38.4301 34.2648L39.6326 35.4436H40.8357V37.4378L41.6239 38.6167Z" fill="#FDB934" stroke="white" stroke-width="0.462294" stroke-miterlimit="10" stroke-linecap="round" stroke-linejoin="round"/>
<path fill-rule="evenodd" clip-rule="evenodd" d="M28.1357 27.6884H31.7416L36.06 28.8517L37.2764 27.6884L39.6664 26.5257H41.6786L44.0686 27.6884H45.285V25.3625L47.6745 22.9921H46.4587L44.0686 21.0689H42.8528L40.8823 17.5803L39.6664 16.4177L38.45 15.6121H34.8441L31.7416 14.4495H29.3515L28.1357 15.6121L26.1646 18.743V21.0689V22.9921L24.9487 24.1998V25.3625L27.3388 26.5257L28.1357 27.6884Z" fill="#FDB934" stroke="white" stroke-width="0.462294" stroke-miterlimit="10" stroke-linecap="round" stroke-linejoin="round"/>
<circle cx="33.1585" cy="32.8416" r="31.5279" stroke="#FDB934" stroke-width="2.62733"/>
</svg>
