<svg width="67" height="66" viewBox="0 0 67 66" fill="none" xmlns="http://www.w3.org/2000/svg">
<path fill-rule="evenodd" clip-rule="evenodd" d="M37.8513 44.5126V43.8112L38.8991 42.7975H36.8401H35.106L33.0109 41.7838L32.0714 39.796V38.7828L31.0241 38.12V36.054L29.9763 35.0408L28.2422 34.0271L25.1354 35.0408L23.4018 34.0271H20.295L18.2355 37.1063L16.5741 39.796L14.5151 41.7838L13.4673 42.7975H15.5263L18.2355 43.8112H21.3423L22.3901 44.5126L23.4018 45.5263L25.1354 48.5664H26.1832L28.2422 50.2815H29.29L29.9763 49.6187L33.0109 47.5532L35.7923 45.5263L37.8513 44.5126Z" fill="#002060" stroke="white" stroke-width="0.469" stroke-miterlimit="10" stroke-linecap="round" stroke-linejoin="round"/>
<path fill-rule="evenodd" clip-rule="evenodd" d="M37.7355 44.6145V43.9317L38.7918 42.8473H36.6792L38.7918 41.8035L40.9045 40.7592H42.6531L44.7658 39.7951L45.8221 38.0284L46.8418 36.9841L47.5703 38.7513H50.6299L49.5736 39.7951V40.7592L47.5703 41.8035L46.8418 43.9317H41.5968L37.7355 44.6145Z" fill="#002060" stroke="white" stroke-width="0.469" stroke-miterlimit="10" stroke-linecap="round" stroke-linejoin="round"/>
<path fill-rule="evenodd" clip-rule="evenodd" d="M50.4711 38.9004L52.5065 34.982L53.1733 31.1031L54.191 28.9619L53.1733 27.9116H51.4888L50.4711 28.9619V30.0528L49.4534 32.1539V32.8809L47.5232 34.982L46.8564 37.1232L47.5232 38.9004H50.4711Z" fill="#002060" stroke="white" stroke-width="0.469" stroke-miterlimit="10" stroke-linecap="round" stroke-linejoin="round"/>
<path fill-rule="evenodd" clip-rule="evenodd" d="M53.1478 27.2024L52.4645 26.5371L53.1478 24.5423L54.1901 23.5251V22.5078L51.4217 21.4906H50.415L48.33 19.769H46.7116L44.6266 18.7518H42.5771L40.8515 17.7346H37.7593L36.7165 18.7518L34.9909 19.769L32.9414 18.7518L32.0064 20.7863L30.9641 21.4906V23.5251L29.9214 24.5423L30.9641 26.5371V27.2024L29.238 29.2368H25.1035L22.3351 30.254L20.2856 32.3275V34.01H23.3779L25.1035 35.0663L28.1957 34.01L29.9214 35.0663L30.9641 36.0836V38.1175L32.0064 38.8219V39.8391L32.9414 41.7953L34.9909 42.8125H36.7165L38.802 41.7953L40.8515 40.7781H42.5771L44.6266 39.8391L45.6693 38.1175L46.7116 37.1003L47.395 35.0663L49.3722 32.9928V32.3275L50.415 30.254V29.2368L51.4217 28.2196H53.1478V27.2024Z" fill="#002060" stroke="white" stroke-width="0.469" stroke-miterlimit="10" stroke-linecap="round" stroke-linejoin="round"/>
<circle cx="33.8294" cy="32.8416" r="31.5279" stroke="#002060" stroke-width="2.62733"/>
</svg>
